<svg width="24" height="24" viewBox="0 0 24 24" fill="none" xmlns="http://www.w3.org/2000/svg">
<path d="M12 24C18.6274 24 24 18.6274 24 12C24 5.37258 18.6274 0 12 0C5.37258 0 0 5.37258 0 12C0 18.6274 5.37258 24 12 24Z" fill="#7F3FF1"/>
<path d="M14.625 9.375H7.875C7.46079 9.375 7.125 9.71079 7.125 10.125V15.375C7.125 15.7892 7.46079 16.125 7.875 16.125H14.625C15.0392 16.125 15.375 15.7892 15.375 15.375V10.125C15.375 9.71079 15.0392 9.375 14.625 9.375Z" fill="white"/>
<path d="M16.125 7.875H9C8.90054 7.875 8.80516 7.91451 8.73484 7.98484C8.66451 8.05516 8.625 8.15054 8.625 8.25C8.625 8.34946 8.66451 8.44484 8.73484 8.51516C8.80516 8.58549 8.90054 8.625 9 8.625H16.125V14.25C16.125 14.3495 16.1645 14.4448 16.2348 14.5152C16.3052 14.5855 16.4005 14.625 16.5 14.625C16.5995 14.625 16.6948 14.5855 16.7652 14.5152C16.8355 14.4448 16.875 14.3495 16.875 14.25V8.625C16.875 8.42609 16.796 8.23532 16.6553 8.09467C16.5147 7.95402 16.3239 7.875 16.125 7.875Z" fill="white"/>
</svg>
