<svg width="18" height="18" viewBox="0 0 18 18" fill="none" xmlns="http://www.w3.org/2000/svg">
<path d="M16.6712 0H1.32875C0.976344 0 0.638371 0.139993 0.389182 0.389182C0.139993 0.638371 0 0.976344 0 1.32875V16.6712C0 17.0237 0.139993 17.3616 0.389182 17.6108C0.638371 17.86 0.976344 18 1.32875 18H16.6712C17.0237 18 17.3616 17.86 17.6108 17.6108C17.86 17.3616 18 17.0237 18 16.6712V1.32875C18 0.976344 17.86 0.638371 17.6108 0.389182C17.3616 0.139993 17.0237 0 16.6712 0ZM5.365 13.9806C5.365 14.7279 4.75919 15.3337 4.01188 15.3337C3.26456 15.3337 2.65875 14.7279 2.65875 13.9806V8.09062C2.65875 7.34331 3.26456 6.7375 4.01188 6.7375C4.75919 6.7375 5.365 7.34332 5.365 8.09063V13.9806ZM4.01 5.54625C3.70302 5.54452 3.40344 5.4519 3.14905 5.28007C2.89466 5.10823 2.69688 4.8649 2.58066 4.58077C2.46444 4.29664 2.43499 3.98444 2.49602 3.68359C2.55706 3.38274 2.70585 3.10671 2.92362 2.89034C3.14138 2.67396 3.41836 2.52695 3.7196 2.46785C4.02084 2.40874 4.33283 2.4402 4.61621 2.55824C4.89959 2.67628 5.14165 2.87563 5.31185 3.13111C5.48204 3.38659 5.57274 3.68677 5.5725 3.99375C5.5754 4.19928 5.53688 4.40328 5.45926 4.5936C5.38163 4.78393 5.26649 4.95668 5.12068 5.10155C4.97487 5.24643 4.80139 5.36046 4.61057 5.43686C4.41975 5.51326 4.2155 5.55047 4.01 5.54625ZM15.3403 13.9889C15.3401 14.7358 14.7346 15.3412 13.9877 15.3412C13.2406 15.3412 12.635 14.7356 12.635 13.9886V10.645C12.635 9.26 12.0463 8.8325 11.2863 8.8325C10.4838 8.8325 9.69625 9.4375 9.69625 10.68V13.9881C9.69625 14.7354 9.09044 15.3412 8.34312 15.3412C7.59581 15.3412 6.99 14.7354 6.99 13.9881V8.045C6.99 7.32634 7.57259 6.74375 8.29125 6.74375H8.99688C9.32583 6.74375 9.5925 7.01042 9.5925 7.33938V7.91341C9.5925 7.92534 9.60217 7.935 9.61409 7.935C9.6223 7.935 9.62965 7.93062 9.63336 7.9233C9.90221 7.39303 10.814 6.5025 12.2 6.5025C13.71 6.5025 15.3412 7.39875 15.3412 10.0238L15.3403 13.9889Z" fill="#0A66C2"/>
</svg>
