<svg width="24" height="24" viewBox="0 0 24 24" fill="none" xmlns="http://www.w3.org/2000/svg">
<path d="M12 24C18.6274 24 24 18.6274 24 12C24 5.37258 18.6274 0 12 0C5.37258 0 0 5.37258 0 12C0 18.6274 5.37258 24 12 24Z" fill="#27AE60"/>
<path d="M12 12C13.3807 12 14.5 10.8807 14.5 9.5C14.5 8.11929 13.3807 7 12 7C10.6193 7 9.5 8.11929 9.5 9.5C9.5 10.8807 10.6193 12 12 12Z" fill="white"/>
<path d="M12.0001 13.25C9.49508 13.25 7.45508 14.93 7.45508 17C7.45508 17.14 7.56508 17.25 7.70508 17.25H16.2951C16.4351 17.25 16.5451 17.14 16.5451 17C16.5451 14.93 14.5051 13.25 12.0001 13.25Z" fill="white"/>
</svg>
