<svg width="24" height="24" viewBox="0 0 24 24" fill="none" xmlns="http://www.w3.org/2000/svg">
<g clip-path="url(#clip0_686_4250)">
<path d="M12 24C18.6274 24 24 18.6274 24 12C24 5.37258 18.6274 0 12 0C5.37258 0 0 5.37258 0 12C0 18.6274 5.37258 24 12 24Z" fill="#635BFF"/>
<path d="M18.3207 12.0879C18.3207 11.1891 17.8853 10.4796 17.0532 10.4796C16.2212 10.4796 15.7119 11.1888 15.7119 12.0809C15.7119 13.1377 16.3089 13.6716 17.165 13.6716C17.5829 13.6716 17.8989 13.5778 18.1377 13.4433V12.7401C17.8989 12.8594 17.6251 12.9333 17.2775 12.9333C16.937 12.9333 16.6349 12.814 16.5964 12.3996H18.3135C18.3137 12.3546 18.3207 12.172 18.3207 12.0879ZM16.5864 11.7544C16.5864 11.3576 16.8287 11.1919 17.05 11.1919C17.2642 11.1919 17.4925 11.3559 17.4925 11.7544H16.5864ZM14.3565 10.4796C14.1004 10.4787 13.8538 10.5768 13.6684 10.7536L13.6227 10.5359H12.8493V14.6299L13.727 14.4438L13.7305 13.4501C13.8568 13.5415 14.0429 13.6713 14.3521 13.6713C14.9807 13.6713 15.553 13.1658 15.553 12.0527C15.5502 11.0344 14.9708 10.4796 14.3565 10.4796ZM14.1456 12.8988C13.9384 12.8988 13.8156 12.825 13.7312 12.7348L13.7277 11.4321C13.8191 11.3304 13.9454 11.2601 14.1456 11.2601C14.465 11.2601 14.6863 11.6182 14.6863 12.0783C14.6865 12.5477 14.4688 12.8988 14.1458 12.8988H14.1456ZM11.6422 10.2724L12.5235 10.0828V9.37007L11.6422 9.55617V10.2724ZM11.6422 10.5394H12.5235V13.6118H11.6422V10.5394ZM10.6977 10.7991L10.641 10.5394H9.88301V13.6116H10.7607V11.5294C10.9679 11.2589 11.319 11.3081 11.4278 11.3468V10.5394C11.3157 10.4972 10.9049 10.4198 10.6977 10.7991ZM8.94199 9.77742L8.08629 9.96093L8.08277 12.7734C8.08277 13.293 8.47254 13.6758 8.99215 13.6758C9.27996 13.6758 9.49066 13.623 9.60668 13.56V12.8463C9.49441 12.892 8.93965 13.0535 8.93965 12.5339V11.2873H9.60668V10.5394H8.93848L8.94199 9.77742ZM6.56848 11.4312C6.56848 11.2943 6.68074 11.2416 6.86684 11.2416C7.17058 11.2479 7.46867 11.3249 7.73754 11.4663V10.6406C7.46058 10.5315 7.16519 10.4769 6.86754 10.4796C6.1548 10.4796 5.68066 10.8518 5.68066 11.4734C5.68066 12.4425 7.01496 12.288 7.01496 12.7057C7.01496 12.8672 6.87434 12.9199 6.67793 12.9199C6.3866 12.9199 6.01418 12.8006 5.71934 12.6387V13.4744C6.02201 13.6054 6.34814 13.6735 6.67793 13.6746C7.40824 13.6746 7.91027 13.313 7.91027 12.6844C7.90629 11.6384 6.56848 11.8244 6.56848 11.4312Z" fill="white"/>
</g>
<defs>
<clipPath id="clip0_686_4250">
<rect width="24" height="24" fill="white"/>
</clipPath>
</defs>
</svg>
