<svg width="24" height="24" viewBox="0 0 24 24" fill="none" xmlns="http://www.w3.org/2000/svg">
<path d="M12 24C18.6274 24 24 18.6274 24 12C24 5.37258 18.6274 0 12 0C5.37258 0 0 5.37258 0 12C0 18.6274 5.37258 24 12 24Z" fill="#4353FF"/>
<path d="M15.5251 10.575L14.4376 14.0025C14.4376 13.74 13.6876 8.055 13.6876 8.055C11.9626 8.055 11.0476 9.2775 10.5676 10.575L9.24008 14.01C9.24008 13.7625 9.05258 10.605 9.05258 10.605C8.98855 9.92147 8.67606 9.28515 8.17431 8.81657C7.67256 8.348 7.01639 8.0797 6.33008 8.0625L7.74008 16.6725C9.54008 16.6725 10.5151 15.45 11.0176 14.1525L12.1426 11.2275C12.1426 11.3475 12.8926 16.6725 12.8926 16.6725C13.6286 16.6716 14.3452 16.4362 14.9386 16.0007C15.5319 15.5651 15.9711 14.9519 16.1926 14.25L18.7426 8.055C16.9426 8.055 15.9976 9.2775 15.5176 10.575H15.5251Z" fill="white"/>
</svg>
