<svg xmlns="http://www.w3.org/2000/svg" enable-background="new 0 0 24 24" viewBox="0 0 24 24" id="adobe-photoshop"><path fill="#001D25" d="M0,2v20c0,1.104,0.896,2,2,2h20c1.104,0,2-0.896,2-2V2c0-1.105-0.895-2-2-2H2C0.896,0,0,0.895,0,2L0,2z"></path><path fill="#213A41" d="M22,0H12v24h10c1.104,0,2-0.896,2-2V2C24,0.895,23.104,0,22,0L22,0z"></path><path fill="#00C8FE" d="M22,1c0.552,0,1,0.449,1,1v20c0,0.551-0.448,1-1,1H2c-0.552,0-1-0.449-1-1V2c0-0.552,0.448-1,1-1H22L22,1z M22,0H2C0.896,0,0,0.895,0,2v20c0,1.104,0.896,2,2,2h20c1.104,0,2-0.896,2-2V2C24,0.895,23.104,0,22,0L22,0z"></path><path fill="#00AEDD" d="M12,0H2C0.896,0,0,0.895,0,2v20c0,1.104,0.896,2,2,2h10v-1H2c-0.552,0-1-0.449-1-1V2c0-0.552,0.448-1,1-1h10V0L12,0z"></path><path fill="#00C8FE" d="M15.555 16.502c-.876 0-1.619-.183-2.05-.43l-.08-.164V14.44c0-.1.047-.133.114-.084.624.413 1.352.594 2.012.594.792 0 1.122-.33 1.122-.777 0-.363-.229-.676-1.237-1.205-1.42-.679-2.014-1.369-2.014-2.527 0-1.287 1.006-2.36 2.755-2.36.86 0 1.464.132 1.794.279l.101.198v1.37c0 .083-.05.133-.15.1-.445-.264-1.1-.43-1.743-.43l.004.004c-.792 0-1.056.396-1.056.726 0 .363.18.61 1.237 1.155 1.568.76 2.062 1.485 2.062 2.557C18.425 15.642 17.205 16.502 15.555 16.502L15.555 16.502zM8.601 5.314c-.989 0-1.933.017-2.578.051L5.8 5.48h.001v10.758l.115.113H7.46l.115-.116v-3.841c.265 0 .394.017.775.017 2.261 0 4.103-1.09 4.103-3.63C12.452 6.834 11.374 5.314 8.601 5.314L8.601 5.314zM8.385 10.808c-.397 0-.579 0-.808-.016V6.931c.181-.017.561-.033.957-.033 1.336 0 2.122.644 2.122 1.914C10.655 10.396 9.555 10.808 8.385 10.808L8.385 10.808z"></path><path fill="#00AEDD" d="M17.269 12h-3.273c.326.353.798.662 1.439.969 1.008.529 1.237.842 1.237 1.205 0 .446-.33.777-1.122.777-.66 0-1.388-.181-2.012-.594-.021-.015-.039-.022-.055-.022-.036 0-.059.037-.059.106v1.467l.08.164c.431.247 1.174.43 2.05.43 1.651 0 2.87-.86 2.87-2.46C18.425 13.213 18.129 12.591 17.269 12L17.269 12zM10.495 12H5.801v4.238l.115.113H7.46l.115-.116v-3.841c.265 0 .394.017.775.017C9.135 12.41 9.87 12.279 10.495 12L10.495 12z"></path></svg>