<svg xmlns="http://www.w3.org/2000/svg" enable-background="new 0 0 24 24" viewBox="0 0 24 24" id="atlassian"><path fill="#0052CC" d="M5.971,11.211L0.074,22.977c-0.234,0.469,0.112,1.017,0.628,1.017h8.203C9.178,24,9.422,23.844,9.533,23.6c1.777-3.647,0.708-9.202-2.399-12.52C6.772,10.696,6.21,10.719,5.971,11.211L5.971,11.211z"></path><path fill="#0047B2" d="M6.5,10.818c-0.213,0.021-0.41,0.15-0.528,0.394L0.074,22.977c-0.234,0.469,0.112,1.017,0.628,1.017H6.5V10.818L6.5,10.818z"></path><path fill="#0052CC" d="M15.13,24h8.166c0.525,0,0.863-0.553,0.628-1.017c0,0-10.991-22.059-11.268-22.608c-0.248-0.497-0.881-0.507-1.2,0.005V0.379c-5.733,9.066-0.398,16.341,3.047,23.227C14.619,23.845,14.863,24,15.13,24L15.13,24z"></path><path fill="#0047B2" d="M12.096,0h-0.031c-0.224,0.005-0.454,0.131-0.61,0.381V0.379c-5.733,9.066-0.398,16.341,3.047,23.227c0.099,0.203,0.29,0.345,0.509,0.384V5.098c-1.322-2.652-2.276-4.566-2.355-4.723C12.534,0.132,12.32,0.005,12.096,0L12.096,0z"></path></svg>