<svg version="1.1" id="Layer_1" xmlns="http://www.w3.org/2000/svg" xmlns:xlink="http://www.w3.org/1999/xlink" x="0px" y="0px" viewBox="0 0 37 37" style="enable-background:new 0 0 184 37;" xml:space="preserve">

<g class="aw-brandmark">
<path d="M20.8,2c-0.8,0-1.6,0.4-2.1,1c-3.6,4.6-5.8,10-6.7,15.4c-0.9,4.7-0.5,10.7,1.1,16.3c0.3,1.1,0.9,2,5.4,2l0,0l0,0
                  		c12.2,0,17.7-4.8,17.7-17.3l0,0C36.2,7.1,31,2,20.8,2 M20.5,35.1c-0.7,0.4-1.7,0.1-2-0.6c0,0,0,0,0,0l0,0c-2.5-4.7-3.3-10-2.3-15.3
                  		c1-5.3,3.6-10,7.6-13.6l0,0c0,0,0,0,0,0c0.6-0.5,1.6-0.5,2.1,0.1c0.6,0.6,0.5,1.5-0.1,2.1c0,0,0,0,0,0l0,0c-3.4,3-5.8,7.1-6.6,11.9
                  		c-0.9,4.7,0,9.4,2,13.4l0,0c0,0,0,0,0,0.1C21.5,33.8,21.2,34.7,20.5,35.1 M29.7,12.9C29.7,12.9,29.7,12.9,29.7,12.9
                  		c-2.5,2-4.3,4.6-4.9,7.7c-0.6,3.1,0,6.2,1.6,8.8l0,0c0,0,0,0,0,0.1c0.3,0.4,0.1,1-0.4,1.2c-0.5,0.2-1.1,0.1-1.4-0.4c0,0,0,0,0,0
                  		l0,0c-1.8-2.9-2.5-6.4-1.8-9.9c0.7-3.5,2.7-6.5,5.5-8.8l0,0c0,0,0,0,0.1-0.1c0.4-0.3,1.1-0.3,1.4,0.1C30.2,12,30.1,12.6,29.7,12.9
                  		 M6.2,32.5c0.1,0.6-0.6,1-1.1,0.6c-2.7-2.4-4.3-5.5-4.3-13.8l0,0C0.8,8.6,5,4,10.7,2.5c0.6-0.2,1,0.5,0.7,0.9
                  		c-2.6,4.3-4.4,9-5.3,14C5.2,22.4,5.3,27.6,6.2,32.5z" fill="#246be8"></path>
</g>
</svg>