<?xml version="1.0" encoding="UTF-8"?>
<!DOCTYPE svg PUBLIC "-//W3C//DTD SVG 1.1//EN" "http://www.w3.org/Graphics/SVG/1.1/DTD/svg11.dtd">
<svg xmlns="http://www.w3.org/2000/svg" version="1.1" width="300px" height="300px" style="shape-rendering:geometricPrecision; text-rendering:geometricPrecision; image-rendering:optimizeQuality; fill-rule:evenodd; clip-rule:evenodd" xmlns:xlink="http://www.w3.org/1999/xlink">
<g><path style="opacity:0.004" fill="#393200" d="M 137.5,25.5 C 138.251,24.4265 139.251,24.2599 140.5,25C 139.552,25.4828 138.552,25.6495 137.5,25.5 Z"/></g>
<g><path style="opacity:0.004" fill="#393200" d="M 167.5,25.5 C 168.251,24.4265 169.251,24.2599 170.5,25C 169.552,25.4828 168.552,25.6495 167.5,25.5 Z"/></g>
<g><path style="opacity:0.004" fill="#393200" d="M 126.5,26.5 C 127.833,27.1667 127.833,27.1667 126.5,26.5 Z"/></g>
<g><path style="opacity:1" fill="#fddf00" d="M 94.5,254.5 C 74.0607,244.365 56.5607,231.699 42,216.5C 40,213.167 38,209.833 36,206.5C 34.5423,200.022 34.0423,193.689 34.5,187.5C 35.0906,186.849 35.7573,186.182 36.5,185.5C 18.4029,178.646 11.2362,165.646 15,146.5C 25.0186,118.418 39.0186,93.0851 57,70.5C 73.8556,52.1419 94.0223,38.8085 117.5,30.5C 174.354,16.3857 218.188,34.0524 249,83.5C 271.173,120.328 282.506,160.328 283,203.5C 277.567,216.942 269.067,228.108 257.5,237C 232.311,254.308 204.311,263.642 173.5,265C 160.239,265.362 147.072,265.528 134,265.5C 124.591,263.037 115.091,260.537 105.5,258C 101.878,257.098 98.5449,255.598 95.5,253.5C 94.8933,253.624 94.56,253.957 94.5,254.5 Z"/></g>
<g><path style="opacity:0.004" fill="#393200" d="M 178.5,26.5 C 179.833,27.1667 179.833,27.1667 178.5,26.5 Z"/></g>
<g><path style="opacity:0.004" fill="#393200" d="M 117.5,28.5 C 118.833,29.1667 118.833,29.1667 117.5,28.5 Z"/></g>
<g><path style="opacity:0.008" fill="#827700" d="M 186.5,28.5 C 187.833,29.1667 187.833,29.1667 186.5,28.5 Z"/></g>
<g><path style="opacity:0.008" fill="#695e02" d="M 117.5,29.5 C 117.5,29.8333 117.5,30.1667 117.5,30.5C 114.833,30.1667 114.833,29.8333 117.5,29.5 Z"/></g>
<g><path style="opacity:0.004" fill="#393200" d="M 109.5,31.5 C 110.833,32.1667 110.833,32.1667 109.5,31.5 Z"/></g>
<g><path style="opacity:0.004" fill="#393200" d="M 193.5,31.5 C 194.833,32.1667 194.833,32.1667 193.5,31.5 Z"/></g>
<g><path style="opacity:0.004" fill="#393200" d="M 198.5,33.5 C 199.833,34.1667 199.833,34.1667 198.5,33.5 Z"/></g>
<g><path style="opacity:0.004" fill="#393200" d="M 99.5,35.5 C 100.833,36.1667 100.833,36.1667 99.5,35.5 Z"/></g>
<g><path style="opacity:0.008" fill="#827700" d="M 97.5,36.5 C 98.8333,37.1667 98.8333,37.1667 97.5,36.5 Z"/></g>
<g><path style="opacity:0.024" fill="#f1a400" d="M 203.5,36.5 C 204.833,37.1667 204.833,37.1667 203.5,36.5 Z"/></g>
<g><path style="opacity:0.004" fill="#393200" d="M 85.5,43.5 C 86.8333,44.1667 86.8333,44.1667 85.5,43.5 Z"/></g>
<g><path style="opacity:1" fill="#1c2a35" d="M 141.5,43.5 C 168.788,40.8741 192.455,48.7074 212.5,67C 232.419,87.6548 246.586,111.822 255,139.5C 261.827,159.298 265.161,179.631 265,200.5C 255.809,216.518 242.642,228.018 225.5,235C 202.862,243.793 179.362,247.96 155,247.5C 116.664,247.343 84.1642,233.676 57.5,206.5C 51.8988,200.88 51.0655,194.547 55,187.5C 61.7561,168.806 71.9227,152.306 85.5,138C 98.3035,128.871 110.637,129.538 122.5,140C 127.654,144.988 132.654,150.155 137.5,155.5C 148.027,142.458 156.527,128.125 163,112.5C 168.677,106.231 174.677,105.897 181,111.5C 182.52,115.375 182.854,119.375 182,123.5C 176.524,135.118 170.524,146.452 164,157.5C 158.376,166.461 150.876,173.294 141.5,178C 135.277,178.398 129.61,176.731 124.5,173C 118.5,167 112.5,161 106.5,155C 104.305,153.627 101.971,153.294 99.5,154C 89.2096,165.906 81.2096,179.24 75.5,194C 106.28,221.803 142.28,231.803 183.5,224C 206.987,221.838 226.82,212.338 243,195.5C 240.959,157.659 228.959,123.326 207,92.5C 179.872,62.7833 148.372,57.2833 112.5,76C 92.8083,88.6949 77.6416,105.528 67,126.5C 60.8902,138.951 55.2236,151.618 50,164.5C 40.1927,169.68 34.026,166.847 31.5,156C 40.5104,126.137 55.3437,99.6367 76,76.5C 94.3504,58.4084 116.184,47.4084 141.5,43.5 Z"/></g>
<g><path style="opacity:0.004" fill="#393200" d="M 219.5,47.5 C 220.833,48.1667 220.833,48.1667 219.5,47.5 Z"/></g>
<g><path style="opacity:0.008" fill="#827700" d="M 75.5,50.5 C 76.8333,51.1667 76.8333,51.1667 75.5,50.5 Z"/></g>
<g><path style="opacity:0.004" fill="#393200" d="M 236.5,64.5 C 237.833,65.1667 237.833,65.1667 236.5,64.5 Z"/></g>
<g><path style="opacity:0.004" fill="#393200" d="M 50.5,75.5 C 51.8333,76.1667 51.8333,76.1667 50.5,75.5 Z"/></g>
<g><path style="opacity:0.008" fill="#827700" d="M 247.5,79.5 C 248.833,80.1667 248.833,80.1667 247.5,79.5 Z"/></g>
<g><path style="opacity:0.008" fill="#827700" d="M 43.5,85.5 C 44.8333,86.1667 44.8333,86.1667 43.5,85.5 Z"/></g>
<g><path style="opacity:0.004" fill="#393200" d="M 38.5,92.5 C 39.8333,93.1667 39.8333,93.1667 38.5,92.5 Z"/></g>
<g><path style="opacity:0.024" fill="#f1a400" d="M 261.5,104.5 C 262.833,105.167 262.833,105.167 261.5,104.5 Z"/></g>
<g><path style="opacity:0.004" fill="#393200" d="M 29.5,108.5 C 30.8333,109.167 30.8333,109.167 29.5,108.5 Z"/></g>
<g><path style="opacity:0.004" fill="#393200" d="M 264.5,110.5 C 265.833,111.167 265.833,111.167 264.5,110.5 Z"/></g>
<g><path style="opacity:0.004" fill="#393200" d="M 266.5,115.5 C 267.833,116.167 267.833,116.167 266.5,115.5 Z"/></g>
<g><path style="opacity:0.004" fill="#393200" d="M 268.5,121.5 C 269.833,122.167 269.833,122.167 268.5,121.5 Z"/></g>
<g><path style="opacity:0.024" fill="#f1a400" d="M 22.5,123.5 C 23.8333,124.167 23.8333,124.167 22.5,123.5 Z"/></g>
<g><path style="opacity:0.008" fill="#827700" d="M 269.5,123.5 C 270.833,124.167 270.833,124.167 269.5,123.5 Z"/></g>
<g><path style="opacity:0.004" fill="#393200" d="M 19.5,129.5 C 20.8333,130.167 20.8333,130.167 19.5,129.5 Z"/></g>
<g><path style="opacity:0.004" fill="#393200" d="M 17.5,134.5 C 18.8333,135.167 18.8333,135.167 17.5,134.5 Z"/></g>
<g><path style="opacity:0.004" fill="#393200" d="M 273.5,134.5 C 274.525,134.897 274.692,135.563 274,136.5C 273.536,135.906 273.369,135.239 273.5,134.5 Z"/></g>
<g><path style="opacity:0.008" fill="#827700" d="M 15.5,140.5 C 16.8333,141.167 16.8333,141.167 15.5,140.5 Z"/></g>
<g><path style="opacity:0.008" fill="#827700" d="M 14.5,142.5 C 15.8333,143.167 15.8333,143.167 14.5,142.5 Z"/></g>
<g><path style="opacity:0.024" fill="#cc9500" d="M 275.5,141.5 C 276.525,141.897 276.692,142.563 276,143.5C 275.536,142.906 275.369,142.239 275.5,141.5 Z"/></g>
<g><path style="opacity:0.004" fill="#393200" d="M 276.5,144.5 C 277.833,145.167 277.833,145.167 276.5,144.5 Z"/></g>
<g><path style="opacity:0.008" fill="#695e02" d="M 12.5,148.5 C 13.525,148.897 13.6917,149.563 13,150.5C 12.5357,149.906 12.369,149.239 12.5,148.5 Z"/></g>
<g><path style="opacity:0.008" fill="#695e02" d="M 278.5,152.5 C 279.525,152.897 279.692,153.563 279,154.5C 278.536,153.906 278.369,153.239 278.5,152.5 Z"/></g>
<g><path style="opacity:0.004" fill="#393200" d="M 12.5,162.5 C 13.8333,163.167 13.8333,163.167 12.5,162.5 Z"/></g>
<g><path style="opacity:0.008" fill="#827700" d="M 280.5,162.5 C 281.525,162.897 281.692,163.563 281,164.5C 280.536,163.906 280.369,163.239 280.5,162.5 Z"/></g>
<g><path style="opacity:0.008" fill="#9e8200" d="M 282.5,174.5 C 283.573,175.251 283.74,176.251 283,177.5C 282.517,176.552 282.351,175.552 282.5,174.5 Z"/></g>
<g><path style="opacity:0.008" fill="#645a02" d="M 283.5,178.5 C 284.598,179.601 284.765,180.934 284,182.5C 283.51,181.207 283.343,179.873 283.5,178.5 Z"/></g>
<g><path style="opacity:0.004" fill="#393200" d="M 32.5,185.5 C 32.8966,184.475 33.5632,184.308 34.5,185C 33.9056,185.464 33.2389,185.631 32.5,185.5 Z"/></g>
<g><path style="opacity:0.008" fill="#827700" d="M 34.5,187.5 C 33.8333,188.167 33.8333,188.167 34.5,187.5 Z"/></g>
<g><path style="opacity:0.004" fill="#393200" d="M 284.5,200.5 C 285.833,201.167 285.833,201.167 284.5,200.5 Z"/></g>
<g><path style="opacity:0.004" fill="#393200" d="M 33.5,204.5 C 34.525,204.897 34.6917,205.563 34,206.5C 33.5357,205.906 33.369,205.239 33.5,204.5 Z"/></g>
<g><path style="opacity:0.008" fill="#827700" d="M 283.5,204.5 C 284.525,204.897 284.692,205.563 284,206.5C 283.536,205.906 283.369,205.239 283.5,204.5 Z"/></g>
<g><path style="opacity:0.004" fill="#393200" d="M 36.5,210.5 C 37.8333,211.167 37.8333,211.167 36.5,210.5 Z"/></g>
<g><path style="opacity:0.024" fill="#f1a400" d="M 43.5,219.5 C 44.8333,220.167 44.8333,220.167 43.5,219.5 Z"/></g>
<g><path style="opacity:0.008" fill="#827700" d="M 50.5,226.5 C 51.8333,227.167 51.8333,227.167 50.5,226.5 Z"/></g>
<g><path style="opacity:0.008" fill="#827700" d="M 269.5,226.5 C 270.833,227.167 270.833,227.167 269.5,226.5 Z"/></g>
<g><path style="opacity:0.008" fill="#827700" d="M 269.5,227.5 C 268.833,228.167 268.833,228.167 269.5,227.5 Z"/></g>
<g><path style="opacity:0.004" fill="#393200" d="M 262.5,233.5 C 263.833,234.167 263.833,234.167 262.5,233.5 Z"/></g>
<g><path style="opacity:0.004" fill="#393200" d="M 79.5,247.5 C 80.8333,248.167 80.8333,248.167 79.5,247.5 Z"/></g>
<g><path style="opacity:0.004" fill="#393200" d="M 240.5,248.5 C 241.833,249.167 241.833,249.167 240.5,248.5 Z"/></g>
<g><path style="opacity:0.004" fill="#393200" d="M 84.5,250.5 C 85.8333,251.167 85.8333,251.167 84.5,250.5 Z"/></g>
<g><path style="opacity:0.004" fill="#393200" d="M 94.5,254.5 C 95.8333,255.167 95.8333,255.167 94.5,254.5 Z"/></g>
<g><path style="opacity:0.024" fill="#f1a400" d="M 226.5,254.5 C 227.833,255.167 227.833,255.167 226.5,254.5 Z"/></g>
<g><path style="opacity:0.004" fill="#393200" d="M 224.5,255.5 C 225.833,256.167 225.833,256.167 224.5,255.5 Z"/></g>
<g><path style="opacity:0.004" fill="#393200" d="M 106.5,260.5 C 106.897,259.475 107.563,259.308 108.5,260C 107.906,260.464 107.239,260.631 106.5,260.5 Z"/></g>
<g><path style="opacity:0.004" fill="#393200" d="M 211.5,260.5 C 211.897,259.475 212.563,259.308 213.5,260C 212.906,260.464 212.239,260.631 211.5,260.5 Z"/></g>
<g><path style="opacity:0.024" fill="#b98d00" d="M 113.5,262.5 C 114.251,261.427 115.251,261.26 116.5,262C 115.552,262.483 114.552,262.649 113.5,262.5 Z"/></g>
<g><path style="opacity:0.008" fill="#9e8200" d="M 202.5,262.5 C 203.251,261.427 204.251,261.26 205.5,262C 204.552,262.483 203.552,262.649 202.5,262.5 Z"/></g>
<g><path style="opacity:0.004" fill="#393200" d="M 117.5,262.5 C 118.833,263.167 118.833,263.167 117.5,262.5 Z"/></g>
<g><path style="opacity:0.004" fill="#393200" d="M 200.5,262.5 C 201.833,263.167 201.833,263.167 200.5,262.5 Z"/></g>
<g><path style="opacity:0.008" fill="#6f6401" d="M 126.5,265.5 C 127.251,264.427 128.251,264.26 129.5,265C 128.552,265.483 127.552,265.649 126.5,265.5 Z"/></g>
<g><path style="opacity:0.004" fill="#494002" d="M 186.5,265.5 C 187.601,264.402 188.934,264.235 190.5,265C 189.207,265.49 187.873,265.657 186.5,265.5 Z"/></g>
<g><path style="opacity:0.008" fill="#706501" d="M 145.5,267.5 C 152.655,266.345 159.988,266.178 167.5,267C 160.174,267.5 152.841,267.666 145.5,267.5 Z"/></g>
</svg>
