<?xml version="1.0" encoding="UTF-8"?>
<!DOCTYPE svg PUBLIC "-//W3C//DTD SVG 1.1//EN" "http://www.w3.org/Graphics/SVG/1.1/DTD/svg11.dtd">
<svg xmlns="http://www.w3.org/2000/svg" version="1.1" width="258px" height="250px" style="shape-rendering:geometricPrecision; text-rendering:geometricPrecision; image-rendering:optimizeQuality; fill-rule:evenodd; clip-rule:evenodd" xmlns:xlink="http://www.w3.org/1999/xlink">
<g><path style="opacity:1" fill="#fefefe" d="M -0.5,-0.5 C 85.5,-0.5 171.5,-0.5 257.5,-0.5C 257.5,82.8333 257.5,166.167 257.5,249.5C 171.5,249.5 85.5,249.5 -0.5,249.5C -0.5,166.167 -0.5,82.8333 -0.5,-0.5 Z"/></g>
<g><path style="opacity:1" fill="#0268fc" d="M 111.5,11.5 C 112.167,11.5 112.833,11.5 113.5,11.5C 120.143,12.2125 126.809,12.5458 133.5,12.5C 133.5,13.5 133.5,14.5 133.5,15.5C 135.924,15.1924 138.257,15.5258 140.5,16.5C 139.833,16.8333 139.167,17.1667 138.5,17.5C 139,17.8333 139.5,18.1667 140,18.5C 143.012,18.3761 146.179,18.2094 149.5,18C 150.354,16.9783 151.354,16.1449 152.5,15.5C 153.831,16.1662 155.331,16.1662 157,15.5C 157.833,15.8333 158.667,16.1667 159.5,16.5C 157.345,17.4104 155.345,18.5771 153.5,20C 156.326,20.0287 158.993,20.1954 161.5,20.5C 161.631,21.2389 161.464,21.9056 161,22.5C 150.847,20.7726 140.347,19.7726 129.5,19.5C 125.833,19.6667 122.167,19.8333 118.5,20C 117.944,20.3826 117.611,20.8826 117.5,21.5C 116.167,21.5 114.833,21.5 113.5,21.5C 110.411,20.5717 107.245,19.5717 104,18.5C 101.276,19.8916 98.4429,21.0583 95.5,22C 96.6721,22.4186 97.6721,23.0853 98.5,24C 96.1755,24.4922 94.8421,23.4922 94.5,21C 94.7549,19.6739 95.4216,18.6739 96.5,18C 92.871,17.0426 93.2043,16.2092 97.5,15.5C 98.1667,15.6667 98.8333,15.8333 99.5,16C 96.9722,16.9978 96.9722,17.8311 99.5,18.5C 102.044,17.408 104.711,16.7414 107.5,16.5C 116.094,18.4759 124.761,18.8093 133.5,17.5C 133.192,16.6919 132.692,16.0253 132,15.5C 125.414,16.8964 118.914,16.3964 112.5,14C 111.748,13.3292 111.414,12.4959 111.5,11.5 Z"/></g>
<g><path style="opacity:1" fill="#156be9" d="M 161.5,20.5 C 162.434,21.5676 162.768,22.901 162.5,24.5C 165.247,24.1866 167.914,24.52 170.5,25.5C 168.922,26.2978 167.256,26.7978 165.5,27C 169.234,26.9116 172.234,28.245 174.5,31C 176.811,30.8446 179.144,30.8446 181.5,31C 180.672,31.9147 179.672,32.5814 178.5,33C 179.056,33.3826 179.389,33.8826 179.5,34.5C 160.158,24.167 139.491,19.8337 117.5,21.5C 117.611,20.8826 117.944,20.3826 118.5,20C 122.167,19.8333 125.833,19.6667 129.5,19.5C 140.347,19.7726 150.847,20.7726 161,22.5C 161.464,21.9056 161.631,21.2389 161.5,20.5 Z"/></g>
<g><path style="opacity:1" fill="#fcfdfe" d="M 113.5,21.5 C 114.833,21.5 116.167,21.5 117.5,21.5C 139.491,19.8337 160.158,24.167 179.5,34.5C 200.635,47.8104 215.802,66.1437 225,89.5C 225.667,91.5 225.667,93.5 225,95.5C 219.657,99.0893 213.823,101.423 207.5,102.5C 206.833,101.833 206.167,101.167 205.5,100.5C 204.416,97.9959 203.083,95.6626 201.5,93.5C 196.863,84.2286 191.696,75.2286 186,66.5C 180.505,60.8244 174.338,56.1577 167.5,52.5C 161.131,48.5413 154.131,46.0413 146.5,45C 134.167,44.3333 121.833,44.3333 109.5,45C 95.6362,46.7672 83.9695,52.6005 74.5,62.5C 70.8784,65.7216 67.7118,69.3882 65,73.5C 59.8705,82.7612 55.0372,92.0945 50.5,101.5C 46.494,108.538 44.8273,116.205 45.5,124.5C 44.9348,132.768 46.6015,140.434 50.5,147.5C 56.0586,160.291 62.8919,172.291 71,183.5C 77.0896,190.121 84.2562,195.121 92.5,198.5C 97.3529,201.338 102.686,203.005 108.5,203.5C 122.856,204.94 137.189,204.774 151.5,203C 157.078,201.871 162.078,199.704 166.5,196.5C 167.167,196.5 167.833,196.5 168.5,196.5C 179.791,190.262 188.124,181.262 193.5,169.5C 197.005,164.494 200.005,159.16 202.5,153.5C 204.071,151.365 205.404,149.032 206.5,146.5C 206.833,146.5 207.167,146.5 207.5,146.5C 208.167,146.5 208.833,146.5 209.5,146.5C 215.966,147.733 221.633,150.566 226.5,155C 213.5,191.168 188.5,214.335 151.5,224.5C 145.39,225.636 139.39,226.636 133.5,227.5C 127.491,227.666 121.491,227.499 115.5,227C 110.24,225.634 104.907,224.801 99.5,224.5C 97.7857,223.262 95.7857,222.595 93.5,222.5C 45.5872,201.712 22.7538,165.045 25,112.5C 33.7717,61.8962 63.2717,31.5629 113.5,21.5 Z"/></g>
<g><path style="opacity:1" fill="#0f6af3" d="M 113.5,11.5 C 159.156,6.66301 195.156,22.9963 221.5,60.5C 221.995,62.4817 222.495,64.4817 223,66.5C 223.654,65.3044 224.154,65.3044 224.5,66.5C 223.833,68.1667 223.167,69.8333 222.5,71.5C 224.5,72.5 226.5,73.5 228.5,74.5C 229.76,76.3529 229.76,78.1862 228.5,80C 229.289,83.0969 230.456,83.2636 232,80.5C 233.212,84.1182 234.712,87.4515 236.5,90.5C 238.684,97.6362 236.351,102.803 229.5,106C 225.624,108.105 221.624,109.938 217.5,111.5C 214.833,111.5 212.167,111.5 209.5,111.5C 209.405,109.214 208.738,107.214 207.5,105.5C 207.5,105.167 207.5,104.833 207.5,104.5C 207.5,104.167 207.5,103.833 207.5,103.5C 207.5,103.167 207.5,102.833 207.5,102.5C 213.823,101.423 219.657,99.0893 225,95.5C 225.667,93.5 225.667,91.5 225,89.5C 215.802,66.1437 200.635,47.8104 179.5,34.5C 179.389,33.8826 179.056,33.3826 178.5,33C 179.672,32.5814 180.672,31.9147 181.5,31C 179.144,30.8446 176.811,30.8446 174.5,31C 172.234,28.245 169.234,26.9116 165.5,27C 167.256,26.7978 168.922,26.2978 170.5,25.5C 167.914,24.52 165.247,24.1866 162.5,24.5C 162.768,22.901 162.434,21.5676 161.5,20.5C 158.993,20.1954 156.326,20.0287 153.5,20C 155.345,18.5771 157.345,17.4104 159.5,16.5C 158.667,16.1667 157.833,15.8333 157,15.5C 155.331,16.1662 153.831,16.1662 152.5,15.5C 151.354,16.1449 150.354,16.9783 149.5,18C 146.179,18.2094 143.012,18.3761 140,18.5C 139.5,18.1667 139,17.8333 138.5,17.5C 139.167,17.1667 139.833,16.8333 140.5,16.5C 138.257,15.5258 135.924,15.1924 133.5,15.5C 133.5,14.5 133.5,13.5 133.5,12.5C 126.809,12.5458 120.143,12.2125 113.5,11.5 Z"/></g>
<g><path style="opacity:1" fill="#1b6ded" d="M 167.5,52.5 C 165.856,52.2865 164.356,52.6198 163,53.5C 161.601,52.7734 160.101,52.2734 158.5,52C 160.645,51.2569 160.811,50.4235 159,49.5C 156.073,50.9144 153.239,50.7478 150.5,49C 151.833,48.6667 153.167,48.3333 154.5,48C 148.474,46.5726 142.474,46.0726 136.5,46.5C 136.657,47.8734 136.49,49.2068 136,50.5C 135.667,49.8333 135.333,49.1667 135,48.5C 133.333,51.1667 131.667,51.1667 130,48.5C 129.333,51.1667 128.667,51.1667 128,48.5C 127.333,51.1667 126.667,51.1667 126,48.5C 125.333,51.1667 124.667,51.1667 124,48.5C 123.333,51.1667 122.667,51.1667 122,48.5C 121.333,51.1667 120.667,51.1667 120,48.5C 119.252,50.3325 118.252,51.9991 117,53.5C 101.688,51.9484 101.855,50.7817 117.5,50C 113.517,47.5645 109.184,46.8978 104.5,48C 106.167,48.3333 107.833,48.6667 109.5,49C 103.479,49.4041 97.646,50.5708 92,52.5C 91.6667,52.1667 91.3333,51.8333 91,51.5C 90.5065,53.1341 90.3398,54.8008 90.5,56.5C 87.7884,56.7375 85.2884,56.7375 83,56.5C 82.8119,58.0613 83.6453,58.728 85.5,58.5C 85.5,59.8333 85.5,61.1667 85.5,62.5C 84.1667,62.5 82.8333,62.5 81.5,62.5C 81.5,61.5 81.5,60.5 81.5,59.5C 79.0052,60.1989 76.6719,61.1989 74.5,62.5C 83.9695,52.6005 95.6362,46.7672 109.5,45C 121.833,44.3333 134.167,44.3333 146.5,45C 154.131,46.0413 161.131,48.5413 167.5,52.5 Z"/></g>
<g><path style="opacity:1" fill="#206de6" d="M 221.5,60.5 C 229.076,69.1139 234.076,79.1139 236.5,90.5C 234.712,87.4515 233.212,84.1182 232,80.5C 230.456,83.2636 229.289,83.0969 228.5,80C 229.76,78.1862 229.76,76.3529 228.5,74.5C 226.5,73.5 224.5,72.5 222.5,71.5C 223.167,69.8333 223.833,68.1667 224.5,66.5C 224.154,65.3044 223.654,65.3044 223,66.5C 222.495,64.4817 221.995,62.4817 221.5,60.5 Z"/></g>
<g><path style="opacity:1" fill="#19e3f9" d="M 155.5,82.5 C 157.027,82.427 158.027,83.0937 158.5,84.5C 156.744,85.5521 156.077,87.2188 156.5,89.5C 154.833,89.5 153.167,89.5 151.5,89.5C 151.5,90.5 151.5,91.5 151.5,92.5C 153.308,92.4914 154.975,92.9914 156.5,94C 159.325,97.8246 162.492,101.325 166,104.5C 167.726,103.424 169.559,103.257 171.5,104C 171.53,105.429 171.197,106.929 170.5,108.5C 164.898,105.229 159.898,101.229 155.5,96.5C 151.812,93.0001 147.479,90.5001 142.5,89C 133.833,88.3333 125.167,88.3333 116.5,89C 112.085,90.0428 108.085,91.8762 104.5,94.5C 104.539,93.4168 104.873,92.4168 105.5,91.5C 104.05,90.1502 103.383,88.4835 103.5,86.5C 106.596,85.9066 108.929,86.9066 110.5,89.5C 113.305,87.737 116.138,86.0704 119,84.5C 121.947,84.9089 124.614,85.9089 127,87.5C 127.667,84.8333 128.333,84.8333 129,87.5C 129.667,84.8333 130.333,84.8333 131,87.5C 131.333,86.8333 131.667,86.1667 132,85.5C 137.199,86.1399 142.366,87.1399 147.5,88.5C 150.718,87.0295 153.385,85.0295 155.5,82.5 Z"/></g>
<g><path style="opacity:1" fill="#016afc" d="M 155.5,96.5 C 159.898,101.229 164.898,105.229 170.5,108.5C 171.514,109.674 172.847,110.34 174.5,110.5C 174.389,111.117 174.056,111.617 173.5,112C 174.912,113.306 176.579,114.14 178.5,114.5C 186.064,115.395 193.564,116.395 201,117.5C 203.63,117.141 205.797,116.141 207.5,114.5C 208.167,114.5 208.833,114.5 209.5,114.5C 209.232,116.099 209.566,117.432 210.5,118.5C 210.5,122.167 210.5,125.833 210.5,129.5C 209.549,130.919 209.216,132.585 209.5,134.5C 197.052,132.438 185.052,133.771 173.5,138.5C 169.605,139.085 165.938,140.419 162.5,142.5C 161.438,144.022 160.771,145.688 160.5,147.5C 157.616,150.308 154.616,153.141 151.5,156C 149.257,157.136 146.924,157.97 144.5,158.5C 135.528,159.347 126.528,159.68 117.5,159.5C 116.167,159.5 114.833,159.5 113.5,159.5C 108.742,157.46 104.742,154.46 101.5,150.5C 100.167,147.833 98.8333,145.167 97.5,142.5C 96.4015,131.534 96.2348,120.534 97,109.5C 97.7096,108.027 98.8762,107.36 100.5,107.5C 100.368,104.43 100.701,101.43 101.5,98.5C 104.814,95.839 108.481,93.6723 112.5,92C 121.688,89.6362 131.021,88.9696 140.5,90C 145.391,92.3842 150.391,94.5508 155.5,96.5 Z"/></g>
<g><path style="opacity:1" fill="#0ee7f1" d="M 158.5,84.5 C 163.445,87.4453 168.112,90.7786 172.5,94.5C 173.672,96.539 175.338,97.8724 177.5,98.5C 178.64,99.8014 179.973,100.968 181.5,102C 185.558,101.833 188.891,103.166 191.5,106C 188.629,106.078 185.795,105.578 183,104.5C 181.225,105.27 179.725,106.437 178.5,108C 175.854,108.497 173.187,108.664 170.5,108.5C 171.197,106.929 171.53,105.429 171.5,104C 169.559,103.257 167.726,103.424 166,104.5C 162.492,101.325 159.325,97.8246 156.5,94C 154.975,92.9914 153.308,92.4914 151.5,92.5C 151.5,91.5 151.5,90.5 151.5,89.5C 153.167,89.5 154.833,89.5 156.5,89.5C 156.077,87.2188 156.744,85.5521 158.5,84.5 Z"/></g>
<g><path style="opacity:1" fill="#0d6fe8" d="M 201.5,93.5 C 203.083,95.6626 204.416,97.9959 205.5,100.5C 205.389,101.117 205.056,101.617 204.5,102C 200.179,102.499 195.846,102.666 191.5,102.5C 186.763,101.378 182.096,100.045 177.5,98.5C 175.338,97.8724 173.672,96.539 172.5,94.5C 177.032,94.5971 181.366,95.5971 185.5,97.5C 184.624,98.2508 183.624,98.7508 182.5,99C 186.71,99.1869 190.71,100.02 194.5,101.5C 197.574,101.55 199.741,100.217 201,97.5C 201.333,97.8333 201.667,98.1667 202,98.5C 201.981,96.8925 201.815,95.2259 201.5,93.5 Z"/></g>
<g><path style="opacity:1" fill="#18baf7" d="M 205.5,100.5 C 206.167,101.167 206.833,101.833 207.5,102.5C 207.5,102.833 207.5,103.167 207.5,103.5C 201.974,103.821 196.64,103.488 191.5,102.5C 195.846,102.666 200.179,102.499 204.5,102C 205.056,101.617 205.389,101.117 205.5,100.5 Z"/></g>
<g><path style="opacity:1" fill="#17e0f7" d="M 177.5,98.5 C 182.096,100.045 186.763,101.378 191.5,102.5C 196.64,103.488 201.974,103.821 207.5,103.5C 207.5,103.833 207.5,104.167 207.5,104.5C 205.516,104.383 203.85,105.05 202.5,106.5C 200.383,105.468 198.217,105.468 196,106.5C 194,107.833 192,109.167 190,110.5C 187.177,110.052 184.677,109.052 182.5,107.5C 181.614,108.325 181.281,109.325 181.5,110.5C 183.201,110.966 184.701,110.966 186,110.5C 187.102,111.949 188.269,113.282 189.5,114.5C 184.273,113.944 179.273,112.61 174.5,110.5C 172.847,110.34 171.514,109.674 170.5,108.5C 173.187,108.664 175.854,108.497 178.5,108C 179.725,106.437 181.225,105.27 183,104.5C 185.795,105.578 188.629,106.078 191.5,106C 188.891,103.166 185.558,101.833 181.5,102C 179.973,100.968 178.64,99.8014 177.5,98.5 Z"/></g>
<g><path style="opacity:1" fill="#0ce9ec" d="M 207.5,104.5 C 207.5,104.833 207.5,105.167 207.5,105.5C 206.485,106.46 206.485,107.627 207.5,109C 205.256,113.045 202.423,113.545 199,110.5C 197.775,110.862 196.609,111.362 195.5,112C 196.167,112.333 196.833,112.667 197.5,113C 195.292,113.191 193.292,113.691 191.5,114.5C 190.833,114.5 190.167,114.5 189.5,114.5C 188.269,113.282 187.102,111.949 186,110.5C 184.701,110.966 183.201,110.966 181.5,110.5C 181.281,109.325 181.614,108.325 182.5,107.5C 184.677,109.052 187.177,110.052 190,110.5C 192,109.167 194,107.833 196,106.5C 198.217,105.468 200.383,105.468 202.5,106.5C 203.85,105.05 205.516,104.383 207.5,104.5 Z"/></g>
<g><path style="opacity:1" fill="#5687d2" d="M 209.5,111.5 C 212.167,111.5 214.833,111.5 217.5,111.5C 215.401,112.612 213.067,113.279 210.5,113.5C 210.5,115.167 210.5,116.833 210.5,118.5C 209.566,117.432 209.232,116.099 209.5,114.5C 209.5,113.5 209.5,112.5 209.5,111.5 Z"/></g>
<g><path style="opacity:1" fill="#1ce1f8" d="M 207.5,105.5 C 208.738,107.214 209.405,109.214 209.5,111.5C 209.5,112.5 209.5,113.5 209.5,114.5C 208.833,114.5 208.167,114.5 207.5,114.5C 202.015,115.636 196.681,115.636 191.5,114.5C 193.292,113.691 195.292,113.191 197.5,113C 196.833,112.667 196.167,112.333 195.5,112C 196.609,111.362 197.775,110.862 199,110.5C 202.423,113.545 205.256,113.045 207.5,109C 206.485,107.627 206.485,106.46 207.5,105.5 Z"/></g>
<g><path style="opacity:1" fill="#076edb" d="M 174.5,110.5 C 179.273,112.61 184.273,113.944 189.5,114.5C 190.167,114.5 190.833,114.5 191.5,114.5C 196.681,115.636 202.015,115.636 207.5,114.5C 205.797,116.141 203.63,117.141 201,117.5C 193.564,116.395 186.064,115.395 178.5,114.5C 176.579,114.14 174.912,113.306 173.5,112C 174.056,111.617 174.389,111.117 174.5,110.5 Z"/></g>
<g><path style="opacity:1" fill="#1bddfc" d="M 97.5,104.5 C 94.2856,116.291 93.6189,128.291 95.5,140.5C 96.8438,143.374 98.0105,146.374 99,149.5C 99.6708,150.252 100.504,150.586 101.5,150.5C 104.742,154.46 108.742,157.46 113.5,159.5C 110.568,159.284 107.902,159.951 105.5,161.5C 104.833,161.167 104.167,160.833 103.5,160.5C 104.263,159.281 105.263,158.281 106.5,157.5C 104.5,156.167 102.5,154.833 100.5,153.5C 99.5723,155.335 98.4056,155.668 97,154.5C 96.6053,152.821 96.772,151.155 97.5,149.5C 94.8159,144.96 93.3159,139.96 93,134.5C 92.0803,124.397 92.5803,114.397 94.5,104.5C 95.5,104.5 96.5,104.5 97.5,104.5 Z"/></g>
<g><path style="opacity:1" fill="#0472e4" d="M 101.5,98.5 C 100.701,101.43 100.368,104.43 100.5,107.5C 98.8762,107.36 97.7096,108.027 97,109.5C 96.2348,120.534 96.4015,131.534 97.5,142.5C 96.8333,141.833 96.1667,141.167 95.5,140.5C 93.6189,128.291 94.2856,116.291 97.5,104.5C 97.8449,101.802 99.1782,99.8021 101.5,98.5 Z"/></g>
<g><path style="opacity:1" fill="#186dee" d="M 50.5,101.5 C 50.085,104.368 51.085,106.535 53.5,108C 52.2986,108.903 51.4652,110.069 51,111.5C 50.3333,110.167 49.6667,108.833 49,107.5C 48.7479,109.931 49.2479,112.265 50.5,114.5C 48.9686,115.613 47.9686,117.113 47.5,119C 47.6667,119.833 47.8333,120.667 48,121.5C 48.7412,120.359 49.5745,120.359 50.5,121.5C 51.8333,123.5 51.8333,125.5 50.5,127.5C 49.5745,128.641 48.7412,128.641 48,127.5C 47.3179,129.938 47.8179,132.105 49.5,134C 48.2871,136.641 49.2871,137.808 52.5,137.5C 52.2122,140.939 51.5456,144.272 50.5,147.5C 46.6015,140.434 44.9348,132.768 45.5,124.5C 44.8273,116.205 46.494,108.538 50.5,101.5 Z"/></g>
<g><path style="opacity:1" fill="#176be5" d="M 211.5,135.5 C 215.357,136.175 219.023,137.342 222.5,139C 223.056,139.383 223.389,139.883 223.5,140.5C 222.85,140.804 222.183,141.137 221.5,141.5C 220.304,141.154 220.304,140.654 221.5,140C 218.239,139.293 215.572,140.293 213.5,143C 212.207,143.49 210.873,143.657 209.5,143.5C 209.5,144.5 209.5,145.5 209.5,146.5C 208.833,146.5 208.167,146.5 207.5,146.5C 207.5,146.167 207.5,145.833 207.5,145.5C 208.428,142.546 209.261,139.546 210,136.5C 210.383,135.944 210.883,135.611 211.5,135.5 Z"/></g>
<g><path style="opacity:1" fill="#1cdafb" d="M 91.5,91.5 C 91.067,94.1656 90.567,96.8323 90,99.5C 89.3333,100.833 88.6667,100.833 88,99.5C 86.4219,102.657 85.4219,105.991 85,109.5C 84.3333,119.5 84.3333,129.5 85,139.5C 86.2778,148.734 90.6112,156.068 98,161.5C 98.4828,162.448 98.6495,163.448 98.5,164.5C 100.179,164.285 101.179,164.952 101.5,166.5C 92.2326,161 86.0659,153 83,142.5C 80.6397,128.345 81.1397,114.345 84.5,100.5C 86.5917,97.319 88.925,94.319 91.5,91.5 Z"/></g>
<g><path style="opacity:1" fill="#036df3" d="M 84.5,100.5 C 81.1397,114.345 80.6397,128.345 83,142.5C 86.0659,153 92.2326,161 101.5,166.5C 102.306,167.728 103.306,168.728 104.5,169.5C 99.1375,170.237 95.3042,168.237 93,163.5C 91.1862,164.76 89.3529,164.76 87.5,163.5C 85.5259,160.234 84.5259,156.9 84.5,153.5C 83.3689,154.751 82.0356,155.751 80.5,156.5C 77.3582,154.881 74.0248,154.215 70.5,154.5C 70.3367,152.143 70.5034,149.81 71,147.5C 73,148.833 75,148.833 77,147.5C 78.5067,148.505 79.6733,149.838 80.5,151.5C 81.086,151.291 81.586,150.957 82,150.5C 80.4846,135.933 80.1513,121.266 81,106.5C 81.353,103.848 82.5197,101.848 84.5,100.5 Z"/></g>
<g><path style="opacity:1" fill="#1dcbfa" d="M 207.5,145.5 C 207.5,145.833 207.5,146.167 207.5,146.5C 207.167,146.5 206.833,146.5 206.5,146.5C 196.489,145.807 186.823,147.141 177.5,150.5C 177.756,148.224 179.09,147.057 181.5,147C 190.13,145.855 198.797,145.355 207.5,145.5 Z"/></g>
<g><path style="opacity:1" fill="#0c71ef" d="M 206.5,146.5 C 205.404,149.032 204.071,151.365 202.5,153.5C 202.649,152.448 202.483,151.448 202,150.5C 201.667,150.833 201.333,151.167 201,151.5C 200.002,149.079 198.168,147.745 195.5,147.5C 192.658,148.815 189.658,149.815 186.5,150.5C 185.102,152.798 183.269,153.464 181,152.5C 174.827,154.003 169.66,157.17 165.5,162C 164.552,162.483 163.552,162.649 162.5,162.5C 167.423,158.231 172.423,154.231 177.5,150.5C 186.823,147.141 196.489,145.807 206.5,146.5 Z"/></g>
<g><path style="opacity:1" fill="#10e6f1" d="M 142.5,76.5 C 144.167,76.5 145.833,76.5 147.5,76.5C 150.382,78.0258 153.048,80.0258 155.5,82.5C 153.385,85.0295 150.718,87.0295 147.5,88.5C 142.366,87.1399 137.199,86.1399 132,85.5C 131.667,86.1667 131.333,86.8333 131,87.5C 130.333,84.8333 129.667,84.8333 129,87.5C 128.333,84.8333 127.667,84.8333 127,87.5C 124.614,85.9089 121.947,84.9089 119,84.5C 116.138,86.0704 113.305,87.737 110.5,89.5C 108.929,86.9066 106.596,85.9066 103.5,86.5C 103.383,88.4835 104.05,90.1502 105.5,91.5C 104.873,92.4168 104.539,93.4168 104.5,94.5C 103.5,95.8333 102.5,97.1667 101.5,98.5C 99.1782,99.8021 97.8449,101.802 97.5,104.5C 96.5,104.5 95.5,104.5 94.5,104.5C 92.5803,114.397 92.0803,124.397 93,134.5C 93.3159,139.96 94.8159,144.96 97.5,149.5C 96.772,151.155 96.6053,152.821 97,154.5C 98.4056,155.668 99.5723,155.335 100.5,153.5C 102.5,154.833 104.5,156.167 106.5,157.5C 105.263,158.281 104.263,159.281 103.5,160.5C 104.167,160.833 104.833,161.167 105.5,161.5C 107.902,159.951 110.568,159.284 113.5,159.5C 114.833,159.5 116.167,159.5 117.5,159.5C 125.323,160.656 133.323,160.823 141.5,160C 142.737,159.768 143.737,159.268 144.5,158.5C 146.924,157.97 149.257,157.136 151.5,156C 154.616,153.141 157.616,150.308 160.5,147.5C 164.564,144.014 168.898,141.014 173.5,138.5C 185.052,133.771 197.052,132.438 209.5,134.5C 209.216,132.585 209.549,130.919 210.5,129.5C 210.325,131.621 210.659,133.621 211.5,135.5C 210.883,135.611 210.383,135.944 210,136.5C 209.261,139.546 208.428,142.546 207.5,145.5C 198.797,145.355 190.13,145.855 181.5,147C 179.09,147.057 177.756,148.224 177.5,150.5C 172.423,154.231 167.423,158.231 162.5,162.5C 162.5,162.833 162.5,163.167 162.5,163.5C 157.895,165.471 153.562,167.971 149.5,171C 146.746,171.272 144.079,171.772 141.5,172.5C 130.395,172.984 119.395,172.317 108.5,170.5C 107.167,170.167 105.833,169.833 104.5,169.5C 103.306,168.728 102.306,167.728 101.5,166.5C 101.179,164.952 100.179,164.285 98.5,164.5C 98.6495,163.448 98.4828,162.448 98,161.5C 90.6112,156.068 86.2778,148.734 85,139.5C 84.3333,129.5 84.3333,119.5 85,109.5C 85.4219,105.991 86.4219,102.657 88,99.5C 88.6667,100.833 89.3333,100.833 90,99.5C 90.567,96.8323 91.067,94.1656 91.5,91.5C 91.5,91.1667 91.5,90.8333 91.5,90.5C 93.9374,86.7308 97.2708,84.0642 101.5,82.5C 105.858,82.0915 109.525,80.4249 112.5,77.5C 122.461,76.5756 132.461,76.2423 142.5,76.5 Z"/></g>
<g><path style="opacity:1" fill="#119dee" d="M 95.5,140.5 C 96.1667,141.167 96.8333,141.833 97.5,142.5C 98.8333,145.167 100.167,147.833 101.5,150.5C 100.504,150.586 99.6708,150.252 99,149.5C 98.0105,146.374 96.8438,143.374 95.5,140.5 Z"/></g>
<g><path style="opacity:1" fill="#0876ea" d="M 173.5,138.5 C 168.898,141.014 164.564,144.014 160.5,147.5C 160.771,145.688 161.438,144.022 162.5,142.5C 165.938,140.419 169.605,139.085 173.5,138.5 Z"/></g>
<g><path style="opacity:1" fill="#026afc" d="M 167.5,52.5 C 174.338,56.1577 180.505,60.8244 186,66.5C 191.696,75.2286 196.863,84.2286 201.5,93.5C 201.815,95.2259 201.981,96.8925 202,98.5C 201.667,98.1667 201.333,97.8333 201,97.5C 199.741,100.217 197.574,101.55 194.5,101.5C 190.71,100.02 186.71,99.1869 182.5,99C 183.624,98.7508 184.624,98.2508 185.5,97.5C 181.366,95.5971 177.032,94.5971 172.5,94.5C 171.524,93.1851 170.524,91.8518 169.5,90.5C 169.709,89.914 170.043,89.414 170.5,89C 168.483,88.3257 166.817,87.1591 165.5,85.5C 164.914,85.7093 164.414,86.0426 164,86.5C 163.688,83.6912 164.188,81.0245 165.5,78.5C 162.91,78.3962 160.577,79.0629 158.5,80.5C 156.431,80.2147 155.098,79.048 154.5,77C 152.19,76.5034 149.857,76.3367 147.5,76.5C 145.833,76.5 144.167,76.5 142.5,76.5C 133.343,75.3424 124.009,75.1757 114.5,76C 112.942,76.21 111.609,76.71 110.5,77.5C 108.626,78.2852 106.626,78.9518 104.5,79.5C 96.5645,78.9015 92.2311,82.5682 91.5,90.5C 91.5,90.8333 91.5,91.1667 91.5,91.5C 88.925,94.319 86.5917,97.319 84.5,100.5C 82.5197,101.848 81.353,103.848 81,106.5C 80.1513,121.266 80.4846,135.933 82,150.5C 81.586,150.957 81.086,151.291 80.5,151.5C 79.6733,149.838 78.5067,148.505 77,147.5C 75,148.833 73,148.833 71,147.5C 70.5034,149.81 70.3367,152.143 70.5,154.5C 74.0248,154.215 77.3582,154.881 80.5,156.5C 82.0356,155.751 83.3689,154.751 84.5,153.5C 84.5259,156.9 85.5259,160.234 87.5,163.5C 89.3529,164.76 91.1862,164.76 93,163.5C 95.3042,168.237 99.1375,170.237 104.5,169.5C 105.833,169.833 107.167,170.167 108.5,170.5C 110.148,171.927 112.148,172.76 114.5,173C 120.825,173.5 127.158,173.666 133.5,173.5C 134.793,174.158 136.293,174.492 138,174.5C 142,173.833 146,173.167 150,172.5C 153.248,172.94 156.415,173.607 159.5,174.5C 159.5,173.5 159.5,172.5 159.5,171.5C 155.673,171.56 155.006,170.393 157.5,168C 160.407,167.146 162.74,167.979 164.5,170.5C 165.386,169.675 165.719,168.675 165.5,167.5C 164.5,167.5 163.5,167.5 162.5,167.5C 162.5,166.167 162.5,164.833 162.5,163.5C 162.5,163.167 162.5,162.833 162.5,162.5C 163.552,162.649 164.552,162.483 165.5,162C 169.66,157.17 174.827,154.003 181,152.5C 183.269,153.464 185.102,152.798 186.5,150.5C 189.658,149.815 192.658,148.815 195.5,147.5C 198.168,147.745 200.002,149.079 201,151.5C 201.333,151.167 201.667,150.833 202,150.5C 202.483,151.448 202.649,152.448 202.5,153.5C 200.005,159.16 197.005,164.494 193.5,169.5C 192.057,168.665 191.057,167.332 190.5,165.5C 188.63,167.906 187.297,170.573 186.5,173.5C 185.315,174.853 183.981,176.02 182.5,177C 183.451,177.718 183.617,178.551 183,179.5C 179.19,182.638 175.023,184.805 170.5,186C 171.211,184.745 172.044,183.579 173,182.5C 173.667,183.833 174.333,183.833 175,182.5C 174.99,180.529 173.824,179.529 171.5,179.5C 169.392,179.86 167.392,180.527 165.5,181.5C 167.536,184.214 168.869,187.214 169.5,190.5C 168.178,190.67 167.011,190.337 166,189.5C 165.506,191.134 165.34,192.801 165.5,194.5C 167.179,194.285 168.179,194.952 168.5,196.5C 167.833,196.5 167.167,196.5 166.5,196.5C 164.801,196.34 163.134,196.506 161.5,197C 160.541,198.464 159.208,199.297 157.5,199.5C 154.341,198.23 151.174,198.23 148,199.5C 145.849,199.227 143.849,198.561 142,197.5C 140.175,198.103 138.341,198.77 136.5,199.5C 138.5,200.333 140.5,201.167 142.5,202C 138.333,202.167 134.167,202.333 130,202.5C 125.411,202.464 121.077,201.798 117,200.5C 112.921,201.629 108.755,201.796 104.5,201C 105.833,200.667 107.167,200.333 108.5,200C 103.72,201.448 99.387,200.614 95.5,197.5C 94.5832,198.127 93.5832,198.461 92.5,198.5C 84.2562,195.121 77.0896,190.121 71,183.5C 62.8919,172.291 56.0586,160.291 50.5,147.5C 51.5456,144.272 52.2122,140.939 52.5,137.5C 49.2871,137.808 48.2871,136.641 49.5,134C 47.8179,132.105 47.3179,129.938 48,127.5C 48.7412,128.641 49.5745,128.641 50.5,127.5C 51.8333,125.5 51.8333,123.5 50.5,121.5C 49.5745,120.359 48.7412,120.359 48,121.5C 47.8333,120.667 47.6667,119.833 47.5,119C 47.9686,117.113 48.9686,115.613 50.5,114.5C 49.2479,112.265 48.7479,109.931 49,107.5C 49.6667,108.833 50.3333,110.167 51,111.5C 51.4652,110.069 52.2986,108.903 53.5,108C 51.085,106.535 50.085,104.368 50.5,101.5C 55.0372,92.0945 59.8705,82.7612 65,73.5C 67.7118,69.3882 70.8784,65.7216 74.5,62.5C 76.6719,61.1989 79.0052,60.1989 81.5,59.5C 81.5,60.5 81.5,61.5 81.5,62.5C 82.8333,62.5 84.1667,62.5 85.5,62.5C 85.5,61.1667 85.5,59.8333 85.5,58.5C 83.6453,58.728 82.8119,58.0613 83,56.5C 85.2884,56.7375 87.7884,56.7375 90.5,56.5C 90.3398,54.8008 90.5065,53.1341 91,51.5C 91.3333,51.8333 91.6667,52.1667 92,52.5C 97.646,50.5708 103.479,49.4041 109.5,49C 107.833,48.6667 106.167,48.3333 104.5,48C 109.184,46.8978 113.517,47.5645 117.5,50C 101.855,50.7817 101.688,51.9484 117,53.5C 118.252,51.9991 119.252,50.3325 120,48.5C 120.667,51.1667 121.333,51.1667 122,48.5C 122.667,51.1667 123.333,51.1667 124,48.5C 124.667,51.1667 125.333,51.1667 126,48.5C 126.667,51.1667 127.333,51.1667 128,48.5C 128.667,51.1667 129.333,51.1667 130,48.5C 131.667,51.1667 133.333,51.1667 135,48.5C 135.333,49.1667 135.667,49.8333 136,50.5C 136.49,49.2068 136.657,47.8734 136.5,46.5C 142.474,46.0726 148.474,46.5726 154.5,48C 153.167,48.3333 151.833,48.6667 150.5,49C 153.239,50.7478 156.073,50.9144 159,49.5C 160.811,50.4235 160.645,51.2569 158.5,52C 160.101,52.2734 161.601,52.7734 163,53.5C 164.356,52.6198 165.856,52.2865 167.5,52.5 Z"/></g>
<g><path style="opacity:1" fill="#0675ef" d="M 162.5,163.5 C 162.5,164.833 162.5,166.167 162.5,167.5C 163.5,167.5 164.5,167.5 165.5,167.5C 165.719,168.675 165.386,169.675 164.5,170.5C 162.74,167.979 160.407,167.146 157.5,168C 155.006,170.393 155.673,171.56 159.5,171.5C 159.5,172.5 159.5,173.5 159.5,174.5C 156.415,173.607 153.248,172.94 150,172.5C 146,173.167 142,173.833 138,174.5C 136.293,174.492 134.793,174.158 133.5,173.5C 136.385,173.806 139.052,173.473 141.5,172.5C 144.079,171.772 146.746,171.272 149.5,171C 153.562,167.971 157.895,165.471 162.5,163.5 Z"/></g>
<g><path style="opacity:1" fill="#0b98f6" d="M 108.5,170.5 C 119.395,172.317 130.395,172.984 141.5,172.5C 139.052,173.473 136.385,173.806 133.5,173.5C 127.158,173.666 120.825,173.5 114.5,173C 112.148,172.76 110.148,171.927 108.5,170.5 Z"/></g>
<g><path style="opacity:1" fill="#0465d5" d="M 144.5,158.5 C 143.737,159.268 142.737,159.768 141.5,160C 133.323,160.823 125.323,160.656 117.5,159.5C 126.528,159.68 135.528,159.347 144.5,158.5 Z"/></g>
<g><path style="opacity:1" fill="#0673dd" d="M 155.5,96.5 C 150.391,94.5508 145.391,92.3842 140.5,90C 131.021,88.9696 121.688,89.6362 112.5,92C 108.481,93.6723 104.814,95.839 101.5,98.5C 102.5,97.1667 103.5,95.8333 104.5,94.5C 108.085,91.8762 112.085,90.0428 116.5,89C 125.167,88.3333 133.833,88.3333 142.5,89C 147.479,90.5001 151.812,93.0001 155.5,96.5 Z"/></g>
<g><path style="opacity:1" fill="#0678e7" d="M 104.5,79.5 C 103.306,80.2719 102.306,81.2719 101.5,82.5C 97.2708,84.0642 93.9374,86.7308 91.5,90.5C 92.2311,82.5682 96.5645,78.9015 104.5,79.5 Z"/></g>
<g><path style="opacity:1" fill="#0d78ef" d="M 147.5,76.5 C 149.857,76.3367 152.19,76.5034 154.5,77C 155.098,79.048 156.431,80.2147 158.5,80.5C 160.577,79.0629 162.91,78.3962 165.5,78.5C 164.188,81.0245 163.688,83.6912 164,86.5C 164.414,86.0426 164.914,85.7093 165.5,85.5C 166.817,87.1591 168.483,88.3257 170.5,89C 170.043,89.414 169.709,89.914 169.5,90.5C 170.524,91.8518 171.524,93.1851 172.5,94.5C 168.112,90.7786 163.445,87.4453 158.5,84.5C 158.027,83.0937 157.027,82.427 155.5,82.5C 153.048,80.0258 150.382,78.0258 147.5,76.5 Z"/></g>
<g><path style="opacity:1" fill="#1ecdfd" d="M 110.5,77.5 C 111.167,77.5 111.833,77.5 112.5,77.5C 109.525,80.4249 105.858,82.0915 101.5,82.5C 102.306,81.2719 103.306,80.2719 104.5,79.5C 106.626,78.9518 108.626,78.2852 110.5,77.5 Z"/></g>
<g><path style="opacity:1" fill="#0a99f5" d="M 142.5,76.5 C 132.461,76.2423 122.461,76.5756 112.5,77.5C 111.833,77.5 111.167,77.5 110.5,77.5C 111.609,76.71 112.942,76.21 114.5,76C 124.009,75.1757 133.343,75.3424 142.5,76.5 Z"/></g>
<g><path style="opacity:1" fill="#0d6bf3" d="M 193.5,169.5 C 188.124,181.262 179.791,190.262 168.5,196.5C 168.179,194.952 167.179,194.285 165.5,194.5C 165.34,192.801 165.506,191.134 166,189.5C 167.011,190.337 168.178,190.67 169.5,190.5C 168.869,187.214 167.536,184.214 165.5,181.5C 167.392,180.527 169.392,179.86 171.5,179.5C 173.824,179.529 174.99,180.529 175,182.5C 174.333,183.833 173.667,183.833 173,182.5C 172.044,183.579 171.211,184.745 170.5,186C 175.023,184.805 179.19,182.638 183,179.5C 183.617,178.551 183.451,177.718 182.5,177C 183.981,176.02 185.315,174.853 186.5,173.5C 187.297,170.573 188.63,167.906 190.5,165.5C 191.057,167.332 192.057,168.665 193.5,169.5 Z"/></g>
<g><path style="opacity:1" fill="#106bf3" d="M 111.5,11.5 C 111.414,12.4959 111.748,13.3292 112.5,14C 118.914,16.3964 125.414,16.8964 132,15.5C 132.692,16.0253 133.192,16.6919 133.5,17.5C 124.761,18.8093 116.094,18.4759 107.5,16.5C 104.711,16.7414 102.044,17.408 99.5,18.5C 96.9722,17.8311 96.9722,16.9978 99.5,16C 98.8333,15.8333 98.1667,15.6667 97.5,15.5C 93.2043,16.2092 92.871,17.0426 96.5,18C 95.4216,18.6739 94.7549,19.6739 94.5,21C 94.8421,23.4922 96.1755,24.4922 98.5,24C 97.6721,23.0853 96.6721,22.4186 95.5,22C 98.4429,21.0583 101.276,19.8916 104,18.5C 107.245,19.5717 110.411,20.5717 113.5,21.5C 63.2717,31.5629 33.7717,61.8962 25,112.5C 22.7538,165.045 45.5872,201.712 93.5,222.5C 92.1779,222.33 91.0113,222.663 90,223.5C 88.6482,221.568 86.8149,220.234 84.5,219.5C 82.5675,220.52 80.5675,220.687 78.5,220C 76.7148,218.837 74.7148,218.17 72.5,218C 73.6039,216.869 73.2705,216.035 71.5,215.5C 65.1889,218.524 65.1889,219.691 71.5,219C 72.7158,220.74 74.3825,221.74 76.5,222C 77.8333,222.667 77.8333,223.333 76.5,224C 78.8098,224.497 81.1432,224.663 83.5,224.5C 83.5,226.167 83.5,227.833 83.5,229.5C 54.9921,217.493 34.4921,197.16 22,168.5C 14.6811,149.931 12.0145,130.597 14,110.5C 14.5759,104.897 15.7426,99.5638 17.5,94.5C 29.9397,53.5602 56.6064,26.7269 97.5,14C 102.118,12.8416 106.784,12.0083 111.5,11.5 Z"/></g>
<g><path style="opacity:1" fill="#0269fb" d="M 17.5,94.5 C 18.1577,93.6016 18.8243,92.6016 19.5,91.5C 21.2701,92.8196 21.6034,94.3196 20.5,96C 23.028,97.3159 23.028,98.4826 20.5,99.5C 22.3211,100.107 23.9878,101.273 25.5,103C 20.6075,107.869 18.6075,114.369 19.5,122.5C 18.9467,128.874 20.1134,134.874 23,140.5C 23.3333,139.833 23.6667,139.167 24,138.5C 24.2695,141.224 24.7695,143.891 25.5,146.5C 25,147.5 24.5,148.5 24,149.5C 23.2825,148.549 22.4491,148.383 21.5,149C 22.8678,150.34 24.2011,151.674 25.5,153C 25.2645,153.873 24.9312,154.707 24.5,155.5C 25.898,157.13 26.898,158.964 27.5,161C 27.1667,161.167 26.8333,161.333 26.5,161.5C 25.8333,160.167 25.1667,158.833 24.5,157.5C 23.8076,158.025 23.3076,158.692 23,159.5C 22.6667,159.167 22.3333,158.833 22,158.5C 22.3744,156.231 22.3744,153.898 22,151.5C 19.4741,154.063 17.8074,153.397 17,149.5C 16.5552,146.322 16.7219,143.155 17.5,140C 14.8258,132.42 13.8258,124.587 14.5,116.5C 15.5,116.5 16.5,116.5 17.5,116.5C 16.9969,109.33 16.9969,101.997 17.5,94.5 Z"/></g>
<g><path style="opacity:1" fill="#246fe9" d="M 166.5,196.5 C 162.078,199.704 157.078,201.871 151.5,203C 137.189,204.774 122.856,204.94 108.5,203.5C 102.686,203.005 97.3529,201.338 92.5,198.5C 93.5832,198.461 94.5832,198.127 95.5,197.5C 99.387,200.614 103.72,201.448 108.5,200C 107.167,200.333 105.833,200.667 104.5,201C 108.755,201.796 112.921,201.629 117,200.5C 121.077,201.798 125.411,202.464 130,202.5C 134.167,202.333 138.333,202.167 142.5,202C 140.5,201.167 138.5,200.333 136.5,199.5C 138.341,198.77 140.175,198.103 142,197.5C 143.849,198.561 145.849,199.227 148,199.5C 151.174,198.23 154.341,198.23 157.5,199.5C 159.208,199.297 160.541,198.464 161.5,197C 163.134,196.506 164.801,196.34 166.5,196.5 Z"/></g>
<g><path style="opacity:1" fill="#106af2" d="M 223.5,140.5 C 231.002,142.17 235.668,146.67 237.5,154C 227.76,189.416 206.093,214.749 172.5,230C 168.719,231.78 164.719,232.947 160.5,233.5C 159.496,232.317 158.662,230.984 158,229.5C 157.586,229.957 157.086,230.291 156.5,230.5C 155.449,229.115 154.116,228.115 152.5,227.5C 147.469,227.928 142.303,228.594 137,229.5C 126.513,228.778 116.013,228.278 105.5,228C 103.43,225.873 101.597,226.039 100,228.5C 98.437,227.898 98.6037,227.065 100.5,226C 99.944,225.617 99.6107,225.117 99.5,224.5C 104.907,224.801 110.24,225.634 115.5,227C 121.491,227.499 127.491,227.666 133.5,227.5C 137.514,227.666 141.514,227.499 145.5,227C 147.852,226.76 149.852,225.927 151.5,224.5C 188.5,214.335 213.5,191.168 226.5,155C 221.633,150.566 215.966,147.733 209.5,146.5C 209.5,145.5 209.5,144.5 209.5,143.5C 210.873,143.657 212.207,143.49 213.5,143C 215.572,140.293 218.239,139.293 221.5,140C 220.304,140.654 220.304,141.154 221.5,141.5C 222.183,141.137 222.85,140.804 223.5,140.5 Z"/></g>
<g><path style="opacity:1" fill="#0369fa" d="M 93.5,222.5 C 95.7857,222.595 97.7857,223.262 99.5,224.5C 99.6107,225.117 99.944,225.617 100.5,226C 98.6037,227.065 98.437,227.898 100,228.5C 101.597,226.039 103.43,225.873 105.5,228C 116.013,228.278 126.513,228.778 137,229.5C 142.303,228.594 147.469,227.928 152.5,227.5C 154.116,228.115 155.449,229.115 156.5,230.5C 157.086,230.291 157.586,229.957 158,229.5C 158.662,230.984 159.496,232.317 160.5,233.5C 159.292,234.234 157.959,234.567 156.5,234.5C 154.8,234.374 153.3,233.707 152,232.5C 150.174,233.01 150.007,233.844 151.5,235C 147.778,235.238 144.111,235.738 140.5,236.5C 138.998,235.917 137.665,235.084 136.5,234C 137.167,233.667 137.833,233.333 138.5,233C 128.248,230.034 117.915,229.867 107.5,232.5C 105.359,232.613 103.525,233.28 102,234.5C 100.312,233.675 100.145,232.675 101.5,231.5C 100.833,231.167 100.167,230.833 99.5,230.5C 96.1944,230.343 93.0277,230.677 90,231.5C 88.2111,229.771 86.0444,229.104 83.5,229.5C 83.5,227.833 83.5,226.167 83.5,224.5C 81.1432,224.663 78.8098,224.497 76.5,224C 77.8333,223.333 77.8333,222.667 76.5,222C 74.3825,221.74 72.7158,220.74 71.5,219C 65.1889,219.691 65.1889,218.524 71.5,215.5C 73.2705,216.035 73.6039,216.869 72.5,218C 74.7148,218.17 76.7148,218.837 78.5,220C 80.5675,220.687 82.5675,220.52 84.5,219.5C 86.8149,220.234 88.6482,221.568 90,223.5C 91.0113,222.663 92.1779,222.33 93.5,222.5 Z"/></g>
<g><path style="opacity:1" fill="#417ad3" d="M 151.5,224.5 C 149.852,225.927 147.852,226.76 145.5,227C 141.514,227.499 137.514,227.666 133.5,227.5C 139.39,226.636 145.39,225.636 151.5,224.5 Z"/></g>
<g><path style="opacity:1" fill="#0d6af1" d="M 83.5,229.5 C 86.0444,229.104 88.2111,229.771 90,231.5C 93.0277,230.677 96.1944,230.343 99.5,230.5C 100.167,230.833 100.833,231.167 101.5,231.5C 100.145,232.675 100.312,233.675 102,234.5C 103.525,233.28 105.359,232.613 107.5,232.5C 117.915,229.867 128.248,230.034 138.5,233C 137.833,233.333 137.167,233.667 136.5,234C 137.665,235.084 138.998,235.917 140.5,236.5C 144.111,235.738 147.778,235.238 151.5,235C 150.007,233.844 150.174,233.01 152,232.5C 153.3,233.707 154.8,234.374 156.5,234.5C 134.518,240.183 112.518,239.683 90.5,233C 87.8261,232.33 85.4927,231.163 83.5,229.5 Z"/></g>
</svg>
