<?xml version="1.0" encoding="UTF-8"?>
<!DOCTYPE svg PUBLIC "-//W3C//DTD SVG 1.1//EN" "http://www.w3.org/Graphics/SVG/1.1/DTD/svg11.dtd">
<svg xmlns="http://www.w3.org/2000/svg" version="1.1" width="207px" height="207px" style="shape-rendering:geometricPrecision; text-rendering:geometricPrecision; image-rendering:optimizeQuality; fill-rule:evenodd; clip-rule:evenodd" xmlns:xlink="http://www.w3.org/1999/xlink">
<g><path style="opacity:1" fill="#fdfdfe" d="M -0.5,-0.5 C 36.8333,-0.5 74.1667,-0.5 111.5,-0.5C 111.217,0.28913 110.717,0.955796 110,1.5C 109.207,7.88489 109.374,14.2182 110.5,20.5C 153.168,26.5012 177.501,50.8345 183.5,93.5C 189.448,94.6236 195.448,94.7903 201.5,94C 202,93.5 202.5,93 203,92.5C 201.991,56.6439 186.158,29.4772 155.5,11C 143.657,5.13032 131.324,1.29699 118.5,-0.5C 147.833,-0.5 177.167,-0.5 206.5,-0.5C 206.5,68.5 206.5,137.5 206.5,206.5C 137.5,206.5 68.5,206.5 -0.5,206.5C -0.5,137.5 -0.5,68.5 -0.5,-0.5 Z"/></g>
<g><path style="opacity:1" fill="#ff9f1e" d="M 111.5,-0.5 C 113.833,-0.5 116.167,-0.5 118.5,-0.5C 131.324,1.29699 143.657,5.13032 155.5,11C 186.158,29.4772 201.991,56.6439 203,92.5C 202.5,93 202,93.5 201.5,94C 195.448,94.7903 189.448,94.6236 183.5,93.5C 177.501,50.8345 153.168,26.5012 110.5,20.5C 109.374,14.2182 109.207,7.88489 110,1.5C 110.717,0.955796 111.217,0.28913 111.5,-0.5 Z"/></g>
<g><path style="opacity:1" fill="#1d57ed" d="M 79.5,15.5 C 84.43,15.1975 89.2633,15.5308 94,16.5C 94.6667,22.8333 94.6667,29.1667 94,35.5C 61.4517,38.7701 38.7851,55.4367 26,85.5C 16.0167,127.36 30.1833,157.86 68.5,177C 103.383,187.26 131.883,178.094 154,149.5C 161.207,137.878 165.207,125.211 166,111.5C 166.5,111 167,110.5 167.5,110C 174.414,109.189 181.248,109.355 188,110.5C 186.387,150.435 167.554,178.935 131.5,196C 83.7493,212.746 44.916,200.912 15,160.5C -10.2207,113.912 -3.7207,72.4119 34.5,36C 47.8462,25.3911 62.8462,18.5577 79.5,15.5 Z"/></g>
<g><path style="opacity:1" fill="#ff9f1f" d="M 111.5,49.5 C 132.547,51.376 146.38,62.376 153,82.5C 153.789,86.0915 153.622,89.5915 152.5,93C 145.833,93.6667 139.167,93.6667 132.5,93C 130.244,81.7447 123.577,74.7447 112.5,72C 111.667,71.1667 110.833,70.3333 110,69.5C 109.333,63.5 109.333,57.5 110,51.5C 110.717,50.9558 111.217,50.2891 111.5,49.5 Z"/></g>
<g><path style="opacity:1" fill="#1d57ed" d="M 83.5,65.5 C 87.1064,65.2108 90.6064,65.5442 94,66.5C 94.6667,72.8333 94.6667,79.1667 94,85.5C 89.3567,87.2754 84.8567,89.4421 80.5,92C 70.2012,102.982 69.8678,114.315 79.5,126C 91.3096,134.199 102.143,133.032 112,122.5C 114.212,118.465 116.045,114.298 117.5,110C 123.833,109.333 130.167,109.333 136.5,110C 138.444,112.153 138.944,114.653 138,117.5C 131.618,140.211 116.618,152.211 93,153.5C 73.0153,151.514 59.3486,141.181 52,122.5C 46.8979,94.6928 57.3979,75.6928 83.5,65.5 Z"/></g>
</svg>
