<?xml version="1.0" encoding="UTF-8"?>
<!DOCTYPE svg PUBLIC "-//W3C//DTD SVG 1.1//EN" "http://www.w3.org/Graphics/SVG/1.1/DTD/svg11.dtd">
<svg xmlns="http://www.w3.org/2000/svg" version="1.1" width="244px" height="299px" style="shape-rendering:geometricPrecision; text-rendering:geometricPrecision; image-rendering:optimizeQuality; fill-rule:evenodd; clip-rule:evenodd" xmlns:xlink="http://www.w3.org/1999/xlink">
<g><path style="opacity:1" fill="#fefefe" d="M -0.5,-0.5 C 80.8333,-0.5 162.167,-0.5 243.5,-0.5C 243.5,99.1667 243.5,198.833 243.5,298.5C 162.167,298.5 80.8333,298.5 -0.5,298.5C -0.5,198.833 -0.5,99.1667 -0.5,-0.5 Z"/></g>
<g><path style="opacity:1" fill="#f227f2" d="M 99.5,77.5 C 85.6565,77.829 71.9898,77.4957 58.5,76.5C 77.5565,51.7623 98.8898,28.7623 122.5,7.5C 146.489,29.3158 168.489,52.8158 188.5,78C 174.155,78.8328 159.822,78.6661 145.5,77.5C 138.534,67.2089 130.867,57.5423 122.5,48.5C 115.055,58.4182 107.388,68.0848 99.5,77.5 Z"/></g>
<g><path style="opacity:1" fill="#f85ff7" d="M 58.5,76.5 C 71.9898,77.4957 85.6565,77.829 99.5,77.5C 85.3393,78.6608 71.0059,78.8275 56.5,78C 57.0442,77.2828 57.7109,76.7828 58.5,76.5 Z"/></g>
<g><path style="opacity:1" fill="#f229f2" d="M 184.5,107.5 C 197.081,106.865 205.914,112.198 211,123.5C 212.81,137.381 206.976,146.214 193.5,150C 181.185,151.762 172.685,146.929 168,135.5C 165.066,121.017 170.566,111.683 184.5,107.5 Z"/></g>
<g><path style="opacity:1" fill="#f228f2" d="M 50.5,107.5 C 61.6731,106.005 70.1731,110.005 76,119.5C 80.697,137.775 73.697,148.109 55,150.5C 42.2219,148.556 35.0552,141.223 33.5,128.5C 35.1225,118.269 40.7892,111.269 50.5,107.5 Z"/></g>
<g><path style="opacity:1" fill="#f228f2" d="M 119.5,107.5 C 141.653,109.484 148.819,120.818 141,141.5C 128.575,153.353 116.242,153.353 104,141.5C 96.4958,124.184 101.662,112.85 119.5,107.5 Z"/></g>
<g><path style="opacity:1" fill="#fbd2fb" d="M 12.5,178.5 C 12.5,182.167 12.5,185.833 12.5,189.5C 11.2132,188.129 10.5465,186.295 10.5,184C 10.5465,181.705 11.2132,179.871 12.5,178.5 Z"/></g>
<g><path style="opacity:1" fill="#f226f2" d="M 12.5,178.5 C 23.5,178.5 34.5,178.5 45.5,178.5C 44.9216,207.514 56.5883,230.014 80.5,246C 118.967,266.221 153.301,260.721 183.5,229.5C 194.857,214.428 200.19,197.428 199.5,178.5C 210.833,178.5 222.167,178.5 233.5,178.5C 233.674,185.535 233.341,192.535 232.5,199.5C 230.824,200.183 230.157,201.517 230.5,203.5C 222.511,240.29 201.178,266.123 166.5,281C 114.083,299.605 69.5826,288.105 33,246.5C 20.8223,229.476 13.9889,210.476 12.5,189.5C 12.5,185.833 12.5,182.167 12.5,178.5 Z"/></g>
<g><path style="opacity:1" fill="#f9aff8" d="M 232.5,199.5 C 232.843,201.483 232.176,202.817 230.5,203.5C 230.157,201.517 230.824,200.183 232.5,199.5 Z"/></g>
</svg>
