<svg xmlns="http://www.w3.org/2000/svg" viewBox="0 0 28.87 28.87" id="dropbox"><g data-name="Layer 2"><g data-name="Layer 1"><rect width="28.87" height="28.87" fill="#007ee6" rx="6.48" ry="6.48"></rect><path fill="#fff" d="m11.21 7.5-4.63 3.03 3.19 2.57 4.68-2.89-3.24-2.71z"></path><path fill="#fff" d="m22.29 10.53-4.62-3.01-3.22 2.69 4.66 2.88 3.18-2.56zM14.45 15.97l3.22 2.7 4.62-3.02-3.18-2.56-4.66 2.88z"></path><path fill="#fff" d="m6.58 15.67 4.63 3 3.24-2.7-4.68-2.87-3.19 2.57z"></path><path fill="#fff" d="m14.45 16.55-3.23 2.71-1.38-.9v1l4.61 2.78 4.64-2.78v-1l-1.4.9-3.24-2.71z"></path></g></g></svg>