<?xml version="1.0" encoding="UTF-8"?>
<!DOCTYPE svg PUBLIC "-//W3C//DTD SVG 1.1//EN" "http://www.w3.org/Graphics/SVG/1.1/DTD/svg11.dtd">
<svg xmlns="http://www.w3.org/2000/svg" version="1.1" width="340px" height="345px" style="shape-rendering:geometricPrecision; text-rendering:geometricPrecision; image-rendering:optimizeQuality; fill-rule:evenodd; clip-rule:evenodd" xmlns:xlink="http://www.w3.org/1999/xlink">
<g><path style="opacity:1" fill="#fcfefd" d="M -0.5,-0.5 C 112.833,-0.5 226.167,-0.5 339.5,-0.5C 339.5,114.5 339.5,229.5 339.5,344.5C 226.167,344.5 112.833,344.5 -0.5,344.5C -0.5,229.5 -0.5,114.5 -0.5,-0.5 Z"/></g>
<g><path style="opacity:1" fill="#20a749" d="M 161.5,9.5 C 206.501,9.33334 251.501,9.50001 296.5,10C 314.731,13.5774 326.564,24.0774 332,41.5C 332.667,91.5 332.667,141.5 332,191.5C 322.402,256.905 287.235,302.405 226.5,328C 163.762,348.273 107.429,337.273 57.5,295C 10.9752,247.765 -4.1915,191.599 12,126.5C 32.1097,67.7298 72.2763,30.2298 132.5,14C 142.28,12.3336 151.947,10.8336 161.5,9.5 Z"/></g>
<g><path style="opacity:1" fill="#fdfdfd" d="M 162.5,81.5 C 198.473,80.5517 223.307,96.5517 237,129.5C 238.206,133.45 239.206,137.45 240,141.5C 240.667,163.833 240.667,186.167 240,208.5C 237.73,217.271 232.23,222.937 223.5,225.5C 220.159,248.49 206.826,258.823 183.5,256.5C 179.167,256.333 174.833,256.167 170.5,256C 168.398,254.267 168.065,252.267 169.5,250C 180.558,249.907 191.558,249.24 202.5,248C 211.198,243.469 215.531,236.303 215.5,226.5C 209.5,226.5 203.5,226.5 197.5,226.5C 197.5,207.833 197.5,189.167 197.5,170.5C 206.833,170.5 216.167,170.5 225.5,170.5C 228.324,146.106 220.324,126.273 201.5,111C 185.617,101.105 168.617,98.7715 150.5,104C 122.014,117.041 110.014,139.208 114.5,170.5C 123.5,170.5 132.5,170.5 141.5,170.5C 141.5,189.167 141.5,207.833 141.5,226.5C 133.16,226.666 124.827,226.5 116.5,226C 107,223.167 100.833,217 98,207.5C 97.3333,186.167 97.3333,164.833 98,143.5C 105.7,108.297 127.2,87.63 162.5,81.5 Z"/></g>
</svg>
