<svg xmlns="http://www.w3.org/2000/svg" enable-background="new 0 0 512 512" viewBox="0 0 512 512" id="google-docs"><path fill="#518ef8" d="M441.412,140.235v338.781c0,18.219-14.778,32.983-32.983,32.983H103.572
	c-18.219,0-32.983-14.764-32.983-32.983V32.983C70.588,14.764,85.352,0,103.572,0h197.605L441.412,140.235z"></path><rect width="189.626" height="21.071" x="161.18" y="257.054" fill="#fff"></rect><rect width="189.626" height="21.071" x="161.18" y="304.112" fill="#fff"></rect><rect width="189.626" height="21.071" x="161.18" y="351.171" fill="#fff"></rect><rect width="134.855" height="21.071" x="161.18" y="398.23" fill="#fff"></rect><polygon fill="#3a5bbc" points="320.31 137.188 441.412 187.079 441.412 140.235 372.751 119.962"></polygon><path fill="#acd1fc" d="M441.412,140.235H334.16c-18.22,0-32.983-14.764-32.983-32.983V0L441.412,140.235z"></path></svg>