<svg xmlns="http://www.w3.org/2000/svg" width="24" height="24" fill="none" viewBox="0 0 24 24" id="hootsuite"><path fill="url(#paint0_linear_1233_4756)" fill-rule="evenodd" d="M5.5547 1.16795C5.24784 0.96338 4.8533 0.944308 4.52814 1.11833C4.20298 1.29235 4 1.63121 4 2V10C4 17.1797 9.8203 23 17 23H19C19.5523 23 20 22.5523 20 22V2C20 1.63121 19.797 1.29235 19.4719 1.11833C19.1467 0.944308 18.7522 0.96338 18.4453 1.16795L15.9282 2.84605L15.1305 2.44721C13.1598 1.46187 10.8402 1.46187 8.86951 2.44721L8.07184 2.84605L5.5547 1.16795ZM6 10V3.86852L7.4453 4.83205C7.74389 5.03111 8.12624 5.05491 8.44721 4.89443L9.76393 4.23607C11.1716 3.53225 12.8284 3.53225 14.2361 4.23607L15.5528 4.89443C15.8738 5.05491 16.2561 5.03111 16.5547 4.83205L18 3.86852V21H17C10.9249 21 6 16.0751 6 10ZM14.5 8.5C14.5 8.22386 14.7239 8 15 8C15.2761 8 15.5 8.22386 15.5 8.5C15.5 8.77614 15.2761 9 15 9C14.949 9 14.8997 8.99236 14.8534 8.97815C14.7944 8.88176 14.718 8.79379 14.6247 8.71913C14.5915 8.69261 14.5572 8.66853 14.5219 8.64688C14.5077 8.60044 14.5 8.55112 14.5 8.5ZM15 11C14.7159 11 14.4429 10.9526 14.1884 10.8653L12.7809 12.6247C12.5911 12.8619 12.3038 13 12 13C11.6962 13 11.4089 12.8619 11.2191 12.6247L9.81162 10.8653C9.55713 10.9526 9.2841 11 9 11C7.61929 11 6.5 9.88071 6.5 8.5C6.5 7.11929 7.61929 6 9 6C10.3807 6 11.5 7.11929 11.5 8.5C11.5 8.8591 11.4243 9.20052 11.288 9.50916L12 10.3992L12.712 9.50916C12.5757 9.20052 12.5 8.8591 12.5 8.5C12.5 7.11929 13.6193 6 15 6C16.3807 6 17.5 7.11929 17.5 8.5C17.5 9.88071 16.3807 11 15 11ZM9.47808 8.64688C9.49233 8.60044 9.5 8.55112 9.5 8.5C9.5 8.22386 9.27614 8 9 8C8.72386 8 8.5 8.22386 8.5 8.5C8.5 8.77614 8.72386 9 9 9C9.05103 9 9.10027 8.99236 9.14664 8.97815C9.20558 8.88176 9.28198 8.79379 9.37531 8.71913C9.40846 8.69261 9.4428 8.66853 9.47808 8.64688Z" clip-rule="evenodd"></path><defs><linearGradient id="paint0_linear_1233_4756" x1="12" x2="12" y1="14" y2="23" gradientUnits="userSpaceOnUse"><stop stop-color="#FDC830"></stop><stop offset="1" stop-color="#F37335"></stop></linearGradient></defs></svg>