<?xml version="1.0" encoding="UTF-8"?>
<!DOCTYPE svg PUBLIC "-//W3C//DTD SVG 1.1//EN" "http://www.w3.org/Graphics/SVG/1.1/DTD/svg11.dtd">
<svg xmlns="http://www.w3.org/2000/svg" version="1.1" width="339px" height="337px" style="shape-rendering:geometricPrecision; text-rendering:geometricPrecision; image-rendering:optimizeQuality; fill-rule:evenodd; clip-rule:evenodd" xmlns:xlink="http://www.w3.org/1999/xlink">
<g><path style="opacity:1" fill="#fffbfa" d="M -0.5,-0.5 C 112.5,-0.5 225.5,-0.5 338.5,-0.5C 338.5,111.833 338.5,224.167 338.5,336.5C 225.5,336.5 112.5,336.5 -0.5,336.5C -0.5,224.167 -0.5,111.833 -0.5,-0.5 Z"/></g>
<g><path style="opacity:1" fill="#ff3901" d="M 21.5,3.5 C 120.167,3.33334 218.834,3.5 317.5,4C 325.973,5.8064 331.14,10.9731 333,19.5C 333.667,118.167 333.667,216.833 333,315.5C 331.268,323.565 326.435,328.732 318.5,331C 219.167,331.667 119.833,331.667 20.5,331C 13.7634,329.264 9.26341,325.097 7,318.5C 6.33333,217.833 6.33333,117.167 7,16.5C 9.90747,9.97137 14.7408,5.63804 21.5,3.5 Z"/></g>
<g><path style="opacity:1" fill="#fffefe" d="M 170.5,41.5 C 186.5,41.5 202.5,41.5 218.5,41.5C 219.388,76.2167 206.388,104.383 179.5,126C 163,137.087 146,147.42 128.5,157C 111.844,168.815 104.177,184.982 105.5,205.5C 89.5,205.5 73.5,205.5 57.5,205.5C 56.287,169.433 69.9537,140.599 98.5,119C 113.905,109.269 129.572,99.9353 145.5,91C 162.951,79.2653 171.285,62.7653 170.5,41.5 Z"/></g>
<g><path style="opacity:1" fill="#fffefe" d="M 233.5,129.5 C 249.5,129.5 265.5,129.5 281.5,129.5C 282.486,170.038 265.819,200.871 231.5,222C 219.996,228.92 208.329,235.586 196.5,242C 177.081,253.608 167.748,270.775 168.5,293.5C 152.5,293.5 136.5,293.5 120.5,293.5C 119.157,258.025 132.49,229.525 160.5,208C 175.671,197.911 191.337,188.578 207.5,180C 225.531,168.108 234.197,151.275 233.5,129.5 Z"/></g>
</svg>
