<?xml version="1.0" encoding="UTF-8"?>
<!DOCTYPE svg PUBLIC "-//W3C//DTD SVG 1.1//EN" "http://www.w3.org/Graphics/SVG/1.1/DTD/svg11.dtd">
<svg xmlns="http://www.w3.org/2000/svg" version="1.1" width="200px" height="200px" style="shape-rendering:geometricPrecision; text-rendering:geometricPrecision; image-rendering:optimizeQuality; fill-rule:evenodd; clip-rule:evenodd" xmlns:xlink="http://www.w3.org/1999/xlink">
<g><path style="opacity:1" fill="#fefefe" d="M -0.5,-0.5 C 48.5,-0.5 97.5,-0.5 146.5,-0.5C 146.5,-0.166667 146.5,0.166667 146.5,0.5C 146.5,1.16667 146.167,1.5 145.5,1.5C 141.776,2.36716 138.109,3.53383 134.5,5C 132.84,6.48765 131.84,8.32099 131.5,10.5C 128.573,11.762 125.907,13.4287 123.5,15.5C 122.167,16.1667 120.833,16.8333 119.5,17.5C 116.286,18.2219 113.619,19.8886 111.5,22.5C 109.5,23.8333 107.5,25.1667 105.5,26.5C 101.324,29.1537 96.9911,31.6537 92.5,34C 91.2899,35.0391 90.2899,36.2058 89.5,37.5C 87.847,37.6596 86.5137,38.3263 85.5,39.5C 82.6627,39.6845 80.6627,41.0178 79.5,43.5C 76.5923,44.2872 73.9256,45.6205 71.5,47.5C 67.2552,47.7091 63.5886,49.3758 60.5,52.5C 59.8728,53.4168 59.5394,54.4168 59.5,55.5C 58.8333,55.5 58.1667,55.5 57.5,55.5C 54.0352,56.4836 50.8685,58.1503 48,60.5C 47.5488,58.0712 46.7155,57.9045 45.5,60C 45.9574,60.414 46.2907,60.914 46.5,61.5C 43.9941,63.1793 41.6608,65.0126 39.5,67C 39.8361,68.0299 40.5028,68.5299 41.5,68.5C 42.1667,68.5 42.8333,68.5 43.5,68.5C 43.5106,70.0174 44.1772,71.1841 45.5,72C 51.3368,74.2001 57.3368,75.7001 63.5,76.5C 64.4293,77.3149 65.4293,78.1482 66.5,79C 62.9399,80.2367 59.2733,80.7367 55.5,80.5C 54.6521,78.9069 53.3187,77.7403 51.5,77C 47.7934,76.2627 44.1268,75.4293 40.5,74.5C 40.6495,73.448 40.4828,72.448 40,71.5C 39.5291,73.2464 38.8624,74.913 38,76.5C 37.8234,100.209 37.3234,123.876 36.5,147.5C 37.1882,148.855 38.1882,149.855 39.5,150.5C 39.2053,152.735 39.5386,154.735 40.5,156.5C 42.6794,157.677 45.0128,158.677 47.5,159.5C 48.1223,161.335 49.4556,162.502 51.5,163C 56.3991,164.691 61.3991,165.857 66.5,166.5C 67.4916,166.328 68.1583,166.662 68.5,167.5C 72.8286,169.912 77.4953,172.078 82.5,174C 84.1341,174.494 85.8008,174.66 87.5,174.5C 89.6609,178.275 92.8276,179.608 97,178.5C 101.036,180.381 105.203,181.715 109.5,182.5C 113.025,183.21 116.358,184.21 119.5,185.5C 122.376,188.524 126.042,189.857 130.5,189.5C 132.403,189.796 134.07,190.463 135.5,191.5C 135.36,193.124 136.027,194.29 137.5,195C 143.137,195.89 148.47,197.39 153.5,199.5C 102.167,199.5 50.8333,199.5 -0.5,199.5C -0.5,132.833 -0.5,66.1667 -0.5,-0.5 Z"/></g>
<g><path style="opacity:1" fill="#fefefe" d="M 149.5,-0.5 C 166.167,-0.5 182.833,-0.5 199.5,-0.5C 199.5,66.1667 199.5,132.833 199.5,199.5C 186.167,199.5 172.833,199.5 159.5,199.5C 159.5,169.5 159.5,139.5 159.5,109.5C 158.571,108.685 157.571,107.852 156.5,107C 152.352,106.339 148.352,105.173 144.5,103.5C 143.167,100.833 143.167,98.1667 144.5,95.5C 146.531,93.6899 148.198,91.6899 149.5,89.5C 149.5,59.5 149.5,29.5 149.5,-0.5 Z"/></g>
<g><path style="opacity:1" fill="#e5f9e2" d="M 145.5,1.5 C 140.856,4.46612 136.189,7.46612 131.5,10.5C 131.84,8.32099 132.84,6.48765 134.5,5C 138.109,3.53383 141.776,2.36716 145.5,1.5 Z"/></g>
<g><path style="opacity:1" fill="#8bcc8e" d="M 146.5,0.5 C 146.5,0.166667 146.5,-0.166667 146.5,-0.5C 147.5,-0.5 148.5,-0.5 149.5,-0.5C 149.5,29.5 149.5,59.5 149.5,89.5C 149.167,89.5 148.833,89.5 148.5,89.5C 148.5,62.1667 148.5,34.8333 148.5,7.5C 149.01,4.61221 148.344,2.27887 146.5,0.5 Z"/></g>
<g><path style="opacity:1" fill="#36a635" d="M 146.5,0.5 C 148.344,2.27887 149.01,4.61221 148.5,7.5C 147.502,33.9948 147.169,60.6614 147.5,87.5C 145.508,87.6715 143.842,87.0049 142.5,85.5C 141.692,87.4233 141.192,89.4233 141,91.5C 138.818,92.9364 136.984,94.6031 135.5,96.5C 135.158,97.3382 134.492,97.6716 133.5,97.5C 130.14,97.3841 126.807,97.0508 123.5,96.5C 116.659,95.0791 109.992,93.0791 103.5,90.5C 101.78,89.6923 100.113,88.6923 98.5,87.5C 91.352,83.5924 83.6853,80.9257 75.5,79.5C 72.3511,79.5848 69.6845,78.5848 67.5,76.5C 61.5748,72.1759 54.9081,69.8426 47.5,69.5C 47.2786,68.2652 46.6119,67.2652 45.5,66.5C 46.1925,65.4822 46.8592,64.4822 47.5,63.5C 52.7133,61.2994 57.7133,58.6327 62.5,55.5C 62.8627,54.8165 63.1961,54.1499 63.5,53.5C 67.5542,52.6343 71.5542,51.4677 75.5,50C 76.2193,47.3829 77.5526,45.2162 79.5,43.5C 82.8784,44.1089 84.8784,42.7756 85.5,39.5C 86.5137,38.3263 87.847,37.6596 89.5,37.5C 92.5787,35.9805 95.912,35.1471 99.5,35C 100.38,33.6439 100.714,32.1439 100.5,30.5C 103.367,30.6308 105.033,29.2974 105.5,26.5C 107.5,25.1667 109.5,23.8333 111.5,22.5C 112.833,22.1667 114.167,21.8333 115.5,21.5C 119.425,20.9004 122.092,18.9004 123.5,15.5C 125.907,13.4287 128.573,11.762 131.5,10.5C 136.189,7.46612 140.856,4.46612 145.5,1.5C 146.167,1.5 146.5,1.16667 146.5,0.5 Z"/></g>
<g><path style="opacity:1" fill="#43a242" d="M 148.5,7.5 C 148.5,34.8333 148.5,62.1667 148.5,89.5C 143.98,91.5915 139.647,93.9248 135.5,96.5C 136.984,94.6031 138.818,92.9364 141,91.5C 141.192,89.4233 141.692,87.4233 142.5,85.5C 143.842,87.0049 145.508,87.6715 147.5,87.5C 147.169,60.6614 147.502,33.9948 148.5,7.5 Z"/></g>
<g><path style="opacity:1" fill="#4b9e4c" d="M 123.5,15.5 C 122.092,18.9004 119.425,20.9004 115.5,21.5C 116.527,19.8058 117.861,18.4725 119.5,17.5C 120.833,16.8333 122.167,16.1667 123.5,15.5 Z"/></g>
<g><path style="opacity:1" fill="#c0e9bb" d="M 119.5,17.5 C 117.861,18.4725 116.527,19.8058 115.5,21.5C 114.167,21.8333 112.833,22.1667 111.5,22.5C 113.619,19.8886 116.286,18.2219 119.5,17.5 Z"/></g>
<g><path style="opacity:1" fill="#4ba449" d="M 105.5,26.5 C 105.033,29.2974 103.367,30.6308 100.5,30.5C 100.714,32.1439 100.38,33.6439 99.5,35C 95.912,35.1471 92.5787,35.9805 89.5,37.5C 90.2899,36.2058 91.2899,35.0391 92.5,34C 96.9911,31.6537 101.324,29.1537 105.5,26.5 Z"/></g>
<g><path style="opacity:1" fill="#5aa857" d="M 85.5,39.5 C 84.8784,42.7756 82.8784,44.1089 79.5,43.5C 80.6627,41.0178 82.6627,39.6845 85.5,39.5 Z"/></g>
<g><path style="opacity:1" fill="#48a245" d="M 79.5,43.5 C 77.5526,45.2162 76.2193,47.3829 75.5,50C 71.5542,51.4677 67.5542,52.6343 63.5,53.5C 65.8838,51.1153 68.5505,49.1153 71.5,47.5C 73.9256,45.6205 76.5923,44.2872 79.5,43.5 Z"/></g>
<g><path style="opacity:1" fill="#ceedcd" d="M 71.5,47.5 C 68.5505,49.1153 65.8838,51.1153 63.5,53.5C 61.9382,53.7329 60.6049,54.3995 59.5,55.5C 59.5394,54.4168 59.8728,53.4168 60.5,52.5C 63.5886,49.3758 67.2552,47.7091 71.5,47.5 Z"/></g>
<g><path style="opacity:1" fill="#e1f7e1" d="M 57.5,55.5 C 54.097,58.1859 50.7637,60.8526 47.5,63.5C 45.2198,64.6401 42.8864,65.8068 40.5,67C 41.056,67.3826 41.3893,67.8826 41.5,68.5C 40.5028,68.5299 39.8361,68.0299 39.5,67C 41.6608,65.0126 43.9941,63.1793 46.5,61.5C 46.2907,60.914 45.9574,60.414 45.5,60C 46.7155,57.9045 47.5488,58.0712 48,60.5C 50.8685,58.1503 54.0352,56.4836 57.5,55.5 Z"/></g>
<g><path style="opacity:1" fill="#51a550" d="M 63.5,53.5 C 63.1961,54.1499 62.8627,54.8165 62.5,55.5C 57.7133,58.6327 52.7133,61.2994 47.5,63.5C 50.7637,60.8526 54.097,58.1859 57.5,55.5C 58.1667,55.5 58.8333,55.5 59.5,55.5C 60.6049,54.3995 61.9382,53.7329 63.5,53.5 Z"/></g>
<g><path style="opacity:1" fill="#519e4f" d="M 47.5,63.5 C 46.8592,64.4822 46.1925,65.4822 45.5,66.5C 46.6119,67.2652 47.2786,68.2652 47.5,69.5C 46.0413,69.5674 44.7079,69.2341 43.5,68.5C 42.8333,68.5 42.1667,68.5 41.5,68.5C 41.3893,67.8826 41.056,67.3826 40.5,67C 42.8864,65.8068 45.2198,64.6401 47.5,63.5 Z"/></g>
<g><path style="opacity:1" fill="#47a44b" d="M 47.5,69.5 C 54.9081,69.8426 61.5748,72.1759 67.5,76.5C 66.1667,76.5 64.8333,76.5 63.5,76.5C 58.1667,74.1667 52.8333,71.8333 47.5,69.5 Z"/></g>
<g><path style="opacity:1" fill="#f5fdf2" d="M 55.5,80.5 C 52.779,80.0372 50.1123,79.3705 47.5,78.5C 46.0697,77.4625 44.403,76.7959 42.5,76.5C 41.791,75.596 40.791,75.2627 39.5,75.5C 39.5,100.5 39.5,125.5 39.5,150.5C 38.1882,149.855 37.1882,148.855 36.5,147.5C 37.3234,123.876 37.8234,100.209 38,76.5C 38.8624,74.913 39.5291,73.2464 40,71.5C 40.4828,72.448 40.6495,73.448 40.5,74.5C 44.1268,75.4293 47.7934,76.2627 51.5,77C 53.3187,77.7403 54.6521,78.9069 55.5,80.5 Z"/></g>
<g><path style="opacity:1" fill="#e9fae6" d="M 43.5,68.5 C 44.7079,69.2341 46.0413,69.5674 47.5,69.5C 52.8333,71.8333 58.1667,74.1667 63.5,76.5C 57.3368,75.7001 51.3368,74.2001 45.5,72C 44.1772,71.1841 43.5106,70.0174 43.5,68.5 Z"/></g>
<g><path style="opacity:1" fill="#87d081" d="M 42.5,76.5 C 40.5088,102.812 39.8421,129.479 40.5,156.5C 39.5386,154.735 39.2053,152.735 39.5,150.5C 39.5,125.5 39.5,100.5 39.5,75.5C 40.791,75.2627 41.791,75.596 42.5,76.5 Z"/></g>
<g><path style="opacity:1" fill="#419f40" d="M 42.5,76.5 C 44.403,76.7959 46.0697,77.4625 47.5,78.5C 45.4727,78.3379 43.4727,78.5045 41.5,79C 42.4942,102.759 42.8276,126.592 42.5,150.5C 46.3551,149.954 50.0218,148.954 53.5,147.5C 47.8117,151.191 48.4783,153.191 55.5,153.5C 56.5137,154.674 57.847,155.34 59.5,155.5C 62.6248,157.126 65.9581,158.46 69.5,159.5C 74.7183,161.573 80.0517,163.24 85.5,164.5C 86.1667,165.167 86.8333,165.833 87.5,166.5C 82.4299,166.089 77.5966,164.755 73,162.5C 65.7085,164.098 65.8752,165.265 73.5,166C 72.5842,166.278 71.9175,166.778 71.5,167.5C 70.5,167.5 69.5,167.5 68.5,167.5C 68.1583,166.662 67.4916,166.328 66.5,166.5C 60.3325,163.925 53.9992,161.592 47.5,159.5C 45.0128,158.677 42.6794,157.677 40.5,156.5C 39.8421,129.479 40.5088,102.812 42.5,76.5 Z"/></g>
<g><path style="opacity:1" fill="#ebf9e9" d="M 63.5,76.5 C 64.8333,76.5 66.1667,76.5 67.5,76.5C 69.6845,78.5848 72.3511,79.5848 75.5,79.5C 77.0725,80.6873 78.7392,81.6873 80.5,82.5C 76.7802,82.5642 73.1135,83.0642 69.5,84C 75.9698,85.9299 82.1364,88.4299 88,91.5C 88.414,91.0426 88.914,90.7093 89.5,90.5C 92.1134,93.1618 95.1134,93.9951 98.5,93C 99.8228,93.8159 100.489,94.9826 100.5,96.5C 85.0194,92.341 70.0194,87.0077 55.5,80.5C 59.2733,80.7367 62.9399,80.2367 66.5,79C 65.4293,78.1482 64.4293,77.3149 63.5,76.5 Z"/></g>
<g><path style="opacity:1" fill="#4ea24b" d="M 75.5,79.5 C 83.6853,80.9257 91.352,83.5924 98.5,87.5C 92.5229,85.8505 86.5229,84.1838 80.5,82.5C 78.7392,81.6873 77.0725,80.6873 75.5,79.5 Z"/></g>
<g><path style="opacity:1" fill="#f6faf5" d="M 80.5,82.5 C 86.5229,84.1838 92.5229,85.8505 98.5,87.5C 100.113,88.6923 101.78,89.6923 103.5,90.5C 105.576,92.7138 108.242,94.2138 111.5,95C 109.559,95.3036 107.893,96.1369 106.5,97.5C 104.591,96.6518 102.591,96.3184 100.5,96.5C 100.489,94.9826 99.8228,93.8159 98.5,93C 95.1134,93.9951 92.1134,93.1618 89.5,90.5C 88.914,90.7093 88.414,91.0426 88,91.5C 82.1364,88.4299 75.9698,85.9299 69.5,84C 73.1135,83.0642 76.7802,82.5642 80.5,82.5 Z"/></g>
<g><path style="opacity:1" fill="#37a636" d="M 47.5,78.5 C 50.1123,79.3705 52.779,80.0372 55.5,80.5C 70.0194,87.0077 85.0194,92.341 100.5,96.5C 106.538,99.4043 112.872,101.738 119.5,103.5C 119.5,103.833 119.5,104.167 119.5,104.5C 119.5,105.167 119.5,105.833 119.5,106.5C 118.306,107.272 117.306,108.272 116.5,109.5C 113.46,110.68 110.794,112.347 108.5,114.5C 106.326,114.75 104.659,115.75 103.5,117.5C 101.938,117.733 100.605,118.4 99.5,119.5C 96.2911,121.265 93.2911,123.265 90.5,125.5C 88.9731,125.427 87.9731,126.094 87.5,127.5C 82.4732,130.212 77.4732,132.879 72.5,135.5C 68.5217,137.154 64.5217,138.821 60.5,140.5C 59.1468,141.524 58.4802,142.857 58.5,144.5C 57.3065,145.272 56.3065,146.272 55.5,147.5C 54.8333,147.5 54.1667,147.5 53.5,147.5C 50.0218,148.954 46.3551,149.954 42.5,150.5C 42.8276,126.592 42.4942,102.759 41.5,79C 43.4727,78.5045 45.4727,78.3379 47.5,78.5 Z"/></g>
<g><path style="opacity:1" fill="#eaf8e7" d="M 148.5,89.5 C 148.833,89.5 149.167,89.5 149.5,89.5C 148.198,91.6899 146.531,93.6899 144.5,95.5C 143.167,98.1667 143.167,100.833 144.5,103.5C 148.352,105.173 152.352,106.339 156.5,107C 157.571,107.852 158.571,108.685 159.5,109.5C 159.167,109.5 158.833,109.5 158.5,109.5C 156.079,109.122 153.746,108.455 151.5,107.5C 150.833,107.5 150.167,107.5 149.5,107.5C 143.607,104.919 137.607,102.419 131.5,100C 132.381,99.2917 133.047,98.4584 133.5,97.5C 134.492,97.6716 135.158,97.3382 135.5,96.5C 139.647,93.9248 143.98,91.5915 148.5,89.5 Z"/></g>
<g><path style="opacity:1" fill="#e7f9e8" d="M 103.5,90.5 C 109.992,93.0791 116.659,95.0791 123.5,96.5C 125.696,97.8119 128.03,98.9786 130.5,100C 128.937,100.759 127.937,101.926 127.5,103.5C 126.833,103.5 126.167,103.5 125.5,103.5C 123.621,104.341 121.621,104.675 119.5,104.5C 119.5,104.167 119.5,103.833 119.5,103.5C 112.872,101.738 106.538,99.4043 100.5,96.5C 102.591,96.3184 104.591,96.6518 106.5,97.5C 107.893,96.1369 109.559,95.3036 111.5,95C 108.242,94.2138 105.576,92.7138 103.5,90.5 Z"/></g>
<g><path style="opacity:1" fill="#fcfbfb" d="M 119.5,103.5 C 118.216,101.386 116.216,100.386 113.5,100.5C 113.5,99.5 113.5,98.5 113.5,97.5C 117.163,97.9518 120.83,98.4518 124.5,99C 123.672,99.9147 122.672,100.581 121.5,101C 122.609,102.813 121.942,103.646 119.5,103.5 Z"/></g>
<g><path style="opacity:1" fill="#50a14d" d="M 123.5,96.5 C 126.807,97.0508 130.14,97.3841 133.5,97.5C 133.047,98.4584 132.381,99.2917 131.5,100C 137.607,102.419 143.607,104.919 149.5,107.5C 146.187,106.955 142.854,106.455 139.5,106C 136.105,102.421 132.105,101.587 127.5,103.5C 127.937,101.926 128.937,100.759 130.5,100C 128.03,98.9786 125.696,97.8119 123.5,96.5 Z"/></g>
<g><path style="opacity:1" fill="#8db790" d="M 125.5,103.5 C 125.557,104.609 125.89,105.609 126.5,106.5C 124.215,105.454 121.882,105.454 119.5,106.5C 119.5,105.833 119.5,105.167 119.5,104.5C 121.621,104.675 123.621,104.341 125.5,103.5 Z"/></g>
<g><path style="opacity:1" fill="#d9f3d9" d="M 126.5,106.5 C 128.553,106.402 130.22,107.069 131.5,108.5C 126.33,106.907 121.33,107.24 116.5,109.5C 117.306,108.272 118.306,107.272 119.5,106.5C 121.882,105.454 124.215,105.454 126.5,106.5 Z"/></g>
<g><path style="opacity:1" fill="#fdfefd" d="M 131.5,108.5 C 131.833,108.5 132.167,108.5 132.5,108.5C 133.287,110.104 134.62,110.771 136.5,110.5C 136.5,111.5 136.5,112.5 136.5,113.5C 140.492,114.497 144.492,115.497 148.5,116.5C 150.882,119.94 150.882,123.273 148.5,126.5C 149.809,136.34 150.475,146.34 150.5,156.5C 150.333,166.167 150.167,175.833 150,185.5C 149.586,185.957 149.086,186.291 148.5,186.5C 146.382,185.054 144.049,184.387 141.5,184.5C 137.5,183.5 133.5,182.5 129.5,181.5C 126.167,179.833 122.833,178.167 119.5,176.5C 118.124,173.974 115.958,172.308 113,171.5C 109.901,172.127 106.734,172.127 103.5,171.5C 100.603,170.871 97.936,169.871 95.5,168.5C 92.887,165.84 89.5537,164.507 85.5,164.5C 80.0517,163.24 74.7183,161.573 69.5,159.5C 69.5,158.5 69.5,157.5 69.5,156.5C 66.1401,156.384 62.8067,156.051 59.5,155.5C 57.847,155.34 56.5137,154.674 55.5,153.5C 54.9935,152.141 53.9935,151.141 52.5,150.5C 53.9935,149.859 54.9935,148.859 55.5,147.5C 56.3065,146.272 57.3065,145.272 58.5,144.5C 60.3057,143.976 61.9724,143.309 63.5,142.5C 67.7607,141.751 71.7607,140.251 75.5,138C 77.3806,134.428 80.3806,132.428 84.5,132C 86.1412,130.871 87.1412,129.371 87.5,127.5C 89.0269,127.573 90.0269,126.906 90.5,125.5C 93.1794,124.774 95.846,123.941 98.5,123C 99.3366,121.989 99.67,120.822 99.5,119.5C 100.605,118.4 101.938,117.733 103.5,117.5C 105.848,117.408 107.514,116.408 108.5,114.5C 110.794,112.347 113.46,110.68 116.5,109.5C 121.33,107.24 126.33,106.907 131.5,108.5 Z"/></g>
<g><path style="opacity:1" fill="#c7edc7" d="M 108.5,114.5 C 107.514,116.408 105.848,117.408 103.5,117.5C 104.659,115.75 106.326,114.75 108.5,114.5 Z"/></g>
<g><path style="opacity:1" fill="#d7f2d5" d="M 99.5,119.5 C 99.67,120.822 99.3366,121.989 98.5,123C 95.846,123.941 93.1794,124.774 90.5,125.5C 93.2911,123.265 96.2911,121.265 99.5,119.5 Z"/></g>
<g><path style="opacity:1" fill="#baedbb" d="M 90.5,125.5 C 90.0269,126.906 89.0269,127.573 87.5,127.5C 87.9731,126.094 88.9731,125.427 90.5,125.5 Z"/></g>
<g><path style="opacity:1" fill="#e9faea" d="M 132.5,108.5 C 136.031,110.038 139.697,111.038 143.5,111.5C 145.318,113.567 147.651,114.9 150.5,115.5C 151.5,138.157 151.833,160.824 151.5,183.5C 151.5,185.167 151.5,186.833 151.5,188.5C 147.703,188.128 144.37,186.794 141.5,184.5C 144.049,184.387 146.382,185.054 148.5,186.5C 149.086,186.291 149.586,185.957 150,185.5C 150.167,175.833 150.333,166.167 150.5,156.5C 150.475,146.34 149.809,136.34 148.5,126.5C 150.882,123.273 150.882,119.94 148.5,116.5C 144.492,115.497 140.492,114.497 136.5,113.5C 136.5,112.5 136.5,111.5 136.5,110.5C 134.62,110.771 133.287,110.104 132.5,108.5 Z"/></g>
<g><path style="opacity:1" fill="#46a147" d="M 143.5,111.5 C 146.881,111.427 149.881,112.427 152.5,114.5C 153.5,137.49 153.833,160.49 153.5,183.5C 152.833,183.5 152.167,183.5 151.5,183.5C 151.833,160.824 151.5,138.157 150.5,115.5C 147.651,114.9 145.318,113.567 143.5,111.5 Z"/></g>
<g><path style="opacity:1" fill="#36a837" d="M 149.5,107.5 C 150.167,107.5 150.833,107.5 151.5,107.5C 152.211,109.201 153.545,110.201 155.5,110.5C 156.657,136.094 156.823,161.761 156,187.5C 155.333,188.167 154.667,188.833 154,189.5C 153.505,187.527 153.338,185.527 153.5,183.5C 153.833,160.49 153.5,137.49 152.5,114.5C 149.881,112.427 146.881,111.427 143.5,111.5C 139.697,111.038 136.031,110.038 132.5,108.5C 132.167,108.5 131.833,108.5 131.5,108.5C 130.22,107.069 128.553,106.402 126.5,106.5C 125.89,105.609 125.557,104.609 125.5,103.5C 126.167,103.5 126.833,103.5 127.5,103.5C 132.105,101.587 136.105,102.421 139.5,106C 142.854,106.455 146.187,106.955 149.5,107.5 Z"/></g>
<g><path style="opacity:1" fill="#499e48" d="M 151.5,107.5 C 153.746,108.455 156.079,109.122 158.5,109.5C 158.831,139.338 158.498,169.005 157.5,198.5C 151.871,197.071 146.537,195.071 141.5,192.5C 146.709,193.052 151.709,194.386 156.5,196.5C 156.833,182.167 157.167,167.833 157.5,153.5C 157.499,138.817 156.833,124.484 155.5,110.5C 153.545,110.201 152.211,109.201 151.5,107.5 Z"/></g>
<g><path style="opacity:1" fill="#89d086" d="M 158.5,109.5 C 158.833,109.5 159.167,109.5 159.5,109.5C 159.5,139.5 159.5,169.5 159.5,199.5C 158.833,199.5 158.167,199.5 157.5,199.5C 157.5,199.167 157.5,198.833 157.5,198.5C 158.498,169.005 158.831,139.338 158.5,109.5 Z"/></g>
<g><path style="opacity:1" fill="#e1f8e1" d="M 87.5,127.5 C 87.1412,129.371 86.1412,130.871 84.5,132C 80.3806,132.428 77.3806,134.428 75.5,138C 71.7607,140.251 67.7607,141.751 63.5,142.5C 66.319,139.925 69.319,137.592 72.5,135.5C 77.4732,132.879 82.4732,130.212 87.5,127.5 Z"/></g>
<g><path style="opacity:1" fill="#49a149" d="M 72.5,135.5 C 69.319,137.592 66.319,139.925 63.5,142.5C 61.9724,143.309 60.3057,143.976 58.5,144.5C 58.4802,142.857 59.1468,141.524 60.5,140.5C 64.5217,138.821 68.5217,137.154 72.5,135.5 Z"/></g>
<g><path style="opacity:1" fill="#dcf8d7" d="M 53.5,147.5 C 54.1667,147.5 54.8333,147.5 55.5,147.5C 54.9935,148.859 53.9935,149.859 52.5,150.5C 53.9935,151.141 54.9935,152.141 55.5,153.5C 48.4783,153.191 47.8117,151.191 53.5,147.5 Z"/></g>
<g><path style="opacity:1" fill="#31a733" d="M 42.5,151.5 C 45.8915,152.287 48.8915,153.787 51.5,156C 49.3168,157.694 46.9835,157.861 44.5,156.5C 42.9951,155.158 42.3285,153.492 42.5,151.5 Z"/></g>
<g><path style="opacity:1" fill="#d2f3d2" d="M 59.5,155.5 C 62.8067,156.051 66.1401,156.384 69.5,156.5C 69.5,157.5 69.5,158.5 69.5,159.5C 65.9581,158.46 62.6248,157.126 59.5,155.5 Z"/></g>
<g><path style="opacity:1" fill="#d8f3d6" d="M 47.5,159.5 C 53.9992,161.592 60.3325,163.925 66.5,166.5C 61.3991,165.857 56.3991,164.691 51.5,163C 49.4556,162.502 48.1223,161.335 47.5,159.5 Z"/></g>
<g><path style="opacity:1" fill="#e2f6df" d="M 68.5,167.5 C 69.5,167.5 70.5,167.5 71.5,167.5C 76.8333,169.833 82.1667,172.167 87.5,174.5C 85.8008,174.66 84.1341,174.494 82.5,174C 77.4953,172.078 72.8286,169.912 68.5,167.5 Z"/></g>
<g><path style="opacity:1" fill="#e8fae3" d="M 87.5,174.5 C 95.253,176.263 102.586,178.929 109.5,182.5C 105.203,181.715 101.036,180.381 97,178.5C 92.8276,179.608 89.6609,178.275 87.5,174.5 Z"/></g>
<g><path style="opacity:1" fill="#ddf3d6" d="M 119.5,185.5 C 123.395,186.462 127.061,187.796 130.5,189.5C 126.042,189.857 122.376,188.524 119.5,185.5 Z"/></g>
<g><path style="opacity:1" fill="#3da43c" d="M 155.5,110.5 C 156.833,124.484 157.499,138.817 157.5,153.5C 157.167,167.833 156.833,182.167 156.5,196.5C 151.709,194.386 146.709,193.052 141.5,192.5C 139.435,192.483 137.435,192.15 135.5,191.5C 134.07,190.463 132.403,189.796 130.5,189.5C 127.061,187.796 123.395,186.462 119.5,185.5C 116.358,184.21 113.025,183.21 109.5,182.5C 102.586,178.929 95.253,176.263 87.5,174.5C 82.1667,172.167 76.8333,169.833 71.5,167.5C 71.9175,166.778 72.5842,166.278 73.5,166C 65.8752,165.265 65.7085,164.098 73,162.5C 77.5966,164.755 82.4299,166.089 87.5,166.5C 90.221,166.963 92.8877,167.629 95.5,168.5C 97.936,169.871 100.603,170.871 103.5,171.5C 106.992,173.069 110.659,174.402 114.5,175.5C 114.5,176.5 114.5,177.5 114.5,178.5C 119.613,179.326 124.613,180.326 129.5,181.5C 133.5,182.5 137.5,183.5 141.5,184.5C 144.37,186.794 147.703,188.128 151.5,188.5C 151.5,186.833 151.5,185.167 151.5,183.5C 152.167,183.5 152.833,183.5 153.5,183.5C 153.338,185.527 153.505,187.527 154,189.5C 154.667,188.833 155.333,188.167 156,187.5C 156.823,161.761 156.657,136.094 155.5,110.5 Z"/></g>
<g><path style="opacity:1" fill="#5ea95b" d="M 114.5,175.5 C 116.216,175.629 117.883,175.962 119.5,176.5C 122.833,178.167 126.167,179.833 129.5,181.5C 124.613,180.326 119.613,179.326 114.5,178.5C 114.5,177.5 114.5,176.5 114.5,175.5 Z"/></g>
<g><path style="opacity:1" fill="#e4f7e2" d="M 103.5,171.5 C 106.734,172.127 109.901,172.127 113,171.5C 115.958,172.308 118.124,173.974 119.5,176.5C 117.883,175.962 116.216,175.629 114.5,175.5C 110.659,174.402 106.992,173.069 103.5,171.5 Z"/></g>
<g><path style="opacity:1" fill="#dcf8d9" d="M 85.5,164.5 C 89.5537,164.507 92.887,165.84 95.5,168.5C 92.8877,167.629 90.221,166.963 87.5,166.5C 86.8333,165.833 86.1667,165.167 85.5,164.5 Z"/></g>
<g><path style="opacity:1" fill="#ebfae7" d="M 135.5,191.5 C 137.435,192.15 139.435,192.483 141.5,192.5C 146.537,195.071 151.871,197.071 157.5,198.5C 157.5,198.833 157.5,199.167 157.5,199.5C 156.167,199.5 154.833,199.5 153.5,199.5C 148.47,197.39 143.137,195.89 137.5,195C 136.027,194.29 135.36,193.124 135.5,191.5 Z"/></g>
</svg>
