<?xml version="1.0" standalone="no"?>
<!DOCTYPE svg PUBLIC "-//W3C//DTD SVG 20010904//EN"
 "http://www.w3.org/TR/2001/REC-SVG-20010904/DTD/svg10.dtd">
<svg version="1.0" xmlns="http://www.w3.org/2000/svg"
 width="66.000000pt" height="48.000000pt" viewBox="0 0 66.000000 48.000000"
 preserveAspectRatio="xMidYMid meet">

<g transform="translate(0.000000,48.000000) scale(0.100000,-0.100000)"
fill="#000000" stroke="none">
<path d="M218 428 c-54 -28 -98 -54 -98 -58 0 -4 45 -30 100 -59 l100 -52 100
51 c55 29 100 55 100 59 0 7 -191 111 -201 111 -2 0 -48 -24 -101 -52z"/>
<path d="M86 293 c-37 -19 -37 -19 119 -99 l114 -59 68 33 c37 19 97 50 132
69 60 34 63 37 45 50 -40 29 -62 26 -154 -21 l-90 -47 -88 46 c-97 50 -104 51
-146 28z"/>
<path d="M40 195 l-44 -22 25 -15 c13 -8 86 -47 162 -87 l137 -71 148 76 c81
43 153 82 160 87 11 8 4 16 -29 32 l-42 22 -119 -61 -118 -61 -118 61 -119 61
-43 -22z"/>
</g>
</svg>
