<?xml version="1.0" encoding="UTF-8"?>
<!DOCTYPE svg PUBLIC "-//W3C//DTD SVG 1.1//EN" "http://www.w3.org/Graphics/SVG/1.1/DTD/svg11.dtd">
<svg xmlns="http://www.w3.org/2000/svg" version="1.1" width="503px" height="401px" style="shape-rendering:geometricPrecision; text-rendering:geometricPrecision; image-rendering:optimizeQuality; fill-rule:evenodd; clip-rule:evenodd" xmlns:xlink="http://www.w3.org/1999/xlink">
<g><path style="opacity:1" fill="#fefefe" d="M -0.5,-0.5 C 167.167,-0.5 334.833,-0.5 502.5,-0.5C 502.5,133.167 502.5,266.833 502.5,400.5C 334.833,400.5 167.167,400.5 -0.5,400.5C -0.5,266.833 -0.5,133.167 -0.5,-0.5 Z"/></g>
<g><path style="opacity:1" fill="#0bc269" d="M 12.5,395.5 C 11.5005,282.335 11.1672,169.001 11.5,55.5C 14.5761,39.1989 23.2428,26.6989 37.5,18C 42.3873,15.7232 47.3873,13.7232 52.5,12C 186.196,11.0102 319.863,11.3435 453.5,13C 474.291,19.4572 487.124,33.2905 492,54.5C 492.667,130.5 492.667,206.5 492,282.5C 485.62,307.926 469.454,322.093 443.5,325C 323.5,325.333 203.5,325.667 83.5,326C 59.6602,349.007 35.9935,372.173 12.5,395.5 Z"/></g>
<g><path style="opacity:1" fill="#3fcf89" d="M 11.5,55.5 C 11.1672,169.001 11.5005,282.335 12.5,395.5C 12.44,396.043 12.1067,396.376 11.5,396.5C 10.1676,282.667 10.1676,169.001 11.5,55.5 Z"/></g>
<g><path style="opacity:1" fill="#fdfefe" d="M 106.5,83.5 C 114.667,83.3236 120.167,86.9903 123,94.5C 123.667,146.167 123.667,197.833 123,249.5C 120.742,256.396 115.908,260.063 108.5,260.5C 101.982,259.481 97.8153,255.814 96,249.5C 95.3333,197.5 95.3333,145.5 96,93.5C 98.1059,88.5573 101.606,85.224 106.5,83.5 Z"/></g>
<g><path style="opacity:1" fill="#fcfefd" d="M 169.5,87.5 C 186.363,86.5225 192.863,94.1892 189,110.5C 184.351,117.499 177.851,119.999 169.5,118C 160.518,113.527 157.351,106.36 160,96.5C 162.406,92.5915 165.572,89.5915 169.5,87.5 Z"/></g>
<g><path style="opacity:1" fill="#fdfefe" d="M 249.5,112.5 C 253.594,111.705 256.761,113.038 259,116.5C 259.5,122.825 259.666,129.158 259.5,135.5C 268.506,135.334 277.506,135.5 286.5,136C 296.045,140.77 297.878,147.603 292,156.5C 289.913,157.794 287.746,158.961 285.5,160C 277.173,160.5 268.84,160.666 260.5,160.5C 260.029,184.899 260.529,209.232 262,233.5C 264.653,235.941 267.82,236.941 271.5,236.5C 277.466,235.338 283.466,234.838 289.5,235C 295.823,237.811 298.323,242.645 297,249.5C 296.117,252.102 294.617,254.269 292.5,256C 276.789,263.327 261.122,263.327 245.5,256C 238.539,251.357 234.372,244.857 233,236.5C 232.5,211.169 232.333,185.836 232.5,160.5C 227.156,160.666 221.823,160.499 216.5,160C 212.489,157.649 210.989,154.149 212,149.5C 224.341,136.992 236.841,124.659 249.5,112.5 Z"/></g>
<g><path style="opacity:1" fill="#fdfefe" d="M 417.5,207.5 C 391.833,207.5 366.167,207.5 340.5,207.5C 340.263,208.791 340.596,209.791 341.5,210.5C 343.699,220.394 349.366,227.56 358.5,232C 375.411,237.34 391.744,236.007 407.5,228C 422.422,227.012 427.255,233.512 422,247.5C 414.292,253.936 405.459,258.103 395.5,260C 337.158,268.317 309.324,243.151 312,184.5C 317.941,152.224 337.274,135.224 370,133.5C 406.03,135.362 425.53,154.362 428.5,190.5C 429.993,199.649 426.326,205.316 417.5,207.5 Z"/></g>
<g><path style="opacity:1" fill="#fefefe" d="M 170.5,134.5 C 178.144,133.428 183.977,136.095 188,142.5C 188.667,178.833 188.667,215.167 188,251.5C 183,259.5 176.167,261.667 167.5,258C 164.865,256.039 163.031,253.539 162,250.5C 161.333,214.833 161.333,179.167 162,143.5C 163.688,139.315 166.521,136.315 170.5,134.5 Z"/></g>
<g><path style="opacity:1" fill="#13c26b" d="M 366.5,157.5 C 385.605,156.955 396.938,165.955 400.5,184.5C 380.5,184.5 360.5,184.5 340.5,184.5C 343.092,169.576 351.758,160.576 366.5,157.5 Z"/></g>
<g><path style="opacity:1" fill="#82dfb3" d="M 417.5,207.5 C 391.984,207.836 366.65,208.836 341.5,210.5C 340.596,209.791 340.263,208.791 340.5,207.5C 366.167,207.5 391.833,207.5 417.5,207.5 Z"/></g>
</svg>
