<?xml version="1.0" standalone="no"?>
<!DOCTYPE svg PUBLIC "-//W3C//DTD SVG 20010904//EN"
 "http://www.w3.org/TR/2001/REC-SVG-20010904/DTD/svg10.dtd">
<svg version="1.0" xmlns="http://www.w3.org/2000/svg"
 width="700.000000pt" height="700.000000pt" viewBox="0 0 700.000000 700.000000"
 preserveAspectRatio="xMidYMid meet">

<g transform="translate(0.000000,700.000000) scale(0.100000,-0.100000)"
fill="#000000" stroke="none">
<path d="M3593 6290 c-644 -51 -1351 -271 -1863 -581 -881 -534 -1185 -1359
-954 -2589 104 -555 333 -1135 602 -1525 308 -445 712 -727 1197 -834 602
-132 1390 -38 2135 256 1050 414 1549 1052 1586 2024 29 767 -252 1753 -674
2364 -164 238 -341 417 -551 557 -250 167 -505 262 -841 313 -126 19 -480 27
-637 15z m452 -1090 c160 -43 296 -120 419 -239 174 -168 295 -379 370 -649
74 -262 76 -547 5 -780 -59 -193 -199 -389 -364 -508 -79 -57 -244 -132 -350
-159 -178 -45 -396 -32 -547 34 -27 11 -48 19 -48 17 0 -4 24 -94 200 -750 34
-125 60 -229 58 -231 -2 -1 -97 -28 -213 -59 -115 -30 -250 -67 -300 -80 -49
-14 -93 -21 -96 -18 -3 4 -56 198 -119 432 -62 234 -139 522 -171 640 -31 118
-106 395 -164 615 -173 646 -212 786 -223 797 -8 8 -44 3 -128 -21 -64 -17
-119 -30 -121 -27 -6 5 -143 516 -143 531 0 6 127 44 283 85 239 64 294 75
362 75 70 0 86 -4 128 -28 26 -15 59 -46 73 -67 l26 -40 40 62 c130 201 369
342 656 388 89 14 276 4 367 -20z"/>
<path d="M3586 4614 c-168 -41 -295 -167 -342 -341 -8 -34 -15 -100 -15 -158
0 -230 86 -460 226 -601 121 -123 259 -170 405 -140 104 22 175 60 246 130 66
67 105 136 130 236 24 96 15 275 -21 395 -107 363 -349 547 -629 479z"/>
</g>
</svg>
