<?xml version="1.0" encoding="UTF-8"?>
<!DOCTYPE svg PUBLIC "-//W3C//DTD SVG 1.1//EN" "http://www.w3.org/Graphics/SVG/1.1/DTD/svg11.dtd">
<svg xmlns="http://www.w3.org/2000/svg" version="1.1" width="89px" height="89px" style="shape-rendering:geometricPrecision; text-rendering:geometricPrecision; image-rendering:optimizeQuality; fill-rule:evenodd; clip-rule:evenodd" xmlns:xlink="http://www.w3.org/1999/xlink">
<g><path style="opacity:1" fill="#f5a419" d="M -0.5,-0.5 C 29.1667,-0.5 58.8333,-0.5 88.5,-0.5C 88.5,29.1667 88.5,58.8333 88.5,88.5C 58.8333,88.5 29.1667,88.5 -0.5,88.5C -0.5,58.8333 -0.5,29.1667 -0.5,-0.5 Z"/></g>
<g><path style="opacity:1" fill="#fdebce" d="M 51.5,52.5 C 52.4614,50.7354 52.7947,48.7354 52.5,46.5C 51.5,46.5 50.5,46.5 49.5,46.5C 41.6859,43.5466 38.5192,37.8799 40,29.5C 45.2704,18.6941 53.7704,15.3607 65.5,19.5C 67.6061,18.5705 69.6061,17.4038 71.5,16C 74.7603,15.2165 77.9269,15.3832 81,16.5C 81.4966,18.8098 81.6633,21.1432 81.5,23.5C 78.5525,23.2229 75.7191,23.5562 73,24.5C 75.2601,30.541 74.9267,36.541 72,42.5C 68.7056,45.397 64.8722,47.0637 60.5,47.5C 60.5,49.1667 60.5,50.8333 60.5,52.5C 68.1251,52.0683 74.2918,54.735 79,60.5C 80.8794,67.1013 79.0461,72.268 73.5,76C 62.9584,79.6478 52.6251,79.3144 42.5,75C 37.8403,69.5493 37.3403,63.716 41,57.5C 44.0508,54.8913 47.5508,53.2246 51.5,52.5 Z"/></g>
<g><path style="opacity:1" fill="#fffbf7" d="M 21.5,17.5 C 26.3329,17.3746 30.9996,18.2079 35.5,20C 37.9475,22.5294 37.9475,25.1961 35.5,28C 32.4342,27.4128 29.2675,26.9128 26,26.5C 20.3442,26.3057 19.1776,28.4723 22.5,33C 26.9789,34.271 31.3122,35.9377 35.5,38C 42.2411,45.2579 41.9078,52.2579 34.5,59C 28.7243,61.3941 22.7243,62.0607 16.5,61C 7.09769,57.8616 6.43102,53.6949 14.5,48.5C 19.1316,54.136 24.2983,54.8026 30,50.5C 30.9201,47.6917 30.0867,45.5251 27.5,44C 23.0211,42.729 18.6878,41.0623 14.5,39C 7.42526,28.7443 9.7586,21.5776 21.5,17.5 Z"/></g>
<g><path style="opacity:1" fill="#f5a620" d="M 54.5,25.5 C 62.3204,25.152 65.8204,28.8186 65,36.5C 60.8667,40.9 56.2,41.5667 51,38.5C 48.1858,32.9385 49.3525,28.6051 54.5,25.5 Z"/></g>
<g><path style="opacity:1" fill="#fad087" d="M 49.5,46.5 C 50.5,46.5 51.5,46.5 52.5,46.5C 52.7947,48.7354 52.4614,50.7354 51.5,52.5C 51.7413,50.1137 51.0746,48.1137 49.5,46.5 Z"/></g>
<g><path style="opacity:1" fill="#f5a51e" d="M 52.5,59.5 C 58.072,58.9896 63.4053,59.8229 68.5,62C 70.4441,66.0348 69.4441,69.0348 65.5,71C 60.3822,71.888 55.3822,71.5547 50.5,70C 47.4597,65.7363 48.1263,62.2363 52.5,59.5 Z"/></g>
</svg>
