<?xml version="1.0" encoding="UTF-8"?>
<!DOCTYPE svg PUBLIC "-//W3C//DTD SVG 1.1//EN" "http://www.w3.org/Graphics/SVG/1.1/DTD/svg11.dtd">
<svg xmlns="http://www.w3.org/2000/svg" version="1.1" width="400px" height="400px" style="shape-rendering:geometricPrecision; text-rendering:geometricPrecision; image-rendering:optimizeQuality; fill-rule:evenodd; clip-rule:evenodd" xmlns:xlink="http://www.w3.org/1999/xlink">
<g><path style="opacity:1" fill="#e47bd8" d="M 192.5,-0.5 C 198.5,-0.5 204.5,-0.5 210.5,-0.5C 209.737,0.26791 208.737,0.76791 207.5,1C 212.07,1.46228 216.57,2.29562 221,3.5C 223.808,2.61369 226.641,2.44702 229.5,3C 245.449,6.28631 261.116,10.6196 276.5,16C 277.5,17 278.5,18 279.5,19C 285.184,20.6791 290.684,22.8458 296,25.5C 296.671,24.7476 297.504,24.4142 298.5,24.5C 298.833,24.5 299.167,24.5 299.5,24.5C 298.638,25.3902 298.138,26.3902 298,27.5C 300.951,28.7269 303.784,30.0602 306.5,31.5C 306.5,32.5 306.5,33.5 306.5,34.5C 305.5,34.5 304.5,34.5 303.5,34.5C 303.215,36.288 303.548,37.9547 304.5,39.5C 305.833,38.1667 307.167,36.8333 308.5,35.5C 312.091,37.4644 315.758,39.1311 319.5,40.5C 319.281,41.675 319.614,42.675 320.5,43.5C 322.996,44.5804 325.33,45.9138 327.5,47.5C 335.843,55.1761 343.843,63.1761 351.5,71.5C 366.411,90.2831 378.245,110.95 387,133.5C 389.755,143.808 392.421,154.142 395,164.5C 394.681,173.595 395.681,182.595 398,191.5C 398.191,189.292 398.691,187.292 399.5,185.5C 399.5,194.833 399.5,204.167 399.5,213.5C 398.71,212.391 398.21,211.058 398,209.5C 396.357,214.973 395.857,220.473 396.5,226C 392.285,251.015 384.618,274.348 373.5,296C 373.833,296.333 374.167,296.667 374.5,297C 373.234,297.309 372.067,297.809 371,298.5C 370.82,300.488 370.986,302.488 371.5,304.5C 370.213,305.768 369.213,305.435 368.5,303.5C 367.269,304.651 367.269,305.817 368.5,307C 365.007,307.165 363.174,308.998 363,312.5C 357.463,317.39 353.463,323.39 351,330.5C 350.667,330.167 350.333,329.833 350,329.5C 349.097,330.701 347.931,331.535 346.5,332C 345.663,333.011 345.33,334.178 345.5,335.5C 344.5,335.5 343.5,335.5 342.5,335.5C 342.703,337.39 342.037,338.89 340.5,340C 337.667,341.833 334.833,343.667 332,345.5C 330.441,347.217 329.608,349.217 329.5,351.5C 326.359,351.949 323.359,352.949 320.5,354.5C 319.571,355.689 319.238,357.022 319.5,358.5C 314.588,360.209 310.254,363.042 306.5,367C 297.422,372.125 288.089,376.958 278.5,381.5C 280.11,381.407 281.776,381.74 283.5,382.5C 282.833,382.833 282.167,383.167 281.5,383.5C 279.856,383.714 278.356,383.38 277,382.5C 269.931,385.19 262.764,387.69 255.5,390C 252.953,390.66 250.453,390.493 248,389.5C 238.88,394.607 229.047,396.773 218.5,396C 214.886,396.945 211.219,397.612 207.5,398C 206.944,398.383 206.611,398.883 206.5,399.5C 199.833,399.5 193.167,399.5 186.5,399.5C 187.711,397.437 186.877,396.437 184,396.5C 180.322,395.296 176.655,395.296 173,396.5C 161.474,394.893 150.308,392.393 139.5,389C 133.916,386.774 128.249,384.607 122.5,382.5C 115.216,378.836 107.883,375.169 100.5,371.5C 98.9547,370.548 97.288,370.215 95.5,370.5C 95.5,369.5 95.5,368.5 95.5,367.5C 93.7741,367.815 92.1075,367.981 90.5,368C 91.8333,366.667 91.8333,365.333 90.5,364C 86.6702,362.298 83.0036,360.465 79.5,358.5C 79.5,357.5 79.5,356.5 79.5,355.5C 78.448,355.649 77.448,355.483 76.5,355C 72.2489,350.869 67.5823,347.203 62.5,344C 62.8333,343.667 63.1667,343.333 63.5,343C 60.2151,341.221 57.8817,338.721 56.5,335.5C 55.5,335.5 54.5,335.5 53.5,335.5C 52.2265,331.303 49.7265,327.97 46,325.5C 45.1376,323.913 44.4709,322.246 44,320.5C 42.9887,319.663 41.8221,319.33 40.5,319.5C 40.627,316.755 39.4603,314.755 37,313.5C 36.4033,310.321 34.7367,307.987 32,306.5C 30.7267,304.286 29.7267,301.953 29,299.5C 26.1287,296.254 23.6287,292.754 21.5,289C 21.8333,288.667 22.1667,288.333 22.5,288C 20.632,284.849 19.632,281.349 19.5,277.5C 18.1779,277.67 17.0113,277.337 16,276.5C 13.8221,269.458 11.4887,262.458 9,255.5C 4.57944,240.244 1.91277,224.577 1,208.5C 0.78997,210.058 0.28997,211.391 -0.5,212.5C -0.5,203.833 -0.5,195.167 -0.5,186.5C 0.301916,187.952 0.801916,189.618 1,191.5C 1.5,188 2,184.5 2.5,181C 2.74567,178.328 2.079,176.828 0.5,176.5C 0.4823,174.627 0.9823,174.294 2,175.5C 5.87344,157.571 10.5401,139.904 16,122.5C 19.2654,118.417 21.5988,113.75 23,108.5C 26.2602,103.313 28.9269,97.9797 31,92.5C 29.7189,93.6467 29.3856,93.3134 30,91.5C 31.3988,91.4988 32.8988,91.1654 34.5,90.5C 38.3832,84.3151 42.5498,78.3151 47,72.5C 47.4696,71.4232 47.3029,70.4232 46.5,69.5C 47.8474,70.0283 49.1807,70.195 50.5,70C 51.8621,67.9656 52.8621,65.7989 53.5,63.5C 56.9301,61.2512 60.2635,58.7512 63.5,56C 63.1667,55.6667 62.8333,55.3333 62.5,55C 65.9669,53.3279 68.3002,50.8279 69.5,47.5C 73.5822,46.6172 76.9156,44.4506 79.5,41C 83.5096,39.6572 87.0096,37.4905 90,34.5C 89.1493,31.032 90.4827,30.032 94,31.5C 123.953,12.8469 156.453,2.68022 191.5,1C 192.056,0.617425 192.389,0.117425 192.5,-0.5 Z M 74.5,230.5 C 76.337,230.639 76.6704,231.306 75.5,232.5C 74.7025,232.043 74.3691,231.376 74.5,230.5 Z"/></g>
<g><path style="opacity:0.475" fill="#d587c9" d="M 161.5,-0.5 C 171.833,-0.5 182.167,-0.5 192.5,-0.5C 192.389,0.117425 192.056,0.617425 191.5,1C 156.453,2.68022 123.953,12.8469 94,31.5C 90.4827,30.032 89.1493,31.032 90,34.5C 87.0096,37.4905 83.5096,39.6572 79.5,41C 76.9156,44.4506 73.5822,46.6172 69.5,47.5C 68.3002,50.8279 65.9669,53.3279 62.5,55C 62.8333,55.3333 63.1667,55.6667 63.5,56C 60.2635,58.7512 56.9301,61.2512 53.5,63.5C 52.8621,65.7989 51.8621,67.9656 50.5,70C 49.1807,70.195 47.8474,70.0283 46.5,69.5C 47.9605,67.5157 48.6272,65.5157 48.5,63.5C 49.086,63.7093 49.586,64.0426 50,64.5C 55.6568,59.676 60.8235,54.3427 65.5,48.5C 70.7954,44.5401 75.7954,40.2068 80.5,35.5C 84.5891,33.8983 87.9225,31.3983 90.5,28C 97.3567,25.4907 104.023,22.4907 110.5,19C 111.22,16.8777 112.387,16.3777 114,17.5C 117.136,16.0256 119.97,14.1923 122.5,12C 129.183,11.2173 135.35,9.05059 141,5.5C 141.772,5.6448 142.439,5.97814 143,6.5C 148.112,5.09666 153.279,3.76333 158.5,2.5C 160.175,2.1316 161.175,1.1316 161.5,-0.5 Z"/></g>
<g><path style="opacity:0.216" fill="#d487c8" d="M 210.5,-0.5 C 220.5,-0.5 230.5,-0.5 240.5,-0.5C 241.801,0.962245 243.301,2.29558 245,3.5C 249.727,4.91446 254.56,5.74779 259.5,6C 264.361,9.17713 269.695,11.1771 275.5,12C 283.499,15.7085 291.166,19.8751 298.5,24.5C 297.504,24.4142 296.671,24.7476 296,25.5C 290.684,22.8458 285.184,20.6791 279.5,19C 278.5,18 277.5,17 276.5,16C 261.116,10.6196 245.449,6.28631 229.5,3C 226.641,2.44702 223.808,2.61369 221,3.5C 216.57,2.29562 212.07,1.46228 207.5,1C 208.737,0.76791 209.737,0.26791 210.5,-0.5 Z"/></g>
<g><path style="opacity:0.255" fill="#d587c8" d="M 299.5,24.5 C 302.353,25.9528 305.353,27.1194 308.5,28C 312.174,32.0069 316.174,35.6736 320.5,39C 322.992,40.6042 325.659,41.9376 328.5,43C 329.337,44.0113 329.67,45.1779 329.5,46.5C 364.249,74.6089 386.249,110.609 395.5,154.5C 395.818,155.647 396.484,156.481 397.5,157C 396.978,157.561 396.645,158.228 396.5,159C 397.127,161.135 397.627,163.302 398,165.5C 398.232,164.263 398.732,163.263 399.5,162.5C 399.5,165.167 399.5,167.833 399.5,170.5C 398.167,170.833 398.167,171.167 399.5,171.5C 399.5,176.167 399.5,180.833 399.5,185.5C 398.691,187.292 398.191,189.292 398,191.5C 395.681,182.595 394.681,173.595 395,164.5C 392.421,154.142 389.755,143.808 387,133.5C 378.245,110.95 366.411,90.2831 351.5,71.5C 343.843,63.1761 335.843,55.1761 327.5,47.5C 325.33,45.9138 322.996,44.5804 320.5,43.5C 319.614,42.675 319.281,41.675 319.5,40.5C 315.758,39.1311 312.091,37.4644 308.5,35.5C 307.167,36.8333 305.833,38.1667 304.5,39.5C 303.548,37.9547 303.215,36.288 303.5,34.5C 304.5,34.5 305.5,34.5 306.5,34.5C 306.5,33.5 306.5,32.5 306.5,31.5C 303.784,30.0602 300.951,28.7269 298,27.5C 298.138,26.3902 298.638,25.3902 299.5,24.5 Z"/></g>
<g><path style="opacity:1" fill="#da83cd" d="M 95.5,109.5 C 89.4908,109.334 83.4908,109.501 77.5,110C 76.944,110.383 76.6107,110.883 76.5,111.5C 76.46,118.259 74.6267,124.592 71,130.5C 67.6358,131.739 64.1358,132.406 60.5,132.5C 60.5,138.833 60.5,145.167 60.5,151.5C 58.2776,151.441 57.2776,150.275 57.5,148C 58.2403,142.517 58.407,137.017 58,131.5C 62.0404,129.945 66.207,128.611 70.5,127.5C 70.6051,122.958 71.6051,118.624 73.5,114.5C 71.1145,111.311 71.7812,108.477 75.5,106C 81.9453,103.346 88.612,102.846 95.5,104.5C 90.2079,105.495 84.8746,105.828 79.5,105.5C 79.5,106.5 79.5,107.5 79.5,108.5C 85.0262,108.179 90.3595,108.512 95.5,109.5 Z"/></g>
<g><path style="opacity:1" fill="#f0c2e3" d="M 327.5,109.5 C 327.5,109.833 327.5,110.167 327.5,110.5C 320.646,110.176 313.979,110.509 307.5,111.5C 306.503,132.66 306.169,153.993 306.5,175.5C 305.833,154.167 305.167,132.833 304.5,111.5C 303.957,111.44 303.624,111.107 303.5,110.5C 311.472,109.502 319.472,109.169 327.5,109.5 Z"/></g>
<g><path style="opacity:1" fill="#e4a4d8" d="M 327.5,110.5 C 327.5,110.167 327.5,109.833 327.5,109.5C 330.247,109.187 332.914,109.52 335.5,110.5C 335.043,111.298 334.376,111.631 333.5,111.5C 332.503,129.993 332.17,148.659 332.5,167.5C 331.503,149.007 331.17,130.341 331.5,111.5C 330.432,110.566 329.099,110.232 327.5,110.5 Z"/></g>
<g><path style="opacity:0.525" fill="#d587c9" d="M 46.5,69.5 C 47.3029,70.4232 47.4696,71.4232 47,72.5C 42.5498,78.3151 38.3832,84.3151 34.5,90.5C 32.8988,91.1654 31.3988,91.4988 30,91.5C 29.3856,93.3134 29.7189,93.6467 31,92.5C 28.9269,97.9797 26.2602,103.313 23,108.5C 21.5988,113.75 19.2654,118.417 16,122.5C 10.5401,139.904 5.87344,157.571 2,175.5C 0.9823,174.294 0.4823,174.627 0.5,176.5C 2.079,176.828 2.74567,178.328 2.5,181C 2,184.5 1.5,188 1,191.5C 0.801916,189.618 0.301916,187.952 -0.5,186.5C -0.5,181.833 -0.5,177.167 -0.5,172.5C 0.833333,172.167 0.833333,171.833 -0.5,171.5C -0.5,170.167 -0.5,168.833 -0.5,167.5C 0.833333,166.833 0.833333,166.167 -0.5,165.5C -0.5,164.167 -0.5,162.833 -0.5,161.5C 0.378344,159.981 1.37834,159.147 2.5,159C 8.92583,126.561 22.7592,97.0609 44,70.5C 44.6708,69.7476 45.5041,69.4142 46.5,69.5 Z"/></g>
<g><path style="opacity:1" fill="#d381c7" d="M 153.5,126.5 C 148.405,126.221 143.405,126.555 138.5,127.5C 137.602,126.842 136.602,126.176 135.5,125.5C 135.938,124.494 136.604,124.494 137.5,125.5C 138.281,124.263 139.281,123.263 140.5,122.5C 144.111,123.262 147.778,123.762 151.5,124C 152.672,124.419 153.672,125.085 154.5,126C 154.272,126.399 153.938,126.565 153.5,126.5 Z"/></g>
<g><path style="opacity:1" fill="#fcf2f0" d="M 234.5,137.5 C 234.5,138.833 234.5,140.167 234.5,141.5C 230.93,141.099 228.764,139.099 228,135.5C 227.173,136.662 226.34,137.829 225.5,139C 227.349,141.338 229.682,143.171 232.5,144.5C 232.291,145.086 231.957,145.586 231.5,146C 235.004,149.702 235.337,153.702 232.5,158C 234.278,160.225 234.778,162.725 234,165.5C 233.586,165.957 233.086,166.291 232.5,166.5C 231.548,164.955 231.215,163.288 231.5,161.5C 225.011,160.506 223.677,157.173 227.5,151.5C 227.546,148.367 226.546,145.7 224.5,143.5C 223.614,144.325 223.281,145.325 223.5,146.5C 224.5,146.5 225.5,146.5 226.5,146.5C 227.157,151.407 225.99,155.74 223,159.5C 223.405,155.879 223.405,152.213 223,148.5C 222.365,147.034 221.531,145.7 220.5,144.5C 214.833,143.167 209.167,143.167 203.5,144.5C 202.756,147.443 202.256,150.443 202,153.5C 199.315,156.217 197.482,155.55 196.5,151.5C 198.055,149.057 198.722,146.39 198.5,143.5C 194.749,143.082 192.582,144.749 192,148.5C 190.714,142.124 189.714,142.458 189,149.5C 187.342,145.063 187.842,140.73 190.5,136.5C 195.335,134.396 200.669,132.396 206.5,130.5C 205.053,129.065 203.386,128.065 201.5,127.5C 207.828,126.215 214.161,126.215 220.5,127.5C 223.085,126.927 224.085,125.261 223.5,122.5C 224.117,122.611 224.617,122.944 225,123.5C 226.673,120.999 228.507,118.666 230.5,116.5C 232.924,117.423 234.924,118.923 236.5,121C 237.448,121.483 238.448,121.649 239.5,121.5C 239.5,123.5 239.5,125.5 239.5,127.5C 236.273,128.744 232.939,129.91 229.5,131C 231.79,132.777 233.457,134.944 234.5,137.5 Z"/></g>
<g><path style="opacity:1" fill="#ffecf5" d="M 307.5,111.5 C 313.979,110.509 320.646,110.176 327.5,110.5C 329.099,110.232 330.432,110.566 331.5,111.5C 328.833,111.5 326.167,111.5 323.5,111.5C 322.868,128.005 323.535,144.338 325.5,160.5C 325.081,161.672 324.415,162.672 323.5,163.5C 322.828,162.051 322.161,160.718 321.5,159.5C 321.5,143.5 321.5,127.5 321.5,111.5C 320.167,111.5 318.833,111.5 317.5,111.5C 316.833,175.5 316.167,175.5 315.5,111.5C 314.5,111.5 313.5,111.5 312.5,111.5C 310.833,111.5 309.167,111.5 307.5,111.5 Z"/></g>
<g><path style="opacity:1" fill="#d8a0cb" d="M 95.5,109.5 C 95.5,116.167 95.5,122.833 95.5,129.5C 100.179,129.334 104.845,129.501 109.5,130C 110.428,130.388 111.095,131.055 111.5,132C 110.396,134.009 109.729,136.176 109.5,138.5C 110.033,141.162 110.033,143.662 109.5,146C 109.903,147.473 110.57,148.806 111.5,150C 110.756,151.039 109.756,151.539 108.5,151.5C 108.5,144.5 108.5,137.5 108.5,130.5C 103.833,130.5 99.1667,130.5 94.5,130.5C 94.5,123.833 94.5,117.167 94.5,110.5C 88.4549,110.303 82.4549,110.637 76.5,111.5C 76.6107,110.883 76.944,110.383 77.5,110C 83.4908,109.501 89.4908,109.334 95.5,109.5 Z"/></g>
<g><path style="opacity:1" fill="#db7fd0" d="M 297.5,127.5 C 298.09,128.766 298.59,130.099 299,131.5C 299.333,131.167 299.667,130.833 300,130.5C 300.26,132.618 301.26,134.284 303,135.5C 303.798,137.259 303.631,138.926 302.5,140.5C 301.614,139.675 301.281,138.675 301.5,137.5C 300.325,137.281 299.325,137.614 298.5,138.5C 300.647,144.529 300.98,150.529 299.5,156.5C 299.5,152.167 299.5,147.833 299.5,143.5C 298.178,143.67 297.011,143.337 296,142.5C 296.536,140.553 296.202,138.553 295,136.5C 293.167,134.667 291.333,132.833 289.5,131C 292.438,130.304 295.104,129.138 297.5,127.5 Z"/></g>
<g><path style="opacity:1" fill="#fcf1f2" d="M 108.5,151.5 C 104.167,151.5 99.8333,151.5 95.5,151.5C 95.5,155.833 95.5,160.167 95.5,164.5C 95.393,166.903 96.393,168.736 98.5,170C 101.817,170.498 105.15,170.665 108.5,170.5C 108.814,178.087 108.481,185.587 107.5,193C 98.1875,196.122 88.8541,196.289 79.5,193.5C 79.5,192.833 79.5,192.167 79.5,191.5C 74.9804,188.796 72.1471,184.796 71,179.5C 69.6137,170.234 69.1137,160.9 69.5,151.5C 66.5,151.5 63.5,151.5 60.5,151.5C 60.5,145.167 60.5,138.833 60.5,132.5C 64.1358,132.406 67.6358,131.739 71,130.5C 74.6267,124.592 76.46,118.259 76.5,111.5C 82.4549,110.637 88.4549,110.303 94.5,110.5C 94.5,117.167 94.5,123.833 94.5,130.5C 99.1667,130.5 103.833,130.5 108.5,130.5C 108.5,137.5 108.5,144.5 108.5,151.5 Z"/></g>
<g><path style="opacity:1" fill="#fcf2f2" d="M 297.5,127.5 C 295.104,129.138 292.438,130.304 289.5,131C 291.333,132.833 293.167,134.667 295,136.5C 296.202,138.553 296.536,140.553 296,142.5C 297.011,143.337 298.178,143.67 299.5,143.5C 299.5,147.833 299.5,152.167 299.5,156.5C 297.886,165.453 292.886,171.787 284.5,175.5C 282.299,176.566 279.965,177.233 277.5,177.5C 272.352,178.074 267.518,177.407 263,175.5C 259.651,176.741 258.818,178.908 260.5,182C 261.448,182.483 262.448,182.649 263.5,182.5C 274.172,182.333 284.839,182.5 295.5,183C 298.31,183.906 300.976,185.073 303.5,186.5C 304.809,189.778 306.642,192.778 309,195.5C 310.22,201.897 309.386,207.897 306.5,213.5C 298.324,215.303 289.991,215.97 281.5,215.5C 281.768,213.901 281.434,212.568 280.5,211.5C 279.942,210.21 278.942,209.377 277.5,209C 270.119,208.765 262.786,208.265 255.5,207.5C 255.167,207.5 254.833,207.5 254.5,207.5C 252.633,205.091 250.466,202.758 248,200.5C 245.116,190.316 247.616,181.649 255.5,174.5C 255.043,173.702 254.376,173.369 253.5,173.5C 244.569,164.585 242.069,153.919 246,141.5C 246.833,139.833 247.667,138.167 248.5,136.5C 251.188,134.479 253.521,132.146 255.5,129.5C 263.79,126.514 272.29,125.847 281,127.5C 283.953,123.655 287.119,119.989 290.5,116.5C 293.751,118.375 296.918,120.375 300,122.5C 300.249,124.668 299.416,126.335 297.5,127.5 Z"/></g>
<g><path style="opacity:1" fill="#c883b9" d="M 269.5,146.5 C 277.053,145.882 279.386,149.049 276.5,156C 271.052,158.956 267.719,157.456 266.5,151.5C 266.757,149.308 267.757,147.641 269.5,146.5 Z"/></g>
<g><path style="opacity:1" fill="#e47bdb" d="M 271.5,147.5 C 276.332,148.648 277.332,151.148 274.5,155C 270.872,156.316 268.539,155.149 267.5,151.5C 268.549,149.784 269.882,148.451 271.5,147.5 Z"/></g>
<g><path style="opacity:1" fill="#fceff3" d="M 199.5,127.5 C 200.167,127.5 200.833,127.5 201.5,127.5C 203.386,128.065 205.053,129.065 206.5,130.5C 200.669,132.396 195.335,134.396 190.5,136.5C 187.842,140.73 187.342,145.063 189,149.5C 189.714,142.458 190.714,142.124 192,148.5C 192.582,144.749 194.749,143.082 198.5,143.5C 198.722,146.39 198.055,149.057 196.5,151.5C 197.482,155.55 199.315,156.217 202,153.5C 202.256,150.443 202.756,147.443 203.5,144.5C 209.167,143.167 214.833,143.167 220.5,144.5C 221.531,145.7 222.365,147.034 223,148.5C 223.405,152.213 223.405,155.879 223,159.5C 225.99,155.74 227.157,151.407 226.5,146.5C 225.5,146.5 224.5,146.5 223.5,146.5C 223.281,145.325 223.614,144.325 224.5,143.5C 226.546,145.7 227.546,148.367 227.5,151.5C 223.677,157.173 225.011,160.506 231.5,161.5C 231.215,163.288 231.548,164.955 232.5,166.5C 233.086,166.291 233.586,165.957 234,165.5C 234.778,162.725 234.278,160.225 232.5,158C 235.337,153.702 235.004,149.702 231.5,146C 231.957,145.586 232.291,145.086 232.5,144.5C 229.682,143.171 227.349,141.338 225.5,139C 226.34,137.829 227.173,136.662 228,135.5C 228.764,139.099 230.93,141.099 234.5,141.5C 234.5,140.167 234.5,138.833 234.5,137.5C 238.919,141.428 240.585,146.428 239.5,152.5C 237.057,171.095 226.39,179.595 207.5,178C 204.168,177.751 201.001,176.918 198,175.5C 194.174,176.969 193.674,179.136 196.5,182C 208.208,182.139 219.875,182.806 231.5,184C 235.333,185.68 238.333,188.18 240.5,191.5C 240.557,192.609 240.89,193.609 241.5,194.5C 240.883,194.611 240.383,194.944 240,195.5C 239.751,194.376 239.251,193.376 238.5,192.5C 235.274,191.394 232.607,189.561 230.5,187C 223.323,183.688 221.99,185.022 226.5,191C 220.322,189.786 213.988,188.952 207.5,188.5C 207.5,187.167 207.5,185.833 207.5,184.5C 201.702,185.126 196.369,184.126 191.5,181.5C 188.969,181.955 186.469,182.288 184,182.5C 178.354,191.227 179.687,198.56 188,204.5C 188.47,205.577 188.303,206.577 187.5,207.5C 187.167,207.5 186.833,207.5 186.5,207.5C 183.483,205.562 181.317,202.895 180,199.5C 179.333,194.833 179.333,190.167 180,185.5C 183.594,180.649 187.428,175.983 191.5,171.5C 181.987,160.645 180.987,148.978 188.5,136.5C 191.895,133.098 195.562,130.098 199.5,127.5 Z"/></g>
<g><path style="opacity:1" fill="#dc7dce" d="M 209.5,146.5 C 216,145.499 218.5,148.165 217,154.5C 214.525,157.524 211.525,158.19 208,156.5C 207.063,152.833 207.563,149.499 209.5,146.5 Z"/></g>
<g><path style="opacity:1" fill="#ce96c2" d="M 115.5,143.5 C 115.846,146.845 115.013,150.178 113,153.5C 112.26,159.218 112.427,164.885 113.5,170.5C 112.883,170.389 112.383,170.056 112,169.5C 111.501,164.845 111.334,160.179 111.5,155.5C 112.373,151.135 113.706,147.135 115.5,143.5 Z"/></g>
<g><path style="opacity:1" fill="#da81cd" d="M 199.5,127.5 C 195.562,130.098 191.895,133.098 188.5,136.5C 180.987,148.978 181.987,160.645 191.5,171.5C 187.428,175.983 183.594,180.649 180,185.5C 179.333,190.167 179.333,194.833 180,199.5C 181.317,202.895 183.483,205.562 186.5,207.5C 184.801,207.66 183.134,207.494 181.5,207C 180.07,205.114 178.403,203.447 176.5,202C 177.352,194.897 178.018,187.731 178.5,180.5C 177.5,180.5 176.5,180.5 175.5,180.5C 178.389,174.162 180.055,167.496 180.5,160.5C 179.878,154.727 178.878,149.06 177.5,143.5C 178.141,145.042 179.141,146.376 180.5,147.5C 181.429,146.311 181.762,144.978 181.5,143.5C 182.5,143.5 183.5,143.5 184.5,143.5C 184.681,139.307 186.181,135.641 189,132.5C 191.992,130.594 195.492,128.927 199.5,127.5 Z"/></g>
<g><path style="opacity:1" fill="#d981cb" d="M 111.5,155.5 C 111.334,160.179 111.501,164.845 112,169.5C 112.383,170.056 112.883,170.389 113.5,170.5C 114.269,174.771 115.769,178.771 118,182.5C 121.112,185.101 123.612,188.101 125.5,191.5C 122.898,189.241 120.231,186.907 117.5,184.5C 114.603,180.648 112.769,176.315 112,171.5C 110.21,179.136 110.043,186.802 111.5,194.5C 102.304,196.479 92.9704,196.979 83.5,196C 82.1416,195.066 80.8083,194.232 79.5,193.5C 88.8541,196.289 98.1875,196.122 107.5,193C 108.481,185.587 108.814,178.087 108.5,170.5C 105.15,170.665 101.817,170.498 98.5,170C 96.393,168.736 95.393,166.903 95.5,164.5C 96.1174,164.389 96.6174,164.056 97,163.5C 99.6203,167.036 103.12,168.202 107.5,167C 110.109,163.037 109.443,159.704 105.5,157C 107.25,155.681 109.25,155.181 111.5,155.5 Z"/></g>
<g><path style="opacity:1" fill="#de7dd1" d="M 304.5,111.5 C 305.167,132.833 305.833,154.167 306.5,175.5C 306.872,179.372 307.872,183.039 309.5,186.5C 308.25,186.423 307.417,185.756 307,184.5C 305.887,185.305 304.721,185.972 303.5,186.5C 303.5,185.5 303.5,184.5 303.5,183.5C 300.654,183.41 298.321,182.244 296.5,180C 292.459,179.827 288.459,179.327 284.5,178.5C 285.376,177.749 286.376,177.249 287.5,177C 286.263,176.768 285.263,176.268 284.5,175.5C 292.886,171.787 297.886,165.453 299.5,156.5C 299.991,159.01 300.991,161.344 302.5,163.5C 303.281,162.271 303.781,160.938 304,159.5C 304.5,143.503 304.667,127.503 304.5,111.5 Z"/></g>
<g><path style="opacity:1" fill="#fdf2f2" d="M 307.5,111.5 C 309.167,111.5 310.833,111.5 312.5,111.5C 312.056,132.877 312.723,154.211 314.5,175.5C 317.035,179.079 319.701,179.246 322.5,176C 321.333,175.5 320.5,174.667 320,173.5C 319.667,173.833 319.333,174.167 319,174.5C 318.333,170.833 318.333,167.167 319,163.5C 319.608,161.934 320.442,160.6 321.5,159.5C 322.161,160.718 322.828,162.051 323.5,163.5C 324.415,162.672 325.081,161.672 325.5,160.5C 323.535,144.338 322.868,128.005 323.5,111.5C 326.167,111.5 328.833,111.5 331.5,111.5C 331.17,130.341 331.503,149.007 332.5,167.5C 333.607,169.969 335.607,170.969 338.5,170.5C 338.831,178.196 338.497,185.862 337.5,193.5C 336.692,193.808 336.025,194.308 335.5,195C 331.179,195.499 326.846,195.666 322.5,195.5C 320.723,194.4 318.723,193.566 316.5,193C 314.95,189.949 312.617,187.782 309.5,186.5C 307.872,183.039 306.872,179.372 306.5,175.5C 306.169,153.993 306.503,132.66 307.5,111.5 Z"/></g>
<g><path style="opacity:1" fill="#fcf4ed" d="M 312.5,111.5 C 313.5,111.5 314.5,111.5 315.5,111.5C 316.167,175.5 316.833,175.5 317.5,111.5C 318.833,111.5 320.167,111.5 321.5,111.5C 321.5,127.5 321.5,143.5 321.5,159.5C 320.442,160.6 319.608,161.934 319,163.5C 318.333,167.167 318.333,170.833 319,174.5C 319.333,174.167 319.667,173.833 320,173.5C 320.5,174.667 321.333,175.5 322.5,176C 319.701,179.246 317.035,179.079 314.5,175.5C 312.723,154.211 312.056,132.877 312.5,111.5 Z"/></g>
<g><path style="opacity:1" fill="#fcf2f2" d="M 153.5,126.5 C 161.247,128.298 167.747,132.298 173,138.5C 172.734,141.901 174.234,143.567 177.5,143.5C 178.878,149.06 179.878,154.727 180.5,160.5C 180.055,167.496 178.389,174.162 175.5,180.5C 175.5,180.833 175.5,181.167 175.5,181.5C 171.833,184.5 168.5,187.833 165.5,191.5C 164.209,191.263 163.209,191.596 162.5,192.5C 151.474,196.456 140.474,196.456 129.5,192.5C 128.432,191.566 127.099,191.232 125.5,191.5C 123.612,188.101 121.112,185.101 118,182.5C 115.769,178.771 114.269,174.771 113.5,170.5C 112.427,164.885 112.26,159.218 113,153.5C 115.013,150.178 115.846,146.845 115.5,143.5C 119.757,136.417 125.757,131.25 133.5,128C 135.134,127.506 136.801,127.34 138.5,127.5C 143.405,126.555 148.405,126.221 153.5,126.5 Z"/></g>
<g><path style="opacity:1" fill="#d089c2" d="M 150.5,166.5 C 143.984,169.909 139.984,167.909 138.5,160.5C 138.574,155.593 141.074,153.259 146,153.5C 150.926,153.259 153.426,155.593 153.5,160.5C 153.533,163.102 152.533,165.102 150.5,166.5 Z"/></g>
<g><path style="opacity:1" fill="#e47ad8" d="M 150.5,166.5 C 142.192,167.367 139.192,163.867 141.5,156C 151.241,153.489 154.241,156.989 150.5,166.5 Z"/></g>
<g><path style="opacity:1" fill="#d686cb" d="M 333.5,111.5 C 333.167,129.845 333.5,148.179 334.5,166.5C 337.713,166.722 339.546,168.388 340,171.5C 340.5,179.493 340.666,187.493 340.5,195.5C 334.357,196.719 328.357,196.719 322.5,195.5C 326.846,195.666 331.179,195.499 335.5,195C 336.025,194.308 336.692,193.808 337.5,193.5C 338.497,185.862 338.831,178.196 338.5,170.5C 335.607,170.969 333.607,169.969 332.5,167.5C 332.17,148.659 332.503,129.993 333.5,111.5 Z"/></g>
<g><path style="opacity:1" fill="#d89ccf" d="M 277.5,177.5 C 272.695,178.487 267.695,178.821 262.5,178.5C 262.433,179.959 262.766,181.292 263.5,182.5C 262.448,182.649 261.448,182.483 260.5,182C 258.818,178.908 259.651,176.741 263,175.5C 267.518,177.407 272.352,178.074 277.5,177.5 Z"/></g>
<g><path style="opacity:1" fill="#d481c7" d="M 284.5,175.5 C 285.263,176.268 286.263,176.768 287.5,177C 286.376,177.249 285.376,177.749 284.5,178.5C 288.459,179.327 292.459,179.827 296.5,180C 298.321,182.244 300.654,183.41 303.5,183.5C 303.5,184.5 303.5,185.5 303.5,186.5C 300.976,185.073 298.31,183.906 295.5,183C 284.839,182.5 274.172,182.333 263.5,182.5C 262.766,181.292 262.433,179.959 262.5,178.5C 267.695,178.821 272.695,178.487 277.5,177.5C 279.965,177.233 282.299,176.566 284.5,175.5 Z"/></g>
<g><path style="opacity:1" fill="#df7dd2" d="M 255.5,129.5 C 253.521,132.146 251.188,134.479 248.5,136.5C 247.667,138.167 246.833,139.833 246,141.5C 242.069,153.919 244.569,164.585 253.5,173.5C 252.086,176.582 249.752,178.582 246.5,179.5C 244.861,183.253 244.194,187.253 244.5,191.5C 243.167,191.5 241.833,191.5 240.5,191.5C 238.333,188.18 235.333,185.68 231.5,184C 219.875,182.806 208.208,182.139 196.5,182C 193.674,179.136 194.174,176.969 198,175.5C 201.001,176.918 204.168,177.751 207.5,178C 226.39,179.595 237.057,171.095 239.5,152.5C 240.585,146.428 238.919,141.428 234.5,137.5C 233.457,134.944 231.79,132.777 229.5,131C 232.939,129.91 236.273,128.744 239.5,127.5C 239.5,125.5 239.5,123.5 239.5,121.5C 238.448,121.649 237.448,121.483 236.5,121C 234.924,118.923 232.924,117.423 230.5,116.5C 228.507,118.666 226.673,120.999 225,123.5C 224.617,122.944 224.117,122.611 223.5,122.5C 219.056,121.187 214.389,120.354 209.5,120C 214.419,119.198 219.252,119.365 224,120.5C 227.3,118.443 227.133,117.443 223.5,117.5C 223.5,116.167 223.5,114.833 223.5,113.5C 224.822,113.33 225.989,113.663 227,114.5C 227.483,113.552 227.649,112.552 227.5,111.5C 234.167,111.5 240.833,111.5 247.5,111.5C 246.936,118.371 246.436,125.038 246,131.5C 246.667,132.167 247.333,132.833 248,133.5C 249.715,130.603 252.215,129.269 255.5,129.5 Z"/></g>
<g><path style="opacity:1" fill="#d587c3" d="M 175.5,181.5 C 174.296,183.734 173.13,186.067 172,188.5C 170.13,190.219 167.963,191.219 165.5,191.5C 168.5,187.833 171.833,184.5 175.5,181.5 Z"/></g>
<g><path style="opacity:1" fill="#d380c5" d="M 60.5,151.5 C 63.5,151.5 66.5,151.5 69.5,151.5C 69.1137,160.9 69.6137,170.234 71,179.5C 72.1471,184.796 74.9804,188.796 79.5,191.5C 76.5096,190.241 73.5096,188.908 70.5,187.5C 68.7295,175.936 68.0628,164.27 68.5,152.5C 65.6146,152.806 62.9479,152.473 60.5,151.5 Z"/></g>
<g><path style="opacity:1" fill="#d681c8" d="M 253.5,173.5 C 254.376,173.369 255.043,173.702 255.5,174.5C 247.616,181.649 245.116,190.316 248,200.5C 250.466,202.758 252.633,205.091 254.5,207.5C 252.328,206.199 249.995,205.199 247.5,204.5C 247.009,201.99 246.009,199.656 244.5,197.5C 242.895,201.236 243.561,204.402 246.5,207C 245.207,207.49 243.873,207.657 242.5,207.5C 242.771,209.38 242.104,210.713 240.5,211.5C 242.497,205.884 242.83,200.218 241.5,194.5C 240.89,193.609 240.557,192.609 240.5,191.5C 241.833,191.5 243.167,191.5 244.5,191.5C 244.194,187.253 244.861,183.253 246.5,179.5C 249.752,178.582 252.086,176.582 253.5,173.5 Z"/></g>
<g><path style="opacity:1" fill="#fcf3f1" d="M 241.5,194.5 C 242.83,200.218 242.497,205.884 240.5,211.5C 239.662,211.842 239.328,212.508 239.5,213.5C 232.185,214.415 224.852,214.582 217.5,214C 216.061,211.775 214.394,209.775 212.5,208C 205.508,207.5 198.508,207.334 191.5,207.5C 190.167,207.5 188.833,207.5 187.5,207.5C 188.303,206.577 188.47,205.577 188,204.5C 179.687,198.56 178.354,191.227 184,182.5C 186.469,182.288 188.969,181.955 191.5,181.5C 196.369,184.126 201.702,185.126 207.5,184.5C 207.5,185.833 207.5,187.167 207.5,188.5C 213.988,188.952 220.322,189.786 226.5,191C 221.99,185.022 223.323,183.688 230.5,187C 232.607,189.561 235.274,191.394 238.5,192.5C 239.251,193.376 239.751,194.376 240,195.5C 240.383,194.944 240.883,194.611 241.5,194.5 Z"/></g>
<g><path style="opacity:1" fill="#d980cd" d="M 129.5,192.5 C 140.474,196.456 151.474,196.456 162.5,192.5C 163.774,193.189 163.774,194.023 162.5,195C 159.56,196.152 156.56,197.152 153.5,198C 152.638,200.734 151.805,200.901 151,198.5C 150.667,198.833 150.333,199.167 150,199.5C 144.628,198.111 139.128,197.277 133.5,197C 131.336,196.086 129.336,194.919 127.5,193.5C 127.957,192.702 128.624,192.369 129.5,192.5 Z"/></g>
<g><path style="opacity:1" fill="#fde3fb" d="M 191.5,208.5 C 191.5,208.167 191.5,207.833 191.5,207.5C 198.508,207.334 205.508,207.5 212.5,208C 214.394,209.775 216.061,211.775 217.5,214C 224.852,214.582 232.185,214.415 239.5,213.5C 239.423,214.75 238.756,215.583 237.5,216C 228.99,216.823 220.656,216.657 212.5,215.5C 213.919,213.17 213.419,211.17 211,209.5C 204.547,208.558 198.047,208.225 191.5,208.5 Z"/></g>
<g><path style="opacity:1" fill="#d385c5" d="M 191.5,208.5 C 198.047,208.225 204.547,208.558 211,209.5C 213.419,211.17 213.919,213.17 212.5,215.5C 211.074,214.198 209.741,212.698 208.5,211C 202.412,211.126 196.745,210.292 191.5,208.5 Z"/></g>
<g><path style="opacity:1" fill="#d384c6" d="M 309.5,186.5 C 312.617,187.782 314.95,189.949 316.5,193C 318.723,193.566 320.723,194.4 322.5,195.5C 319.084,196.106 316.418,195.106 314.5,192.5C 313.311,191.571 311.978,191.238 310.5,191.5C 312.174,200.281 311.007,208.615 307,216.5C 306,217.167 305,217.833 304,218.5C 295.578,217.682 287.078,217.182 278.5,217C 277.833,215 277.167,213 276.5,211C 270.167,210.667 263.833,210.333 257.5,210C 256.244,209.583 255.577,208.75 255.5,207.5C 262.786,208.265 270.119,208.765 277.5,209C 278.942,209.377 279.942,210.21 280.5,211.5C 280.5,213.167 280.5,214.833 280.5,216.5C 288.507,216.666 296.507,216.5 304.5,216C 305.381,215.292 306.047,214.458 306.5,213.5C 309.386,207.897 310.22,201.897 309,195.5C 306.642,192.778 304.809,189.778 303.5,186.5C 304.721,185.972 305.887,185.305 307,184.5C 307.417,185.756 308.25,186.423 309.5,186.5 Z"/></g>
<g><path style="opacity:1" fill="#fecffb" d="M 280.5,211.5 C 281.434,212.568 281.768,213.901 281.5,215.5C 289.991,215.97 298.324,215.303 306.5,213.5C 306.047,214.458 305.381,215.292 304.5,216C 296.507,216.5 288.507,216.666 280.5,216.5C 280.5,214.833 280.5,213.167 280.5,211.5 Z"/></g>
<g><path style="opacity:1" fill="#d071be" d="M 247.5,223.5 C 247.5,244.833 247.5,266.167 247.5,287.5C 246.674,282.684 246.174,277.684 246,272.5C 245.829,277.533 245.329,282.533 244.5,287.5C 243.505,282.208 243.172,276.875 243.5,271.5C 244.5,271.5 245.5,271.5 246.5,271.5C 246.17,255.325 246.504,239.325 247.5,223.5 Z"/></g>
<g><path style="opacity:1" fill="#d681c7" d="M 134.5,239.5 C 134.5,236.833 134.5,234.167 134.5,231.5C 124.794,230.025 117.46,233.359 112.5,241.5C 111.923,237.92 112.923,234.92 115.5,232.5C 122.279,229.522 129.279,228.855 136.5,230.5C 137.055,234.012 136.388,237.012 134.5,239.5 Z"/></g>
<g><path style="opacity:1" fill="#cf8ac2" d="M 72.5,218.5 C 72.5,223.5 72.5,228.5 72.5,233.5C 69.1501,233.335 65.8168,233.502 62.5,234C 60.8446,235.444 60.178,237.278 60.5,239.5C 58.8612,236.259 59.6945,233.592 63,231.5C 65.3333,232.833 67.6667,232.833 70,231.5C 70.05,226.873 70.8833,222.54 72.5,218.5 Z"/></g>
<g><path style="opacity:1" fill="#fae8f4" d="M 134.5,239.5 C 121.245,237.118 113.578,242.451 111.5,255.5C 110.529,251.1 110.529,246.767 111.5,242.5C 112.167,242.5 112.5,242.167 112.5,241.5C 117.46,233.359 124.794,230.025 134.5,231.5C 134.5,234.167 134.5,236.833 134.5,239.5 Z"/></g>
<g><path style="opacity:1" fill="#fbeff2" d="M 72.5,218.5 C 74.7925,218.244 76.9592,218.577 79,219.5C 79.4992,224.155 79.6658,228.821 79.5,233.5C 84.5,233.5 89.5,233.5 94.5,233.5C 93.0484,234.302 91.3817,234.802 89.5,235C 90.3081,235.308 90.9747,235.808 91.5,236.5C 82.172,238.006 72.8387,238.506 63.5,238C 66.3647,238.183 69.0314,238.683 71.5,239.5C 67.8333,239.5 64.1667,239.5 60.5,239.5C 60.178,237.278 60.8446,235.444 62.5,234C 65.8168,233.502 69.1501,233.335 72.5,233.5C 72.5,228.5 72.5,223.5 72.5,218.5 Z M 74.5,230.5 C 74.3691,231.376 74.7025,232.043 75.5,232.5C 76.6704,231.306 76.337,230.639 74.5,230.5 Z"/></g>
<g><path style="opacity:1" fill="#d587c5" d="M 226.5,231.5 C 232.782,230.673 237.115,233.007 239.5,238.5C 235.357,235.661 231.023,233.328 226.5,231.5 Z"/></g>
<g><path style="opacity:1" fill="#d682ca" d="M 287.5,239.5 C 288.543,236.944 290.21,234.777 292.5,233C 289.5,232.333 286.5,232.333 283.5,233C 279.879,237.133 275.879,240.633 271.5,243.5C 271.721,242.265 272.388,241.265 273.5,240.5C 271.393,237.725 271.059,234.725 272.5,231.5C 273.012,233.851 274.012,235.851 275.5,237.5C 277.939,235.973 279.939,233.973 281.5,231.5C 286.174,228.796 290.507,229.129 294.5,232.5C 293.777,236.557 291.444,238.89 287.5,239.5 Z"/></g>
<g><path style="opacity:1" fill="#fecffc" d="M 107.5,233.5 C 105.513,251.136 104.847,269.136 105.5,287.5C 105.167,287.5 104.833,287.5 104.5,287.5C 104.5,269.167 104.5,250.833 104.5,232.5C 105.791,232.263 106.791,232.596 107.5,233.5 Z"/></g>
<g><path style="opacity:1" fill="#ca7cbf" d="M 111.5,235.5 C 110.842,234.602 110.176,233.602 109.5,232.5C 108.817,232.863 108.15,233.196 107.5,233.5C 106.791,232.596 105.791,232.263 104.5,232.5C 104.5,250.833 104.5,269.167 104.5,287.5C 103.723,268.992 103.057,250.326 102.5,231.5C 105.455,230.841 108.455,230.508 111.5,230.5C 111.5,232.167 111.5,233.833 111.5,235.5 Z"/></g>
<g><path style="opacity:1" fill="#fdf2f3" d="M 111.5,235.5 C 111.5,237.833 111.5,240.167 111.5,242.5C 110.529,246.767 110.529,251.1 111.5,255.5C 111.5,266.167 111.5,276.833 111.5,287.5C 109.5,287.5 107.5,287.5 105.5,287.5C 104.847,269.136 105.513,251.136 107.5,233.5C 108.15,233.196 108.817,232.863 109.5,232.5C 110.176,233.602 110.842,234.602 111.5,235.5 Z"/></g>
<g><path style="opacity:1" fill="#f9f5ef" d="M 195.5,244.5 C 196.833,244.5 198.167,244.5 199.5,244.5C 199.294,247.451 198.294,250.117 196.5,252.5C 196.111,258.739 196.611,265.073 198,271.5C 201.904,278.025 207.404,282.525 214.5,285C 212.098,285.814 209.765,285.647 207.5,284.5C 203.198,282.183 199.198,279.516 195.5,276.5C 194.89,275.609 194.557,274.609 194.5,273.5C 193.529,264.653 193.529,255.987 194.5,247.5C 195.11,246.609 195.443,245.609 195.5,244.5 Z"/></g>
<g><path style="opacity:1" fill="#fdecf7" d="M 226.5,231.5 C 231.023,233.328 235.357,235.661 239.5,238.5C 238.184,240.317 236.684,241.983 235,243.5C 232.844,242.015 230.677,240.515 228.5,239C 222.782,238.26 217.115,238.427 211.5,239.5C 210.167,239.5 208.833,239.5 207.5,239.5C 206.336,242.187 204.503,244.52 202,246.5C 197.066,256.398 197.399,266.064 203,275.5C 209.456,282.139 217.29,284.306 226.5,282C 229.377,280.298 232.377,278.798 235.5,277.5C 236.852,278.524 238.185,279.524 239.5,280.5C 239.489,282.017 238.823,283.184 237.5,284C 228.048,289.845 218.048,291.012 207.5,287.5C 202.249,285.252 198.249,281.585 195.5,276.5C 199.198,279.516 203.198,282.183 207.5,284.5C 209.765,285.647 212.098,285.814 214.5,285C 207.404,282.525 201.904,278.025 198,271.5C 196.611,265.073 196.111,258.739 196.5,252.5C 198.294,250.117 199.294,247.451 199.5,244.5C 198.167,244.5 196.833,244.5 195.5,244.5C 203.009,233.924 213.342,229.591 226.5,231.5 Z"/></g>
<g><path style="opacity:0.235" fill="#d588ca" d="M 399.5,213.5 C 399.5,217.833 399.5,222.167 399.5,226.5C 398.167,228.5 398.167,230.5 399.5,232.5C 399.5,233.5 399.5,234.5 399.5,235.5C 398.883,235.389 398.383,235.056 398,234.5C 393.093,259.574 384.26,282.908 371.5,304.5C 370.986,302.488 370.82,300.488 371,298.5C 372.067,297.809 373.234,297.309 374.5,297C 374.167,296.667 373.833,296.333 373.5,296C 384.618,274.348 392.285,251.015 396.5,226C 395.857,220.473 396.357,214.973 398,209.5C 398.21,211.058 398.71,212.391 399.5,213.5 Z"/></g>
<g><path style="opacity:1" fill="#cc82c0" d="M 175.5,245.5 C 176.473,247.948 176.806,250.615 176.5,253.5C 170.794,253.97 165.127,254.637 159.5,255.5C 160.589,253.883 162.256,253.05 164.5,253C 168.152,252.501 171.818,252.335 175.5,252.5C 175.5,250.167 175.5,247.833 175.5,245.5 Z"/></g>
<g><path style="opacity:1" fill="#de82d1" d="M 71.5,239.5 C 72.3311,252.994 72.8311,266.661 73,280.5C 73.8471,282.854 74.6805,285.188 75.5,287.5C 72.4794,285.172 70.1461,282.172 68.5,278.5C 69.4671,270.89 69.8004,263.223 69.5,255.5C 68.448,255.351 67.448,255.517 66.5,256C 67.8042,261.114 67.8042,266.281 66.5,271.5C 65.4678,261.188 64.8011,250.855 64.5,240.5C 67.0593,240.802 69.3926,240.468 71.5,239.5 Z"/></g>
<g><path style="opacity:1" fill="#fae6f4" d="M 94.5,233.5 C 95.4614,235.265 95.7947,237.265 95.5,239.5C 90.1667,239.5 84.8333,239.5 79.5,239.5C 79.5,252.167 79.5,264.833 79.5,277.5C 77.9081,278.602 77.0748,277.935 77,275.5C 76.8326,263.486 76.3326,251.486 75.5,239.5C 74.8232,250.728 74.1565,261.895 73.5,273C 74.1197,275.473 74.7864,277.973 75.5,280.5C 76.7481,281.04 77.9148,281.707 79,282.5C 79.4828,281.552 79.6495,280.552 79.5,279.5C 80.6266,280.122 81.6266,280.955 82.5,282C 86.8206,282.499 91.1539,282.666 95.5,282.5C 95.5,284.5 95.5,286.5 95.5,288.5C 92.6811,288.869 89.8477,289.202 87,289.5C 83.1385,288.933 79.3052,288.267 75.5,287.5C 74.6805,285.188 73.8471,282.854 73,280.5C 72.8311,266.661 72.3311,252.994 71.5,239.5C 69.0314,238.683 66.3647,238.183 63.5,238C 72.8387,238.506 82.172,238.006 91.5,236.5C 90.9747,235.808 90.3081,235.308 89.5,235C 91.3817,234.802 93.0484,234.302 94.5,233.5 Z"/></g>
<g><path style="opacity:1" fill="#fbf6f0" d="M 79.5,277.5 C 79.5,278.167 79.5,278.833 79.5,279.5C 79.6495,280.552 79.4828,281.552 79,282.5C 77.9148,281.707 76.7481,281.04 75.5,280.5C 74.7864,277.973 74.1197,275.473 73.5,273C 74.1565,261.895 74.8232,250.728 75.5,239.5C 76.3326,251.486 76.8326,263.486 77,275.5C 77.0748,277.935 77.9081,278.602 79.5,277.5 Z"/></g>
<g><path style="opacity:1" fill="#fceaf7" d="M 194.5,247.5 C 193.529,255.987 193.529,264.653 194.5,273.5C 192.989,271.524 192.156,269.191 192,266.5C 191.501,261.511 191.334,256.511 191.5,251.5C 192.488,250.205 193.488,248.872 194.5,247.5 Z"/></g>
<g><path style="opacity:0.991" fill="#fdedf5" d="M 271.5,243.5 C 275.879,240.633 279.879,237.133 283.5,233C 286.5,232.333 289.5,232.333 292.5,233C 290.21,234.777 288.543,236.944 287.5,239.5C 281.925,243.567 276.759,248.234 272,253.5C 271.333,255.833 271.333,258.167 272,260.5C 276.102,264.761 279.602,269.428 282.5,274.5C 283.75,276.932 285.25,279.266 287,281.5C 287.333,281.167 287.667,280.833 288,280.5C 289.049,282.618 290.549,284.284 292.5,285.5C 292.611,286.117 292.944,286.617 293.5,287C 290.183,287.498 286.85,287.665 283.5,287.5C 281.585,281.705 278.252,277.038 273.5,273.5C 273.167,272.5 272.5,271.833 271.5,271.5C 269.996,267.65 267.663,264.317 264.5,261.5C 261.479,263.854 258.812,266.521 256.5,269.5C 255.883,269.611 255.383,269.944 255,270.5C 254.501,276.157 254.334,281.824 254.5,287.5C 252.167,287.5 249.833,287.5 247.5,287.5C 247.5,266.167 247.5,244.833 247.5,223.5C 247.5,220.5 247.5,217.5 247.5,214.5C 249.792,214.244 251.959,214.577 254,215.5C 254.167,230.511 254.667,245.511 255.5,260.5C 261.581,255.422 266.915,249.756 271.5,243.5 Z"/></g>
<g><path style="opacity:1" fill="#d787ca" d="M 153.5,255.5 C 138.835,259.395 134.668,268.395 141,282.5C 142.812,284.3 144.645,285.967 146.5,287.5C 143.457,287.467 141.124,286.134 139.5,283.5C 134.734,275.193 134.734,267.026 139.5,259C 144.161,257.441 148.827,256.275 153.5,255.5 Z"/></g>
<g><path style="opacity:1" fill="#d583c9" d="M 271.5,271.5 C 269.517,270.098 267.851,268.264 266.5,266C 265.207,265.51 263.873,265.343 262.5,265.5C 262.703,267.638 263.703,269.305 265.5,270.5C 264.311,271.429 262.978,271.762 261.5,271.5C 261.374,268.442 259.874,268.109 257,270.5C 256.601,270.272 256.435,269.938 256.5,269.5C 258.812,266.521 261.479,263.854 264.5,261.5C 267.663,264.317 269.996,267.65 271.5,271.5 Z"/></g>
<g><path style="opacity:1" fill="#da81cb" d="M 211.5,239.5 C 212.854,242.033 212.02,243.7 209,244.5C 208.667,244.167 208.333,243.833 208,243.5C 202.793,246.565 200.127,251.232 200,257.5C 198.505,262.569 199.672,266.736 203.5,270C 203.167,270.333 202.833,270.667 202.5,271C 205.411,271.33 207.911,272.497 210,274.5C 210.667,273.833 211.333,273.167 212,272.5C 215.465,273.267 219.298,273.6 223.5,273.5C 223.5,274.833 223.5,276.167 223.5,277.5C 219.829,276.663 216.163,276.163 212.5,276C 210.875,276.853 210.542,277.853 211.5,279C 213.547,280.515 215.881,281.349 218.5,281.5C 224.33,280.613 229.663,278.613 234.5,275.5C 237.82,275.638 239.487,277.305 239.5,280.5C 238.185,279.524 236.852,278.524 235.5,277.5C 232.377,278.798 229.377,280.298 226.5,282C 217.29,284.306 209.456,282.139 203,275.5C 197.399,266.064 197.066,256.398 202,246.5C 204.503,244.52 206.336,242.187 207.5,239.5C 208.833,239.5 210.167,239.5 211.5,239.5 Z"/></g>
<g><path style="opacity:1" fill="#fceef5" d="M 176.5,234.5 C 177.793,236.296 179.293,237.963 181,239.5C 181.511,241.878 182.178,244.212 183,246.5C 183.5,260.163 183.667,273.829 183.5,287.5C 181.167,287.5 178.833,287.5 176.5,287.5C 176.665,284.15 176.498,280.817 176,277.5C 175.428,280.707 173.595,282.374 170.5,282.5C 170.439,284.592 169.439,286.092 167.5,287C 161.535,287.963 155.535,288.463 149.5,288.5C 148.791,287.596 147.791,287.263 146.5,287.5C 144.645,285.967 142.812,284.3 141,282.5C 134.668,268.395 138.835,259.395 153.5,255.5C 155.5,255.5 157.5,255.5 159.5,255.5C 165.127,254.637 170.794,253.97 176.5,253.5C 176.806,250.615 176.473,247.948 175.5,245.5C 175.607,243.097 174.607,241.264 172.5,240C 165.182,236.725 157.848,236.725 150.5,240C 148.629,242.37 146.962,244.87 145.5,247.5C 143.205,246.864 141.539,245.531 140.5,243.5C 142.364,238.137 146.03,234.637 151.5,233C 160.028,230.761 168.362,231.261 176.5,234.5 Z"/></g>
<g><path style="opacity:1" fill="#d982c8" d="M 171.5,260.5 C 167.332,261.794 162.999,262.961 158.5,264C 157.773,265.399 157.273,266.899 157,268.5C 155.989,269.337 154.822,269.67 153.5,269.5C 153.912,265.212 152.245,264.545 148.5,267.5C 146.087,271.426 146.42,275.26 149.5,279C 152.044,280.092 154.711,280.759 157.5,281C 158.056,281.383 158.389,281.883 158.5,282.5C 148.023,282.851 143.856,277.851 146,267.5C 147.543,265.622 149.376,264.122 151.5,263C 158.096,261.558 164.763,260.724 171.5,260.5 Z"/></g>
<g><path style="opacity:1" fill="#e37bd5" d="M 171.5,260.5 C 172.833,260.5 174.167,260.5 175.5,260.5C 177.324,273.671 171.657,281.005 158.5,282.5C 158.389,281.883 158.056,281.383 157.5,281C 154.711,280.759 152.044,280.092 149.5,279C 146.42,275.26 146.087,271.426 148.5,267.5C 152.245,264.545 153.912,265.212 153.5,269.5C 154.822,269.67 155.989,269.337 157,268.5C 157.273,266.899 157.773,265.399 158.5,264C 162.999,262.961 167.332,261.794 171.5,260.5 Z"/></g>
<g><path style="opacity:0.824" fill="#d893cd" d="M 273.5,273.5 C 278.252,277.038 281.585,281.705 283.5,287.5C 279.696,283.246 276.362,278.58 273.5,273.5 Z"/></g>
<g><path style="opacity:1" fill="#d995cd" d="M 282.5,274.5 C 285.789,276.616 288.956,278.949 292,281.5C 292.49,282.793 292.657,284.127 292.5,285.5C 290.549,284.284 289.049,282.618 288,280.5C 287.667,280.833 287.333,281.167 287,281.5C 285.25,279.266 283.75,276.932 282.5,274.5 Z"/></g>
<g><path style="opacity:1" fill="#df7dd1" d="M 191.5,251.5 C 191.334,256.511 191.501,261.511 192,266.5C 192.156,269.191 192.989,271.524 194.5,273.5C 194.557,274.609 194.89,275.609 195.5,276.5C 198.249,281.585 202.249,285.252 207.5,287.5C 202.197,288.524 198.864,286.524 197.5,281.5C 196.252,280.96 195.085,280.293 194,279.5C 193.571,276.512 192.405,273.845 190.5,271.5C 189.833,277.5 189.167,283.5 188.5,289.5C 185.825,292.03 182.825,293.03 179.5,292.5C 178.528,294.636 176.861,295.803 174.5,296C 175.696,296.654 175.696,297.154 174.5,297.5C 172.487,295.468 170.987,293.134 170,290.5C 166.974,292.017 163.807,293.35 160.5,294.5C 159.614,293.675 159.281,292.675 159.5,291.5C 155.165,292 151.165,291.167 147.5,289C 148.094,288.536 148.761,288.369 149.5,288.5C 155.535,288.463 161.535,287.963 167.5,287C 169.439,286.092 170.439,284.592 170.5,282.5C 173.595,282.374 175.428,280.707 176,277.5C 176.498,280.817 176.665,284.15 176.5,287.5C 178.833,287.5 181.167,287.5 183.5,287.5C 183.667,273.829 183.5,260.163 183,246.5C 182.178,244.212 181.511,241.878 181,239.5C 179.293,237.963 177.793,236.296 176.5,234.5C 176.435,234.062 176.601,233.728 177,233.5C 178.067,234.191 179.234,234.691 180.5,235C 181.886,238.275 183.886,241.109 186.5,243.5C 187.799,242.91 188.632,241.91 189,240.5C 189.108,244.465 189.941,248.132 191.5,251.5 Z"/></g>
<g><path style="opacity:0.349" fill="#d587c9" d="M 186.5,399.5 C 182.167,399.5 177.833,399.5 173.5,399.5C 163.833,397.963 154,395.629 144,392.5C 143,392.833 142,393.167 141,393.5C 137.552,390.146 133.552,388.812 129,389.5C 119.119,384.476 109.286,379.309 99.5,374C 94.4058,373.324 90.4058,370.991 87.5,367C 50.4512,342.031 24.6178,308.531 10,266.5C 9.53476,265.069 8.70143,263.903 7.5,263C 7.84803,260.945 7.18137,258.945 5.5,257C 5.98617,254.272 5.3195,251.605 3.5,249C 3.95735,248.586 4.29069,248.086 4.5,247.5C 3.5123,244.55 2.67896,241.55 2,238.5C 1.2917,237.619 0.458367,236.953 -0.5,236.5C -0.5,235.167 -0.5,233.833 -0.5,232.5C 0.833333,232.167 0.833333,231.833 -0.5,231.5C -0.5,230.5 -0.5,229.5 -0.5,228.5C 0.833333,227.167 0.833333,225.833 -0.5,224.5C -0.5,220.5 -0.5,216.5 -0.5,212.5C 0.28997,211.391 0.78997,210.058 1,208.5C 1.91277,224.577 4.57944,240.244 9,255.5C 11.4887,262.458 13.8221,269.458 16,276.5C 17.0113,277.337 18.1779,277.67 19.5,277.5C 19.632,281.349 20.632,284.849 22.5,288C 22.1667,288.333 21.8333,288.667 21.5,289C 23.6287,292.754 26.1287,296.254 29,299.5C 29.7267,301.953 30.7267,304.286 32,306.5C 34.7367,307.987 36.4033,310.321 37,313.5C 39.4603,314.755 40.627,316.755 40.5,319.5C 41.8221,319.33 42.9887,319.663 44,320.5C 44.4709,322.246 45.1376,323.913 46,325.5C 49.7265,327.97 52.2265,331.303 53.5,335.5C 54.5,335.5 55.5,335.5 56.5,335.5C 57.8817,338.721 60.2151,341.221 63.5,343C 63.1667,343.333 62.8333,343.667 62.5,344C 67.5823,347.203 72.2489,350.869 76.5,355C 77.448,355.483 78.448,355.649 79.5,355.5C 79.5,356.5 79.5,357.5 79.5,358.5C 83.0036,360.465 86.6702,362.298 90.5,364C 91.8333,365.333 91.8333,366.667 90.5,368C 92.1075,367.981 93.7741,367.815 95.5,367.5C 95.5,368.5 95.5,369.5 95.5,370.5C 97.288,370.215 98.9547,370.548 100.5,371.5C 107.883,375.169 115.216,378.836 122.5,382.5C 128.249,384.607 133.916,386.774 139.5,389C 150.308,392.393 161.474,394.893 173,396.5C 176.655,395.296 180.322,395.296 184,396.5C 186.877,396.437 187.711,397.437 186.5,399.5 Z"/></g>
<g><path style="opacity:0.953" fill="#d488c9" d="M 371.5,304.5 C 349.668,339.706 320.334,365.706 283.5,382.5C 281.776,381.74 280.11,381.407 278.5,381.5C 288.089,376.958 297.422,372.125 306.5,367C 310.254,363.042 314.588,360.209 319.5,358.5C 319.238,357.022 319.571,355.689 320.5,354.5C 323.359,352.949 326.359,351.949 329.5,351.5C 329.608,349.217 330.441,347.217 332,345.5C 334.833,343.667 337.667,341.833 340.5,340C 342.037,338.89 342.703,337.39 342.5,335.5C 343.5,335.5 344.5,335.5 345.5,335.5C 345.33,334.178 345.663,333.011 346.5,332C 347.931,331.535 349.097,330.701 350,329.5C 350.333,329.833 350.667,330.167 351,330.5C 353.463,323.39 357.463,317.39 363,312.5C 363.174,308.998 365.007,307.165 368.5,307C 367.269,305.817 367.269,304.651 368.5,303.5C 369.213,305.435 370.213,305.768 371.5,304.5 Z"/></g>
<g><path style="opacity:0.137" fill="#d787ca" d="M 281.5,383.5 C 262.924,391.242 243.924,396.576 224.5,399.5C 218.5,399.5 212.5,399.5 206.5,399.5C 206.611,398.883 206.944,398.383 207.5,398C 211.219,397.612 214.886,396.945 218.5,396C 229.047,396.773 238.88,394.607 248,389.5C 250.453,390.493 252.953,390.66 255.5,390C 262.764,387.69 269.931,385.19 277,382.5C 278.356,383.38 279.856,383.714 281.5,383.5 Z"/></g>
</svg>
