<?xml version="1.0" encoding="UTF-8"?>
<!DOCTYPE svg PUBLIC "-//W3C//DTD SVG 1.1//EN" "http://www.w3.org/Graphics/SVG/1.1/DTD/svg11.dtd">
<svg xmlns="http://www.w3.org/2000/svg" version="1.1" width="490px" height="450px" style="shape-rendering:geometricPrecision; text-rendering:geometricPrecision; image-rendering:optimizeQuality; fill-rule:evenodd; clip-rule:evenodd" xmlns:xlink="http://www.w3.org/1999/xlink">
<g><path style="opacity:1" fill="#fefefe" d="M -0.5,-0.5 C 162.833,-0.5 326.167,-0.5 489.5,-0.5C 489.5,149.5 489.5,299.5 489.5,449.5C 326.167,449.5 162.833,449.5 -0.5,449.5C -0.5,299.5 -0.5,149.5 -0.5,-0.5 Z"/></g>
<g><path style="opacity:1" fill="#202f3b" d="M 229.5,13.5 C 311.991,10.1681 377.491,41.5014 426,107.5C 465.055,168.616 472.055,233.282 447,301.5C 411.291,381.302 349.791,425.802 262.5,435C 186.196,438.256 124.029,410.423 76,351.5C 28.7328,284.685 20.7328,213.352 52,137.5C 80.2656,79.7731 125.099,41.2731 186.5,22C 200.759,18.0721 215.093,15.2388 229.5,13.5 Z"/></g>
<g><path style="opacity:1" fill="#fdfdfd" d="M 62.5,152.5 C 76.7771,151.05 86.9438,156.717 93,169.5C 100.001,196.172 107.001,222.838 114,249.5C 119.461,227.863 124.794,206.197 130,184.5C 136.46,160.853 150.96,153.686 173.5,163C 179.865,169.225 184.031,176.725 186,185.5C 191.055,206.998 196.722,228.332 203,249.5C 209.894,220.921 217.561,192.587 226,164.5C 233.162,155.174 242.662,151.174 254.5,152.5C 242.16,200.191 229.66,247.857 217,295.5C 203.399,298.864 193.065,294.53 186,282.5C 177.535,252.308 169.535,221.974 162,191.5C 157.905,188.363 155.238,189.363 154,194.5C 147.668,219.828 141.335,245.162 135,270.5C 131.69,290.149 120.19,298.649 100.5,296C 87.4443,248.278 74.7777,200.444 62.5,152.5 Z"/></g>
<g><path style="opacity:1" fill="#fbfbfb" d="M 279.5,152.5 C 282.833,152.5 286.167,152.5 289.5,152.5C 291.178,162.354 287.845,169.854 279.5,175C 274.306,176.847 269.472,179.347 265,182.5C 262.663,172.191 265.163,163.357 272.5,156C 274.925,154.787 277.259,153.621 279.5,152.5 Z"/></g>
<g><path style="opacity:1" fill="#fdfdfd" d="M 303.5,152.5 C 318.283,149.814 330.45,154.148 340,165.5C 348.391,176.892 356.391,188.559 364,200.5C 367.311,204.527 370.311,204.193 373,199.5C 379.667,189.5 386.333,179.5 393,169.5C 402.34,154.883 415.506,149.55 432.5,153.5C 416.624,177.42 400.624,201.253 384.5,225C 400.5,248.667 416.5,272.333 432.5,296C 416.595,299.124 403.761,294.291 394,281.5C 385.942,270.44 378.275,259.107 371,247.5C 370.261,246.426 369.261,245.759 368,245.5C 366.056,246.439 364.389,247.773 363,249.5C 354.327,263.841 344.494,277.341 333.5,290C 323.924,295.542 313.591,297.542 302.5,296C 318.399,272.278 334.065,248.444 349.5,224.5C 334.16,200.482 318.827,176.482 303.5,152.5 Z"/></g>
<g><path style="opacity:1" fill="#fefefe" d="M 288.5,176.5 C 289.82,211.85 289.82,247.35 288.5,283C 286.669,290.78 281.669,295.113 273.5,296C 270.518,296.498 267.518,296.665 264.5,296.5C 264.333,262.165 264.5,227.832 265,193.5C 265.465,192.069 266.299,190.903 267.5,190C 273.008,186.745 278.675,183.745 284.5,181C 286.041,179.629 287.375,178.129 288.5,176.5 Z"/></g>
</svg>
