<svg xmlns="http://www.w3.org/2000/svg" enable-background="new 0 0 28 28" viewBox="0 0 28 28" id="zendesk"><path fill="#DEFF8F" d="M6.313,5.042L20.52,5.419c1.705,0.045,2.638,2.006,1.598,3.357l-6.215,8.079c-0.782,1.017-2.288,1.093-3.17,0.161L4.741,8.561C3.466,7.211,4.456,4.993,6.313,5.042z"></path><path d="M13.123 23H2.5c-.195 0-.372-.113-.454-.29-.081-.177-.053-.385.073-.533L12.742 9.669c.136-.16.356-.219.554-.146.196.072.327.26.327.47V22.5C13.623 22.776 13.399 23 13.123 23zM3.581 22h9.042V11.354L3.581 22zM25.5 23H14.877c-.276 0-.5-.224-.5-.5 0-3.133 2.607-5.681 5.812-5.681S26 19.367 26 22.5C26 22.776 25.776 23 25.5 23zM15.404 22h9.568c-.257-2.347-2.305-4.181-4.784-4.181S15.661 19.653 15.404 22zM14.877 18.511c-.058 0-.116-.01-.173-.03-.196-.072-.327-.26-.327-.47V5.5c0-.276.224-.5.5-.5H25.5c.195 0 .372.113.454.29.081.177.053.385-.073.533L15.258 18.334C15.161 18.448 15.021 18.511 14.877 18.511zM15.377 6v10.649L24.42 6H15.377zM7.812 11.182C4.607 11.182 2 8.634 2 5.502c0-.276.224-.5.5-.5L13.123 5c.133 0 .26.053.354.146s.146.221.146.354C13.623 8.633 11.016 11.182 7.812 11.182zM3.027 6.002c.257 2.346 2.305 4.18 4.784 4.18S12.339 8.348 12.596 6L3.027 6.002z"></path></svg>