<?xml version="1.0" encoding="UTF-8"?>
<!DOCTYPE svg PUBLIC "-//W3C//DTD SVG 1.1//EN" "http://www.w3.org/Graphics/SVG/1.1/DTD/svg11.dtd">
<svg xmlns="http://www.w3.org/2000/svg" version="1.1" width="900px" height="900px" style="shape-rendering:geometricPrecision; text-rendering:geometricPrecision; image-rendering:optimizeQuality; fill-rule:evenodd; clip-rule:evenodd" xmlns:xlink="http://www.w3.org/1999/xlink">
<g><path style="opacity:1" fill="#e1392e" d="M 783.5,-0.5 C 790.5,-0.5 797.5,-0.5 804.5,-0.5C 804.5,-0.166667 804.5,0.166667 804.5,0.5C 808.631,1.97863 812.798,3.64529 817,5.5C 817.383,4.94404 817.883,4.61071 818.5,4.5C 819.635,6.21321 821.302,6.87988 823.5,6.5C 837.618,13.9505 850.952,22.6171 863.5,32.5C 863.999,35.2639 865.665,36.9305 868.5,37.5C 872.416,42.9964 876.082,48.6631 879.5,54.5C 878.895,56.0257 877.729,57.0257 876,57.5C 874.667,55.5 873.333,53.5 872,51.5C 870.493,52.5348 868.993,52.3681 867.5,51C 869.059,50.0201 870.726,49.1867 872.5,48.5C 871.917,46.9984 871.084,45.6651 870,44.5C 869.586,44.9574 869.086,45.2907 868.5,45.5C 867.548,43.9547 867.215,42.288 867.5,40.5C 864.626,38.9836 861.959,36.9836 859.5,34.5C 858.914,34.7093 858.414,35.0426 858,35.5C 858.263,34.0494 858.096,32.7161 857.5,31.5C 848.613,24.6307 839.28,18.464 829.5,13C 827.888,12.2797 826.388,12.4464 825,13.5C 823.64,10.2298 821.14,8.56315 817.5,8.5C 817.649,9.55198 817.483,10.552 817,11.5C 816.033,10.3224 815.533,8.98902 815.5,7.5C 814.277,6.38615 812.944,6.21948 811.5,7C 815.386,7.57853 815.386,8.41186 811.5,9.5C 810.264,8.75415 808.93,8.42082 807.5,8.5C 807.5,7.16667 807.5,5.83333 807.5,4.5C 801.873,3.47525 796.207,2.64191 790.5,2C 569.167,1.66667 347.833,1.33333 126.5,1C 345.667,0.833206 564.667,0.333206 783.5,-0.5 Z"/></g>
<g><path style="opacity:0.064" fill="#f7f5f7" d="M 94.5,-0.5 C 95.1667,-0.5 95.8333,-0.5 96.5,-0.5C 96.3893,0.117425 96.056,0.617425 95.5,1C 90.475,1.96322 85.6416,3.46322 81,5.5C 80.6174,4.94404 80.1174,4.61071 79.5,4.5C 84.4419,2.63046 89.4419,0.963795 94.5,-0.5 Z"/></g>
<g><path style="opacity:0.095" fill="#f8f6f8" d="M 804.5,0.5 C 809.529,0.920463 814.195,2.2538 818.5,4.5C 817.883,4.61071 817.383,4.94404 817,5.5C 812.798,3.64529 808.631,1.97863 804.5,0.5 Z"/></g>
<g><path style="opacity:0.09" fill="#f4f2f4" d="M 79.5,4.5 C 78.8166,6.17649 77.4832,6.84316 75.5,6.5C 76.5137,5.32627 77.847,4.6596 79.5,4.5 Z"/></g>
<g><path style="opacity:0.081" fill="#f8f6f8" d="M 818.5,4.5 C 820.553,4.40206 822.22,5.06873 823.5,6.5C 821.302,6.87988 819.635,6.21321 818.5,4.5 Z"/></g>
<g><path style="opacity:0.132" fill="#f8f6f8" d="M 75.5,6.5 C 69.3188,10.0787 62.9855,13.5787 56.5,17C 49.8916,22.1159 43.2249,26.9493 36.5,31.5C 47.3634,19.8976 60.3634,11.5643 75.5,6.5 Z"/></g>
<g><path style="opacity:1" fill="#f44134" d="M 96.5,-0.5 C 325.5,-0.5 554.5,-0.5 783.5,-0.5C 564.667,0.333206 345.667,0.833206 126.5,1C 347.833,1.33333 569.167,1.66667 790.5,2C 796.207,2.64191 801.873,3.47525 807.5,4.5C 807.5,5.83333 807.5,7.16667 807.5,8.5C 808.93,8.42082 810.264,8.75415 811.5,9.5C 815.386,8.41186 815.386,7.57853 811.5,7C 812.944,6.21948 814.277,6.38615 815.5,7.5C 815.533,8.98902 816.033,10.3224 817,11.5C 817.483,10.552 817.649,9.55198 817.5,8.5C 821.14,8.56315 823.64,10.2298 825,13.5C 826.388,12.4464 827.888,12.2797 829.5,13C 839.28,18.464 848.613,24.6307 857.5,31.5C 858.096,32.7161 858.263,34.0494 858,35.5C 858.414,35.0426 858.914,34.7093 859.5,34.5C 861.959,36.9836 864.626,38.9836 867.5,40.5C 867.215,42.288 867.548,43.9547 868.5,45.5C 869.086,45.2907 869.586,44.9574 870,44.5C 871.084,45.6651 871.917,46.9984 872.5,48.5C 870.726,49.1867 869.059,50.0201 867.5,51C 868.993,52.3681 870.493,52.5348 872,51.5C 873.333,53.5 874.667,55.5 876,57.5C 877.729,57.0257 878.895,56.0257 879.5,54.5C 881.451,55.7158 882.951,57.3825 884,59.5C 886.196,65.325 889.029,70.6584 892.5,75.5C 892.12,77.698 892.787,79.3646 894.5,80.5C 894.952,84.1629 895.452,87.8296 896,91.5C 896.608,93.0664 897.442,94.3998 898.5,95.5C 898.833,95.5 899.167,95.5 899.5,95.5C 899.5,331.5 899.5,567.5 899.5,803.5C 899.167,803.5 898.833,803.5 898.5,803.5C 897.685,804.429 896.852,805.429 896,806.5C 894.782,813.703 892.782,820.703 890,827.5C 887.468,832.564 884.968,837.564 882.5,842.5C 878.845,845.802 876.178,849.802 874.5,854.5C 870.908,857.085 867.575,860.085 864.5,863.5C 863.614,864.325 863.281,865.325 863.5,866.5C 857.729,870.424 852.063,874.591 846.5,879C 838.689,883.561 831.022,888.061 823.5,892.5C 817.84,893.661 812.173,894.828 806.5,896C 805.429,896.852 804.429,897.685 803.5,898.5C 802.833,898.5 802.5,898.833 802.5,899.5C 566.833,899.5 331.167,899.5 95.5,899.5C 95.5,899.167 95.5,898.833 95.5,898.5C 95.5299,897.503 95.0299,896.836 94,896.5C 89.8186,895.76 85.652,894.926 81.5,894C 73.1575,890.162 64.8241,886.328 56.5,882.5C 56.1435,881.13 55.3102,880.13 54,879.5C 52.022,878.094 49.8553,877.094 47.5,876.5C 43.8037,872.142 39.4703,868.475 34.5,865.5C 34.5,865.167 34.5,864.833 34.5,864.5C 34.9382,864.565 35.2716,864.399 35.5,864C 30.8238,860.102 26.4905,855.936 22.5,851.5C 18.3205,844.474 14.3205,837.307 10.5,830C 6.3062,820.239 2.63953,810.406 -0.5,800.5C -0.5,565.5 -0.5,330.5 -0.5,95.5C -0.166667,95.5 0.166667,95.5 0.5,95.5C 5.12298,79.5809 11.9563,64.5809 21,50.5C 26.0541,43.9587 31.2208,37.6254 36.5,31.5C 43.2249,26.9493 49.8916,22.1159 56.5,17C 62.9855,13.5787 69.3188,10.0787 75.5,6.5C 77.4832,6.84316 78.8166,6.17649 79.5,4.5C 80.1174,4.61071 80.6174,4.94404 81,5.5C 85.6416,3.46322 90.475,1.96322 95.5,1C 96.056,0.617425 96.3893,0.117425 96.5,-0.5 Z"/></g>
<g><path style="opacity:0.078" fill="#f8f6f7" d="M 823.5,6.5 C 839.185,11.6678 852.518,20.3344 863.5,32.5C 850.952,22.6171 837.618,13.9505 823.5,6.5 Z"/></g>
<g><path style="opacity:0.091" fill="#fefcfc" d="M 863.5,32.5 C 865.5,33.8333 867.167,35.5 868.5,37.5C 865.665,36.9305 863.999,35.2639 863.5,32.5 Z"/></g>
<g><path style="opacity:0.09" fill="#f8f6f8" d="M 36.5,31.5 C 31.2208,37.6254 26.0541,43.9587 21,50.5C 11.9563,64.5809 5.12298,79.5809 0.5,95.5C 5.24556,70.0012 17.2456,48.6679 36.5,31.5 Z"/></g>
<g><path style="opacity:0.116" fill="#f8f6f8" d="M 868.5,37.5 C 879.301,48.3205 887.301,60.9871 892.5,75.5C 889.029,70.6584 886.196,65.325 884,59.5C 882.951,57.3825 881.451,55.7158 879.5,54.5C 876.082,48.6631 872.416,42.9964 868.5,37.5 Z"/></g>
<g><path style="opacity:0.081" fill="#f8f6f7" d="M 892.5,75.5 C 893.931,76.7804 894.598,78.4471 894.5,80.5C 892.787,79.3646 892.12,77.698 892.5,75.5 Z"/></g>
<g><path style="opacity:0.127" fill="#f9f8f9" d="M 894.5,80.5 C 896.832,85.1258 898.165,90.1258 898.5,95.5C 897.442,94.3998 896.608,93.0664 896,91.5C 895.452,87.8296 894.952,84.1629 894.5,80.5 Z"/></g>
<g><path style="opacity:1" fill="#cc281c" d="M 0.5,106.5 C 1.34398,337.015 1.84398,567.681 2,798.5C 0.505854,567.862 0.00585396,337.195 0.5,106.5 Z"/></g>
<g><path style="opacity:1" fill="#fefbfb" d="M 249.5,244.5 C 326.501,244.333 403.501,244.5 480.5,245C 482.286,245.785 483.786,246.951 485,248.5C 485.667,259.833 485.667,271.167 485,282.5C 484.167,284.667 482.667,286.167 480.5,287C 416.168,287.5 351.834,287.667 287.5,287.5C 287.667,309.836 287.5,332.169 287,354.5C 286.097,355.701 284.931,356.535 283.5,357C 272.167,357.667 260.833,357.667 249.5,357C 248.069,356.535 246.903,355.701 246,354.5C 244.354,319.894 244.02,285.227 245,250.5C 246.332,248.34 247.832,246.34 249.5,244.5 Z"/></g>
<g><path style="opacity:1" fill="#fefdfd" d="M 311.5,608.5 C 310.711,608.783 310.044,609.283 309.5,610C 330.831,610.5 352.164,610.667 373.5,610.5C 375.475,611.646 376.975,613.313 378,615.5C 378.667,626.5 378.667,637.5 378,648.5C 377.215,650.286 376.049,651.786 374.5,653C 332.5,653.667 290.5,653.667 248.5,653C 246.951,651.786 245.785,650.286 245,648.5C 244.333,635.833 244.333,623.167 245,610.5C 355.676,503.657 466.509,396.991 577.5,290.5C 578.289,290.217 578.956,289.717 579.5,289C 568.172,288.5 556.838,288.333 545.5,288.5C 543.333,287.802 541.5,286.469 540,284.5C 539.333,272.5 539.333,260.5 540,248.5C 541.167,247.333 542.333,246.167 543.5,245C 579.252,244.014 614.918,244.347 650.5,246C 652.049,247.214 653.215,248.714 654,250.5C 654.667,284.167 654.667,317.833 654,351.5C 653.052,353.57 651.552,355.07 649.5,356C 638.167,356.667 626.833,356.667 615.5,356C 614,355.167 612.833,354 612,352.5C 611.667,341.5 611.333,330.5 611,319.5C 511.271,416.064 411.438,512.397 311.5,608.5 Z"/></g>
<g><path style="opacity:1" fill="#aa1104" d="M 545.5,288.5 C 556.838,288.333 568.172,288.5 579.5,289C 578.956,289.717 578.289,290.217 577.5,290.5C 566.735,289.855 556.068,289.188 545.5,288.5 Z"/></g>
<g><path style="opacity:0.961" fill="#e53f35" d="M 897.5,106.5 C 897.972,273.17 898.306,440.004 898.5,607C 898.646,670.851 898.146,734.684 897,798.5C 896.204,794.245 896.371,790.079 897.5,786C 896.833,785 896.167,784 895.5,783C 896.833,560.333 896.833,337.667 895.5,115C 896.991,112.379 897.658,109.545 897.5,106.5 Z"/></g>
<g><path style="opacity:1" fill="#fefdfd" d="M 614.5,538.5 C 626.505,538.333 638.505,538.5 650.5,539C 652.049,540.214 653.215,541.714 654,543.5C 654.667,578.167 654.667,612.833 654,647.5C 653.654,649.848 652.487,651.681 650.5,653C 578.833,653.667 507.167,653.667 435.5,653C 434,652.167 432.833,651 432,649.5C 431.333,637.833 431.333,626.167 432,614.5C 433.214,612.951 434.714,611.785 436.5,611C 494.832,610.5 553.166,610.333 611.5,610.5C 611.333,587.498 611.5,564.498 612,541.5C 613.045,540.627 613.878,539.627 614.5,538.5 Z"/></g>
<g><path style="opacity:1" fill="#a71811" d="M 311.5,608.5 C 332.265,609.156 352.931,609.822 373.5,610.5C 352.164,610.667 330.831,610.5 309.5,610C 310.044,609.283 310.711,608.783 311.5,608.5 Z"/></g>
<g><path style="opacity:0.131" fill="#f6f4f6" d="M 898.5,803.5 C 896.271,817.873 890.938,830.873 882.5,842.5C 884.968,837.564 887.468,832.564 890,827.5C 892.782,820.703 894.782,813.703 896,806.5C 896.852,805.429 897.685,804.429 898.5,803.5 Z"/></g>
<g><path style="opacity:0.103" fill="#f6f4f6" d="M -0.5,800.5 C 2.63953,810.406 6.3062,820.239 10.5,830C 14.3205,837.307 18.3205,844.474 22.5,851.5C 11.0785,837.323 3.41181,821.323 -0.5,803.5C -0.5,802.5 -0.5,801.5 -0.5,800.5 Z"/></g>
<g><path style="opacity:0.024" fill="#f5f2f4" d="M 882.5,842.5 C 880.327,846.852 877.66,850.852 874.5,854.5C 876.178,849.802 878.845,845.802 882.5,842.5 Z"/></g>
<g><path style="opacity:0.082" fill="#f6f4f6" d="M 22.5,851.5 C 26.4905,855.936 30.8238,860.102 35.5,864C 35.2716,864.399 34.9382,864.565 34.5,864.5C 29.1129,861.446 25.1129,857.113 22.5,851.5 Z"/></g>
<g><path style="opacity:0.078" fill="#f7f5f7" d="M 874.5,854.5 C 871.542,859.126 867.876,863.126 863.5,866.5C 863.281,865.325 863.614,864.325 864.5,863.5C 867.575,860.085 870.908,857.085 874.5,854.5 Z"/></g>
<g><path style="opacity:0.072" fill="#f6f4f6" d="M 34.5,865.5 C 39.4703,868.475 43.8037,872.142 47.5,876.5C 42.6012,873.544 38.2678,869.877 34.5,865.5 Z"/></g>
<g><path style="opacity:0.125" fill="#f7f5f6" d="M 47.5,876.5 C 49.8553,877.094 52.022,878.094 54,879.5C 55.3102,880.13 56.1435,881.13 56.5,882.5C 52.9505,881.277 49.9505,879.277 47.5,876.5 Z"/></g>
<g><path style="opacity:0.088" fill="#f8f6f7" d="M 863.5,866.5 C 852.039,877.945 838.705,886.612 823.5,892.5C 831.022,888.061 838.689,883.561 846.5,879C 852.063,874.591 857.729,870.424 863.5,866.5 Z"/></g>
<g><path style="opacity:0.12" fill="#f7f6f7" d="M 56.5,882.5 C 64.8241,886.328 73.1575,890.162 81.5,894C 85.652,894.926 89.8186,895.76 94,896.5C 95.0299,896.836 95.5299,897.503 95.5,898.5C 81.164,896.157 68.164,890.824 56.5,882.5 Z"/></g>
<g><path style="opacity:0.122" fill="#f8f6f8" d="M 823.5,892.5 C 817.071,895.983 810.404,897.983 803.5,898.5C 804.429,897.685 805.429,896.852 806.5,896C 812.173,894.828 817.84,893.661 823.5,892.5 Z"/></g>
<g><path style="opacity:0.863" fill="#e23c2e" d="M 98.5,896.5 C 326.332,896.83 554.332,896.496 782.5,895.5C 786.779,896.274 791.113,896.774 795.5,897C 793.351,897.579 791.185,898.079 789,898.5C 674.762,898.162 560.429,898.162 446,898.5C 333.167,898.333 220.333,898.167 107.5,898C 104.456,897.637 101.456,897.137 98.5,896.5 Z"/></g>
</svg>
