<svg width="36" height="36" viewBox="0 0 36 36" fill="none" xmlns="http://www.w3.org/2000/svg">
<path fill-rule="evenodd" clip-rule="evenodd" d="M13.8759 9.7032C14.0864 9.55645 14.3551 9.52215 14.5956 9.61137L28.6975 14.8445C29.0048 14.9586 29.2088 15.2522 29.2088 15.5806V26.0469C29.2088 26.4804 28.8581 26.8319 28.4254 26.8319H14.3235C13.8908 26.8319 13.54 26.4804 13.54 26.0469V10.3475C13.54 10.0906 13.6655 9.84995 13.8759 9.7032ZM15.1069 11.4753V25.2619H27.6419V16.127L15.1069 11.4753Z" fill="#4F5AE9"/>
<path fill-rule="evenodd" clip-rule="evenodd" d="M14.9442 9.8689C15.208 10.2125 15.1439 10.7054 14.8009 10.9697L8.31688 15.9672V25.262H14.3232C14.7559 25.262 15.1067 25.6134 15.1067 26.0469C15.1067 26.4805 14.7559 26.8319 14.3232 26.8319H7.53344C7.10076 26.8319 6.75 26.4805 6.75 26.0469V15.5807C6.75 15.3369 6.86298 15.1071 7.05577 14.9585L13.8456 9.72532C14.1885 9.461 14.6804 9.52528 14.9442 9.8689Z" fill="#4F5AE9"/>
<path fill-rule="evenodd" clip-rule="evenodd" d="M18.5656 17.5603C18.7699 17.4127 19.0325 17.3726 19.2714 17.4524L23.972 19.0223C24.292 19.1292 24.5077 19.4292 24.5077 19.767V26.0468C24.5077 26.4803 24.157 26.8318 23.7243 26.8318C23.2916 26.8318 22.9409 26.4803 22.9409 26.0468V20.3328L19.8071 19.2862V26.0468C19.8071 26.4803 19.4564 26.8318 19.0237 26.8318C18.591 26.8318 18.2402 26.4803 18.2402 26.0468V18.1971C18.2402 17.9448 18.3613 17.7078 18.5656 17.5603Z" fill="#4F5AE9"/>
<path fill-rule="evenodd" clip-rule="evenodd" d="M13.54 26.0469C13.54 25.6134 13.8908 25.262 14.3235 25.262H28.4254C28.8581 25.262 29.2088 25.6134 29.2088 26.0469C29.2088 26.4805 28.8581 26.8319 28.4254 26.8319H14.3235C13.8908 26.8319 13.54 26.4805 13.54 26.0469Z" fill="#4F5AE9"/>
</svg>
