<svg width="41" height="41" viewBox="0 0 41 41" fill="none" xmlns="http://www.w3.org/2000/svg">
<rect width="41" height="41" rx="6" fill="#161614"/>
<path d="M20.356 7.13086C12.8064 7.13086 6.68457 13.2517 6.68457 20.8023C6.68457 26.8427 10.6018 31.9673 16.0339 33.7751C16.7172 33.9016 16.9681 33.4785 16.9681 33.1174C16.9681 32.7914 16.9553 31.7144 16.9495 30.572C13.146 31.3991 12.3435 28.959 12.3435 28.959C11.7216 27.3788 10.8255 26.9587 10.8255 26.9587C9.58515 26.1101 10.919 26.1275 10.919 26.1275C12.2919 26.224 13.0148 27.5364 13.0148 27.5364C14.2341 29.6265 16.213 29.0221 16.9932 28.6729C17.1158 27.7892 17.4702 27.1862 17.8611 26.8448C14.8246 26.499 11.6324 25.3267 11.6324 20.0883C11.6324 18.5957 12.1664 17.3761 13.041 16.4187C12.8991 16.0743 12.4312 14.6838 13.1735 12.8007C13.1735 12.8007 14.3215 12.4332 16.9341 14.2021C18.0245 13.8991 19.1941 13.7472 20.356 13.7421C21.5178 13.7472 22.6883 13.8991 23.7809 14.2021C26.3903 12.4332 27.5368 12.8007 27.5368 12.8007C28.2809 14.6838 27.8128 16.0743 27.6708 16.4187C28.5473 17.3761 29.0778 18.5956 29.0778 20.0883C29.0778 25.3392 25.8795 26.4955 22.8353 26.8338C23.3256 27.2581 23.7625 28.0902 23.7625 29.3656C23.7625 31.1948 23.7467 32.6671 23.7467 33.1174C23.7467 33.4812 23.9927 33.9075 24.6858 33.7733C30.1149 31.9635 34.0273 26.8407 34.0273 20.8023C34.0273 13.2517 27.9063 7.13086 20.356 7.13086Z" fill="white"/>
</svg>
