<svg width="41" height="41" viewBox="0 0 41 41" fill="none" xmlns="http://www.w3.org/2000/svg">
<rect width="41" height="41" rx="6" fill="#1F8DED"/>
<path d="M29.8476 8.4668H11.532C9.82253 8.4668 8.46582 9.82351 8.46582 11.5058V29.8215C8.46582 31.5309 9.82253 32.8876 11.532 32.8876H29.8476C31.5299 32.8876 32.8866 31.5309 32.8866 29.8486V11.533C32.8866 9.82351 31.5299 8.4668 29.8476 8.4668ZM23.9323 12.9439C23.9323 12.4827 24.2851 12.1299 24.7464 12.1299C25.2077 12.1299 25.5604 12.4827 25.5604 12.9439V23.8248C25.5604 24.2861 25.2077 24.6388 24.7464 24.6388C24.2851 24.6388 23.9323 24.2861 23.9323 23.8248V12.9439ZM19.8622 12.5369C19.8622 12.0757 20.215 11.7229 20.6762 11.7229C21.1375 11.7229 21.4903 12.0757 21.4903 12.5369V24.3403C21.4903 24.8016 21.1375 25.1544 20.6762 25.1544C20.215 25.1544 19.8622 24.8016 19.8622 24.3403V12.5369ZM15.7921 12.9439C15.7921 12.4827 16.1448 12.1299 16.6061 12.1299C17.0674 12.1299 17.4201 12.4827 17.4201 12.9439V23.8248C17.4201 24.2861 17.0674 24.6388 16.6061 24.6388C16.1448 24.6388 15.7921 24.2861 15.7921 23.8248V12.9439ZM11.7219 14.572C11.7219 14.1107 12.0747 13.758 12.536 13.758C12.9972 13.758 13.35 14.1107 13.35 14.572V21.8983C13.35 22.3595 12.9972 22.7123 12.536 22.7123C12.0747 22.7123 11.7219 22.3595 11.7219 21.8983V14.572ZM29.3592 26.9995C29.2235 27.108 26.2116 29.6315 20.6762 29.6315C15.1408 29.6315 12.1289 27.108 11.9933 26.9995C11.6405 26.701 11.6134 26.1855 11.9119 25.8599C12.2103 25.5071 12.7259 25.48 13.0515 25.7784C13.1058 25.7784 15.7921 28.0035 20.6762 28.0035C25.6147 28.0035 28.2738 25.7784 28.2738 25.7513C28.6266 25.4528 29.1421 25.5071 29.4135 25.8327C29.7391 26.1855 29.6848 26.701 29.3592 26.9995ZM29.6305 21.8983C29.6305 22.3595 29.2778 22.7123 28.8165 22.7123C28.3552 22.7123 28.0025 22.3595 28.0025 21.8983V14.572C28.0025 14.1107 28.3552 13.758 28.8165 13.758C29.2778 13.758 29.6305 14.1107 29.6305 14.572V21.8983Z" fill="white"/>
</svg>
