<svg width="41" height="41" viewBox="0 0 41 41" fill="none" xmlns="http://www.w3.org/2000/svg">
<rect width="41" height="41" rx="6" fill="#0052CC"/>
<path d="M14.5054 19.3694V19.3692C14.4352 19.2875 14.3465 19.2238 14.2466 19.1835C14.1467 19.1432 14.0385 19.1276 13.9313 19.1378C13.8408 19.1543 13.7558 19.1931 13.6841 19.2507C13.6124 19.3083 13.5561 19.3829 13.5204 19.4677L6.74744 33.006C6.70211 33.0965 6.68067 33.1971 6.68515 33.2981C6.68964 33.3992 6.7199 33.4975 6.77306 33.5836C6.82622 33.6697 6.90052 33.7407 6.98889 33.79C7.07726 33.8393 7.17677 33.8652 7.27795 33.8652H16.7086C16.8191 33.8674 16.9278 33.8375 17.0216 33.7791C17.1153 33.7207 17.1902 33.6364 17.2369 33.5363C19.2183 29.4477 17.9921 23.0942 14.5054 19.3694Z" fill="url(#paint0_linear_2848_9747)"/>
<path d="M33.8189 33.0114C33.6919 32.7572 21.1293 7.6206 20.8203 6.9956C20.7799 6.90804 20.7166 6.83303 20.637 6.77852C20.5575 6.72401 20.4646 6.69203 20.3684 6.68596L20.347 6.68555C20.237 6.69122 20.1302 6.72482 20.0368 6.7832C19.9433 6.84157 19.8663 6.92279 19.8129 7.01918L19.8123 7.01976C16.407 12.4143 16.0211 18.9277 18.7805 24.4432L23.3266 33.5349C23.3747 33.6353 23.4502 33.72 23.5444 33.7793C23.6385 33.8387 23.7475 33.8702 23.8588 33.8703H33.2881C33.3893 33.8704 33.4888 33.8446 33.5773 33.7954C33.6657 33.7461 33.74 33.6751 33.7932 33.589C33.8464 33.5029 33.8767 33.4046 33.8812 33.3035C33.8857 33.2024 33.8642 33.1018 33.8189 33.0114Z" fill="url(#paint1_linear_2848_9747)"/>
<defs>
<linearGradient id="paint0_linear_2848_9747" x1="18.2669" y1="21.4997" x2="10.1256" y2="35.6011" gradientUnits="userSpaceOnUse">
<stop stop-color="#F8F8F8"/>
<stop offset="0.92" stop-color="#E7E7E7"/>
</linearGradient>
<linearGradient id="paint1_linear_2848_9747" x1="34.0025" y1="11.05" x2="17.5215" y2="33.8181" gradientUnits="userSpaceOnUse">
<stop stop-color="#F8F8F8"/>
<stop offset="0.92" stop-color="#E7E7E7"/>
</linearGradient>
</defs>
</svg>
