<svg width="41" height="41" viewBox="0 0 41 41" fill="none" xmlns="http://www.w3.org/2000/svg">
<rect width="41" height="41" rx="6" fill="#FFE01B"/>
<path d="M30.8744 23.5078L30.491 22.4213C30.491 22.4213 32.0888 19.9926 28.1262 19.1617C28.1262 19.1617 28.3818 16.1578 26.9757 14.7517C30.0436 11.7478 29.3405 7.20997 22.374 10.15C18.7949 3.31127 4.98962 19.3535 10.7418 21.91C10.1666 22.677 10.1666 26.5117 14.1292 26.8952C16.8136 32.6474 23.3327 33.0309 27.1036 31.3052C30.8744 29.5796 33.0475 24.083 30.8744 23.5078ZM14.0653 26.0644C10.8057 25.7448 10.4861 21.2709 13.2983 20.8235C16.1105 20.3761 16.8136 26.32 14.0653 26.0644ZM13.1066 19.9926C12.2118 19.9926 11.1253 21.207 11.1253 21.207C6.77919 19.0978 18.9866 5.10084 21.607 10.5335C21.607 10.5335 15.2157 13.6013 13.1066 19.9926ZM25.8892 25.4252C25.8892 25.1696 24.547 25.8087 22.1183 24.9778C22.3101 23.6357 25.1862 26.1283 29.9797 22.8687L30.3631 24.2109C32.1527 23.8913 30.3631 29.9631 24.611 29.8991C19.9453 29.8352 18.4753 25.0417 21.0318 22.4213C21.5431 21.91 19.1783 20.8874 19.6257 18.6504C19.8175 17.6917 20.6483 16.2856 22.7575 16.6691C24.8666 17.0526 25.314 15.1352 26.7201 15.8382C28.1262 16.5413 27.2953 19.2256 27.487 19.6091C27.6788 19.9926 29.724 20.0565 30.1075 21.143C30.491 22.2296 27.487 24.5943 22.8214 23.9552C21.7349 23.8274 21.0957 25.2335 21.7988 26.1283C23.2049 28.1735 28.957 26.8313 29.9157 24.85C27.487 26.7035 22.5018 27.4065 22.1183 25.4252C23.5244 26.0644 25.8892 25.6809 25.8892 25.4252ZM17.5166 15.3269C18.9227 13.6013 20.7762 12.5787 20.7762 12.5787L20.3927 13.5374C20.3927 13.5374 21.7349 12.5148 23.2049 12.5148L22.6936 13.0261C24.3553 13.09 25.0583 13.7291 25.0583 13.7291C25.0583 13.7291 21.1596 12.5787 17.5166 15.3269ZM26.1449 17.8196C26.9757 17.7556 26.7201 19.673 26.7201 19.673H26.2088C26.2088 19.673 25.314 17.8835 26.1449 17.8196ZM22.374 19.9287C21.7988 19.9926 21.1596 20.3122 21.2236 20.0565C21.4792 19.0339 23.844 19.2896 23.7801 20.1843C23.7162 21.0791 23.2049 19.8009 22.374 19.9287ZM23.7162 20.6956C23.7801 20.8235 23.2688 20.6956 22.8853 20.7596C22.5018 20.8235 22.1183 21.0152 22.1183 20.8874C22.1183 20.7596 23.5883 20.1843 23.7162 20.6956ZM24.9944 20.8874C25.1862 20.5039 25.9531 20.8874 25.7614 21.2709C25.5697 21.6543 24.8027 21.2709 24.9944 20.8874ZM26.5923 21.0152C26.2088 21.0152 26.2088 20.1843 26.5923 20.1843C26.9757 20.1843 26.9757 21.0791 26.5923 21.0791V21.0152ZM15.0879 24.4026C15.2796 24.5943 14.7044 24.9778 14.257 24.6583C13.8096 24.3387 14.7683 22.8048 13.6179 22.4213C12.4675 22.0378 12.787 23.5078 12.4675 23.3161C12.1479 23.1243 12.9148 21.0791 14.257 21.91C15.5992 22.7409 13.8735 24.0191 14.6405 24.4026C15.4075 24.7861 14.9601 24.2748 15.0879 24.4026Z" fill="#1E1E1E"/>
</svg>
