<svg width="41" height="41" viewBox="0 0 41 41" fill="none" xmlns="http://www.w3.org/2000/svg">
<rect width="41" height="41" rx="6" fill="#4A154B"/>
<path fill-rule="evenodd" clip-rule="evenodd" d="M13.8029 23.5494C13.8029 24.8965 12.7158 25.9836 11.3688 25.9836C10.0217 25.9836 8.93457 24.8928 8.93457 23.5494C8.93457 22.206 10.0217 21.1152 11.3688 21.1152H13.8029V23.5494ZM15.0182 23.5494C15.0182 22.2024 16.1054 21.1152 17.4524 21.1152C18.7994 21.1152 19.8866 22.2024 19.8866 23.5494V29.6331C19.8866 30.9801 18.7994 32.0672 17.4524 32.0672C16.1054 32.0672 15.0182 30.9801 15.0182 29.6331V23.5494Z" fill="#E01E5A"/>
<path fill-rule="evenodd" clip-rule="evenodd" d="M17.4502 13.7805C16.1031 13.7805 15.016 12.6933 15.016 11.3463C15.016 9.99926 16.1031 8.91211 17.4502 8.91211C18.7972 8.91211 19.8844 9.99926 19.8844 11.3463V13.7805H17.4502ZM17.4502 15.014C18.7972 15.014 19.8844 16.1012 19.8844 17.4482C19.8844 18.7953 18.7972 19.8824 17.4502 19.8824H11.3482C10.0012 19.8824 8.91406 18.7916 8.91406 17.4482C8.91406 16.1049 10.0012 15.014 11.3482 15.014H17.4502Z" fill="#36C5F0"/>
<path fill-rule="evenodd" clip-rule="evenodd" d="M27.2018 17.4482C27.2018 16.1012 28.2889 15.014 29.636 15.014C30.983 15.014 32.0702 16.1012 32.0702 17.4482C32.0702 18.7953 30.983 19.8824 29.636 19.8824H27.2018V17.4482ZM25.9865 17.4482C25.9865 18.7953 24.8994 19.8824 23.5524 19.8824C22.2053 19.8824 21.1182 18.7953 21.1182 17.4482V11.3463C21.1182 9.99926 22.2053 8.91211 23.5524 8.91211C24.8994 8.91211 25.9865 9.99926 25.9865 11.3463V17.4482Z" fill="#2EB67D"/>
<path fill-rule="evenodd" clip-rule="evenodd" d="M23.5524 27.1989C24.8994 27.1989 25.9865 28.286 25.9865 29.6331C25.9865 30.9801 24.8994 32.0672 23.5524 32.0672C22.2053 32.0672 21.1182 30.9801 21.1182 29.6331V27.1989H23.5524ZM23.5524 25.9836C22.2053 25.9836 21.1182 24.8965 21.1182 23.5494C21.1182 22.2024 22.2053 21.1152 23.5524 21.1152H29.6543C31.0013 21.1152 32.0885 22.2024 32.0885 23.5494C32.0885 24.8965 31.0013 25.9836 29.6543 25.9836H23.5524Z" fill="#ECB22E"/>
</svg>
